<?xml version="1.0" encoding="utf-8"?>
<!-- Generator: Adobe Illustrator 18.1.1, SVG Export Plug-In . SVG Version: 6.00 Build 0)  -->
<!DOCTYPE svg PUBLIC "-//W3C//DTD SVG 1.1//EN" "http://www.w3.org/Graphics/SVG/1.1/DTD/svg11.dtd">
<svg version="1.1" id="Layer_1" xmlns="http://www.w3.org/2000/svg" xmlns:xlink="http://www.w3.org/1999/xlink" x="0px" y="0px"
	 viewBox="0 0 104.8 40.3" enable-background="new 0 0 104.8 40.3" xml:space="preserve">
<g>
	
		<rect x="85.4" y="18.3" transform="matrix(0.8723 0.489 -0.489 0.8723 20.955 -42.9797)" fill="#707070" width="14.8" height="0.8"/>
	
		<rect x="95.6" y="13.1" transform="matrix(0.4894 0.8721 -0.8721 0.4894 63.6792 -75.1113)" fill="#707070" width="0.8" height="7.4"/>
	<polygon fill="#707070" points="92.6,26.2 79.1,18.6 95.8,9.3 96.2,9.9 80.6,18.6 92.9,25.6 	"/>
	<path fill="#D8D8D8" d="M88.2,2.3c0-0.7,0.6-1.3,1.3-1.3c0.7,0,1.3,0.6,1.3,1.3c0,0.7-0.6,1.3-1.3,1.3C88.8,3.7,88.2,3.1,88.2,2.3"
		/>
	<path fill="#D8D8D8" d="M88.2,2.3c0-0.7,0.6-1.3,1.3-1.3c0.7,0,1.3,0.6,1.3,1.3c0,0.7-0.6,1.3-1.3,1.3C88.8,3.7,88.2,3.1,88.2,2.3"
		/>
	<path fill="#D8D8D8" d="M88.2,31.3c0-0.7,0.6-1.3,1.3-1.3c0.7,0,1.3,0.6,1.3,1.3s-0.6,1.3-1.3,1.3C88.8,32.7,88.2,32.1,88.2,31.3"
		/>
	<path fill="#D8D8D8" d="M88.2,31.3c0-0.7,0.6-1.3,1.3-1.3c0.7,0,1.3,0.6,1.3,1.3s-0.6,1.3-1.3,1.3C88.8,32.7,88.2,32.1,88.2,31.3"
		/>
	<path fill="#D8D8D8" d="M91.4,4.2c0-0.7,0.6-1.3,1.3-1.3c0.7,0,1.3,0.6,1.3,1.3c0,0.7-0.6,1.3-1.3,1.3C92,5.5,91.4,4.9,91.4,4.2"/>
	<path fill="#D8D8D8" d="M85,4.2c0-0.7,0.6-1.3,1.3-1.3c0.7,0,1.3,0.6,1.3,1.3c0,0.7-0.6,1.3-1.3,1.3C85.6,5.5,85,4.9,85,4.2"/>
	<path fill="#D8D8D8" d="M91.4,29.5c0-0.7,0.6-1.3,1.3-1.3c0.7,0,1.3,0.6,1.3,1.3c0,0.7-0.6,1.3-1.3,1.3
		C92,30.8,91.4,30.2,91.4,29.5"/>
	<path fill="#D8D8D8" d="M85,29.5c0-0.7,0.6-1.3,1.3-1.3c0.7,0,1.3,0.6,1.3,1.3c0,0.7-0.6,1.3-1.3,1.3C85.6,30.8,85,30.2,85,29.5"/>
	<path fill="#D8D8D8" d="M88.2,6c0-0.7,0.6-1.3,1.3-1.3c0.7,0,1.3,0.6,1.3,1.3c0,0.7-0.6,1.3-1.3,1.3C88.8,7.3,88.2,6.7,88.2,6"/>
	<path fill="#D8D8D8" d="M94.6,6c0-0.7,0.6-1.3,1.3-1.3c0.7,0,1.3,0.6,1.3,1.3c0,0.7-0.6,1.3-1.3,1.3C95.2,7.3,94.6,6.7,94.6,6"/>
	<path fill="#D8D8D8" d="M81.8,6c0-0.7,0.6-1.3,1.3-1.3c0.7,0,1.3,0.6,1.3,1.3c0,0.7-0.6,1.3-1.3,1.3C82.4,7.3,81.8,6.7,81.8,6"/>
	<path fill="#D8D8D8" d="M88.2,27.7c0-0.7,0.6-1.3,1.3-1.3c0.7,0,1.3,0.6,1.3,1.3c0,0.7-0.6,1.3-1.3,1.3
		C88.8,29,88.2,28.4,88.2,27.7"/>
	<path fill="#D8D8D8" d="M94.6,27.7c0-0.7,0.6-1.3,1.3-1.3c0.7,0,1.3,0.6,1.3,1.3c0,0.7-0.6,1.3-1.3,1.3
		C95.2,29,94.6,28.4,94.6,27.7"/>
	<path fill="#D8D8D8" d="M81.8,27.7c0-0.7,0.6-1.3,1.3-1.3c0.7,0,1.3,0.6,1.3,1.3c0,0.7-0.6,1.3-1.3,1.3
		C82.4,29,81.8,28.4,81.8,27.7"/>
	<path fill="#D8D8D8" d="M91.4,7.8c0-0.7,0.6-1.3,1.3-1.3c0.7,0,1.3,0.6,1.3,1.3c0,0.7-0.6,1.3-1.3,1.3C92,9.1,91.4,8.5,91.4,7.8"/>
	<path fill="#D8D8D8" d="M97.9,7.8c0-0.7,0.6-1.3,1.3-1.3c0.7,0,1.3,0.6,1.3,1.3c0,0.7-0.6,1.3-1.3,1.3C98.5,9.1,97.9,8.5,97.9,7.8"
		/>
	<path fill="#D8D8D8" d="M85,7.8c0-0.7,0.6-1.3,1.3-1.3c0.7,0,1.3,0.6,1.3,1.3c0,0.7-0.6,1.3-1.3,1.3C85.6,9.1,85,8.5,85,7.8"/>
	<path fill="#D8D8D8" d="M78.5,7.8c0-0.7,0.6-1.3,1.3-1.3c0.7,0,1.3,0.6,1.3,1.3c0,0.7-0.6,1.3-1.3,1.3C79.1,9.1,78.5,8.5,78.5,7.8"
		/>
	<path fill="#D8D8D8" d="M97.9,11.4c0-0.7,0.6-1.3,1.3-1.3c0.7,0,1.3,0.6,1.3,1.3c0,0.7-0.6,1.3-1.3,1.3
		C98.5,12.7,97.9,12.1,97.9,11.4"/>
	<path fill="#D8D8D8" d="M85,11.4c0-0.7,0.6-1.3,1.3-1.3c0.7,0,1.3,0.6,1.3,1.3c0,0.7-0.6,1.3-1.3,1.3C85.6,12.7,85,12.1,85,11.4"/>
	<path fill="#D8D8D8" d="M78.5,11.4c0-0.7,0.6-1.3,1.3-1.3c0.7,0,1.3,0.6,1.3,1.3c0,0.7-0.6,1.3-1.3,1.3
		C79.1,12.7,78.5,12.1,78.5,11.4"/>
	<path fill="#D8D8D8" d="M91.4,15c0-0.7,0.6-1.3,1.3-1.3c0.7,0,1.3,0.6,1.3,1.3c0,0.7-0.6,1.3-1.3,1.3C92,16.4,91.4,15.8,91.4,15"/>
	<path fill="#066CFF" d="M97.9,15c0-0.7,0.6-1.3,1.3-1.3c0.7,0,1.3,0.6,1.3,1.3c0,0.7-0.6,1.3-1.3,1.3C98.5,16.4,97.9,15.8,97.9,15"
		/>
	<path fill="#066CFF" d="M85,15c0-0.7,0.6-1.3,1.3-1.3c0.7,0,1.3,0.6,1.3,1.3c0,0.7-0.6,1.3-1.3,1.3C85.6,16.4,85,15.8,85,15"/>
	<path fill="#D8D8D8" d="M78.5,15c0-0.7,0.6-1.3,1.3-1.3c0.7,0,1.3,0.6,1.3,1.3c0,0.7-0.6,1.3-1.3,1.3C79.1,16.4,78.5,15.8,78.5,15"
		/>
	<path fill="#066CFF" d="M91.4,18.6c0-0.7,0.6-1.3,1.3-1.3c0.7,0,1.3,0.6,1.3,1.3c0,0.7-0.6,1.3-1.3,1.3C92,20,91.4,19.4,91.4,18.6"
		/>
	<path fill="#D8D8D8" d="M97.9,18.6c0-0.7,0.6-1.3,1.3-1.3c0.7,0,1.3,0.6,1.3,1.3c0,0.7-0.6,1.3-1.3,1.3
		C98.5,20,97.9,19.4,97.9,18.6"/>
	<path fill="#D8D8D8" d="M85,18.6c0-0.7,0.6-1.3,1.3-1.3c0.7,0,1.3,0.6,1.3,1.3c0,0.7-0.6,1.3-1.3,1.3C85.6,20,85,19.4,85,18.6"/>
	<path fill="#066CFF" d="M78.5,18.6c0-0.7,0.6-1.3,1.3-1.3c0.7,0,1.3,0.6,1.3,1.3c0,0.7-0.6,1.3-1.3,1.3
		C79.1,20,78.5,19.4,78.5,18.6"/>
	<path fill="#D8D8D8" d="M91.4,22.3c0-0.7,0.6-1.3,1.3-1.3c0.7,0,1.3,0.6,1.3,1.3c0,0.7-0.6,1.3-1.3,1.3C92,23.6,91.4,23,91.4,22.3"
		/>
	<path fill="#066CFF" d="M97.9,22.3c0-0.7,0.6-1.3,1.3-1.3c0.7,0,1.3,0.6,1.3,1.3c0,0.7-0.6,1.3-1.3,1.3
		C98.5,23.6,97.9,23,97.9,22.3"/>
	<path fill="#D8D8D8" d="M78.5,22.3c0-0.7,0.6-1.3,1.3-1.3c0.7,0,1.3,0.6,1.3,1.3c0,0.7-0.6,1.3-1.3,1.3
		C79.1,23.6,78.5,23,78.5,22.3"/>
	<path fill="#066CFF" d="M91.4,25.9c0-0.7,0.6-1.3,1.3-1.3c0.7,0,1.3,0.6,1.3,1.3c0,0.7-0.6,1.3-1.3,1.3
		C92,27.2,91.4,26.6,91.4,25.9"/>
	<path fill="#D8D8D8" d="M97.9,25.9c0-0.7,0.6-1.3,1.3-1.3c0.7,0,1.3,0.6,1.3,1.3c0,0.7-0.6,1.3-1.3,1.3
		C98.5,27.2,97.9,26.6,97.9,25.9"/>
	<path fill="#D8D8D8" d="M85,25.9c0-0.7,0.6-1.3,1.3-1.3c0.7,0,1.3,0.6,1.3,1.3c0,0.7-0.6,1.3-1.3,1.3C85.6,27.2,85,26.6,85,25.9"/>
	<path fill="#D8D8D8" d="M78.5,25.9c0-0.7,0.6-1.3,1.3-1.3c0.7,0,1.3,0.6,1.3,1.3c0,0.7-0.6,1.3-1.3,1.3
		C79.1,27.2,78.5,26.6,78.5,25.9"/>
	<path fill="#D8D8D8" d="M88.2,9.6c0-0.7,0.6-1.3,1.3-1.3c0.7,0,1.3,0.6,1.3,1.3c0,0.7-0.6,1.3-1.3,1.3
		C88.8,10.9,88.2,10.3,88.2,9.6"/>
	<path fill="#066CFF" d="M94.6,9.6c0-0.7,0.6-1.3,1.3-1.3c0.7,0,1.3,0.6,1.3,1.3c0,0.7-0.6,1.3-1.3,1.3
		C95.2,10.9,94.6,10.3,94.6,9.6"/>
	<path fill="#D8D8D8" d="M101.1,9.6c0-0.7,0.6-1.3,1.3-1.3c0.7,0,1.3,0.6,1.3,1.3c0,0.7-0.6,1.3-1.3,1.3
		C101.7,10.9,101.1,10.3,101.1,9.6"/>
	<path fill="#D8D8D8" d="M81.8,9.6c0-0.7,0.6-1.3,1.3-1.3c0.7,0,1.3,0.6,1.3,1.3c0,0.7-0.6,1.3-1.3,1.3
		C82.4,10.9,81.8,10.3,81.8,9.6"/>
	<path fill="#D8D8D8" d="M75.3,9.6c0-0.7,0.6-1.3,1.3-1.3c0.7,0,1.3,0.6,1.3,1.3c0,0.7-0.6,1.3-1.3,1.3
		C75.9,10.9,75.3,10.3,75.3,9.6"/>
	<path fill="#D8D8D8" d="M94.6,13.2c0-0.7,0.6-1.3,1.3-1.3c0.7,0,1.3,0.6,1.3,1.3c0,0.7-0.6,1.3-1.3,1.3
		C95.2,14.6,94.6,14,94.6,13.2"/>
	<path fill="#D8D8D8" d="M101.1,13.2c0-0.7,0.6-1.3,1.3-1.3c0.7,0,1.3,0.6,1.3,1.3c0,0.7-0.6,1.3-1.3,1.3
		C101.7,14.6,101.1,14,101.1,13.2"/>
	<path fill="#D8D8D8" d="M81.8,13.2c0-0.7,0.6-1.3,1.3-1.3c0.7,0,1.3,0.6,1.3,1.3c0,0.7-0.6,1.3-1.3,1.3
		C82.4,14.6,81.8,14,81.8,13.2"/>
	<path fill="#D8D8D8" d="M75.3,13.2c0-0.7,0.6-1.3,1.3-1.3c0.7,0,1.3,0.6,1.3,1.3c0,0.7-0.6,1.3-1.3,1.3
		C75.9,14.6,75.3,14,75.3,13.2"/>
	<path fill="#D8D8D8" d="M101.1,16.8c0-0.7,0.6-1.3,1.3-1.3c0.7,0,1.3,0.6,1.3,1.3s-0.6,1.3-1.3,1.3
		C101.7,18.2,101.1,17.6,101.1,16.8"/>
	<path fill="#D8D8D8" d="M75.3,16.8c0-0.7,0.6-1.3,1.3-1.3c0.7,0,1.3,0.6,1.3,1.3s-0.6,1.3-1.3,1.3C75.9,18.2,75.3,17.6,75.3,16.8"
		/>
	<path fill="#D8D8D8" d="M88.2,20.4c0-0.7,0.6-1.3,1.3-1.3c0.7,0,1.3,0.6,1.3,1.3c0,0.7-0.6,1.3-1.3,1.3
		C88.8,21.8,88.2,21.2,88.2,20.4"/>
	<path fill="#D8D8D8" d="M101.1,20.4c0-0.7,0.6-1.3,1.3-1.3c0.7,0,1.3,0.6,1.3,1.3c0,0.7-0.6,1.3-1.3,1.3
		C101.7,21.8,101.1,21.2,101.1,20.4"/>
	<path fill="#D8D8D8" d="M75.3,20.4c0-0.7,0.6-1.3,1.3-1.3c0.7,0,1.3,0.6,1.3,1.3c0,0.7-0.6,1.3-1.3,1.3
		C75.9,21.8,75.3,21.2,75.3,20.4"/>
	<path fill="#D8D8D8" d="M94.6,24.1c0-0.7,0.6-1.3,1.3-1.3c0.7,0,1.3,0.6,1.3,1.3c0,0.7-0.6,1.3-1.3,1.3
		C95.2,25.4,94.6,24.8,94.6,24.1"/>
	<path fill="#D8D8D8" d="M101.1,24.1c0-0.7,0.6-1.3,1.3-1.3c0.7,0,1.3,0.6,1.3,1.3c0,0.7-0.6,1.3-1.3,1.3
		C101.7,25.4,101.1,24.8,101.1,24.1"/>
	<path fill="#D8D8D8" d="M81.8,24.1c0-0.7,0.6-1.3,1.3-1.3c0.7,0,1.3,0.6,1.3,1.3c0,0.7-0.6,1.3-1.3,1.3
		C82.4,25.4,81.8,24.8,81.8,24.1"/>
	<path fill="#D8D8D8" d="M75.3,24.1c0-0.7,0.6-1.3,1.3-1.3c0.7,0,1.3,0.6,1.3,1.3c0,0.7-0.6,1.3-1.3,1.3
		C75.9,25.4,75.3,24.8,75.3,24.1"/>
	<polygon fill="#A3A3A3" points="1.4,11.4 8.9,11.4 8.9,12.6 2.8,12.6 2.8,16.1 8.4,16.1 8.4,17.3 2.8,17.3 2.8,21 8.9,21 8.9,22.2 
		1.4,22.2 	"/>
	<polygon fill="#A3A3A3" points="10.7,11.4 12.7,11.4 16.1,20.5 19.5,11.4 21.5,11.4 21.5,22.2 20.1,22.2 20.1,13.2 20.1,13.2 
		16.7,22.2 15.5,22.2 12.1,13.2 12,13.2 12,22.2 10.7,22.2 	"/>
	<path fill="#A3A3A3" d="M23.9,11.4h3.9c0.9,0,2.2,0,2.9,0.4c0.7,0.4,1.3,1.2,1.3,2.3c0,1.2-0.6,2-1.6,2.4v0
		c1.3,0.3,2.1,1.3,2.1,2.6c0,1.6-1.2,3.1-3.3,3.1h-5.2V11.4z M25.3,16.1h2.9c1.6,0,2.3-0.6,2.3-1.7c0-1.5-1-1.7-2.3-1.7h-2.9V16.1z
		 M25.3,21h3.6c1.3,0,2-0.7,2-1.9c0-1.4-1.1-1.8-2.4-1.8h-3.3V21z"/>
	<polygon fill="#A3A3A3" points="34.3,11.4 35.7,11.4 35.7,21 41.5,21 41.5,22.2 34.3,22.2 	"/>
	<polygon fill="#A3A3A3" points="48.6,11.4 56.1,11.4 56.1,12.6 50.1,12.6 50.1,16.1 55.7,16.1 55.7,17.3 50.1,17.3 50.1,21 
		56.2,21 56.2,22.2 48.6,22.2 	"/>
	<path fill="#A3A3A3" d="M57.9,11.4h3.9c0.9,0,2.2,0,2.9,0.4c0.7,0.4,1.3,1.2,1.3,2.3c0,1.2-0.6,2-1.6,2.4v0
		c1.3,0.3,2.1,1.3,2.1,2.6c0,1.6-1.2,3.1-3.3,3.1h-5.2V11.4z M59.4,16.1h2.9c1.6,0,2.3-0.6,2.3-1.7c0-1.5-1-1.7-2.3-1.7h-2.9V16.1z
		 M59.4,21H63c1.3,0,2-0.7,2-1.9c0-1.4-1.1-1.8-2.4-1.8h-3.3V21z"/>
	<rect x="68.4" y="11.4" fill="#A3A3A3" width="1.4" height="10.8"/>
	<rect x="42.3" y="16.1" fill="#A3A3A3" width="4.4" height="1.2"/>
	<path fill="#A3A3A3" d="M7.2,37.5H6.4l-0.2-0.8c-0.3,0.4-0.6,0.6-0.9,0.7c-0.3,0.1-0.7,0.2-1.1,0.2c-0.5,0-1-0.1-1.4-0.3
		c-0.4-0.2-0.7-0.4-1-0.8c-0.3-0.3-0.5-0.7-0.6-1.1C1.1,35.1,1,34.6,1,34.2c0-0.5,0.1-0.9,0.2-1.4c0.1-0.4,0.4-0.8,0.6-1.1
		c0.3-0.3,0.6-0.6,1-0.8s0.8-0.3,1.4-0.3c0.4,0,0.7,0,1,0.1c0.3,0.1,0.6,0.2,0.9,0.4c0.3,0.2,0.5,0.4,0.6,0.7c0.2,0.3,0.3,0.6,0.3,1
		H6c0-0.2-0.1-0.4-0.2-0.6c-0.1-0.2-0.2-0.3-0.4-0.4c-0.2-0.1-0.3-0.2-0.5-0.3c-0.2-0.1-0.4-0.1-0.6-0.1c-0.4,0-0.7,0.1-0.9,0.2
		s-0.5,0.3-0.6,0.6c-0.2,0.2-0.3,0.5-0.4,0.8c-0.1,0.3-0.1,0.6-0.1,0.9s0,0.6,0.1,0.9c0.1,0.3,0.2,0.6,0.4,0.8
		c0.2,0.2,0.4,0.4,0.6,0.6s0.6,0.2,0.9,0.2c0.3,0,0.6,0,0.8-0.1c0.2-0.1,0.4-0.2,0.6-0.4s0.3-0.4,0.4-0.6c0.1-0.2,0.1-0.5,0.1-0.8
		H4.3V34h2.9V37.5z"/>
	<path fill="#A3A3A3" d="M10.6,37.7c-0.4,0-0.7-0.1-1-0.2c-0.3-0.1-0.6-0.3-0.8-0.5s-0.4-0.5-0.5-0.8c-0.1-0.3-0.2-0.7-0.2-1
		c0-0.4,0.1-0.7,0.2-1c0.1-0.3,0.3-0.6,0.5-0.8s0.5-0.4,0.8-0.5s0.7-0.2,1-0.2c0.4,0,0.7,0.1,1,0.2s0.6,0.3,0.8,0.5s0.4,0.5,0.5,0.8
		s0.2,0.7,0.2,1c0,0.4-0.1,0.7-0.2,1c-0.1,0.3-0.3,0.6-0.5,0.8s-0.5,0.4-0.8,0.5C11.3,37.6,11,37.7,10.6,37.7z M10.6,36.8
		c0.2,0,0.4-0.1,0.6-0.2c0.2-0.1,0.3-0.2,0.4-0.4c0.1-0.2,0.2-0.3,0.2-0.6c0.1-0.2,0.1-0.4,0.1-0.6c0-0.2,0-0.4-0.1-0.6
		c-0.1-0.2-0.1-0.4-0.2-0.6c-0.1-0.2-0.3-0.3-0.4-0.4c-0.2-0.1-0.4-0.2-0.6-0.2s-0.4,0.1-0.6,0.2s-0.3,0.2-0.4,0.4
		c-0.1,0.2-0.2,0.3-0.2,0.6c-0.1,0.2-0.1,0.4-0.1,0.6c0,0.2,0,0.4,0.1,0.6c0.1,0.2,0.1,0.4,0.2,0.6c0.1,0.2,0.3,0.3,0.4,0.4
		C10.2,36.8,10.4,36.8,10.6,36.8z"/>
	<rect x="14" y="30.8" fill="#A3A3A3" width="1.1" height="6.7"/>
	<path fill="#A3A3A3" d="M20.9,37.5h-1v-0.7h0c-0.1,0.3-0.4,0.5-0.6,0.6c-0.3,0.1-0.6,0.2-0.9,0.2c-0.4,0-0.7-0.1-1-0.2
		c-0.3-0.1-0.5-0.3-0.7-0.6s-0.3-0.5-0.4-0.8c-0.1-0.3-0.1-0.7-0.1-1c0-0.4,0.1-0.8,0.2-1.1c0.1-0.3,0.3-0.6,0.5-0.8
		c0.2-0.2,0.4-0.4,0.7-0.5c0.3-0.1,0.5-0.1,0.8-0.1c0.2,0,0.3,0,0.5,0s0.3,0.1,0.5,0.1c0.1,0.1,0.3,0.1,0.4,0.2
		c0.1,0.1,0.2,0.2,0.3,0.3h0v-2.5h1.1V37.5z M17.2,35.1c0,0.2,0,0.4,0.1,0.6c0.1,0.2,0.1,0.4,0.2,0.5s0.2,0.3,0.4,0.4
		c0.2,0.1,0.4,0.1,0.6,0.1c0.2,0,0.4-0.1,0.6-0.2c0.2-0.1,0.3-0.2,0.4-0.4s0.2-0.3,0.2-0.6c0.1-0.2,0.1-0.4,0.1-0.6
		c0-0.5-0.1-1-0.4-1.3c-0.2-0.3-0.6-0.5-1-0.5c-0.3,0-0.5,0.1-0.6,0.2c-0.2,0.1-0.3,0.2-0.4,0.4c-0.1,0.2-0.2,0.4-0.2,0.6
		C17.2,34.7,17.2,34.9,17.2,35.1z"/>
	<path fill="#A3A3A3" d="M22.2,32.7h1v0.7h0c0.1-0.1,0.2-0.2,0.3-0.3c0.1-0.1,0.2-0.2,0.3-0.3c0.1-0.1,0.2-0.1,0.4-0.2
		c0.2,0,0.3-0.1,0.5-0.1c0.3,0,0.6,0.1,0.8,0.2c0.3,0.1,0.4,0.3,0.5,0.6c0.2-0.3,0.4-0.4,0.6-0.6s0.5-0.2,0.9-0.2
		c0.5,0,0.9,0.1,1.2,0.4c0.3,0.3,0.4,0.7,0.4,1.3v3.4h-1.1v-2.8c0-0.2,0-0.4,0-0.5c0-0.2,0-0.3-0.1-0.4c-0.1-0.1-0.1-0.2-0.3-0.3
		c-0.1-0.1-0.3-0.1-0.5-0.1c-0.4,0-0.6,0.1-0.8,0.3c-0.2,0.2-0.2,0.5-0.2,1v2.9h-1.1v-3.1c0-0.3-0.1-0.6-0.2-0.8s-0.3-0.3-0.7-0.3
		c-0.1,0-0.3,0-0.4,0.1c-0.1,0.1-0.2,0.1-0.3,0.2c-0.1,0.1-0.2,0.2-0.2,0.4c-0.1,0.2-0.1,0.3-0.1,0.5v2.9h-1.1V32.7z"/>
	<path fill="#A3A3A3" d="M34.5,36.4c0,0.1,0,0.2,0.1,0.3c0,0.1,0.1,0.1,0.2,0.1h0.1l0.2,0v0.7l-0.1,0l-0.2,0l-0.2,0l-0.2,0
		c-0.2,0-0.4,0-0.5-0.1s-0.2-0.2-0.3-0.5c-0.2,0.2-0.5,0.4-0.8,0.5s-0.6,0.1-0.9,0.1c-0.2,0-0.4,0-0.6-0.1c-0.2-0.1-0.4-0.1-0.5-0.3
		c-0.2-0.1-0.3-0.3-0.4-0.4c-0.1-0.2-0.1-0.4-0.1-0.6c0-0.3,0.1-0.5,0.2-0.7s0.3-0.3,0.4-0.4s0.4-0.2,0.6-0.2c0.2,0,0.4-0.1,0.7-0.1
		c0.2,0,0.4-0.1,0.6-0.1c0.2,0,0.3,0,0.5-0.1s0.2-0.1,0.3-0.2s0.1-0.2,0.1-0.4c0-0.1,0-0.3-0.1-0.3c-0.1-0.1-0.1-0.2-0.2-0.2
		c-0.1,0-0.2-0.1-0.3-0.1c-0.1,0-0.2,0-0.3,0c-0.3,0-0.5,0.1-0.7,0.2c-0.2,0.1-0.3,0.3-0.3,0.6h-1.1c0-0.3,0.1-0.6,0.2-0.8
		c0.1-0.2,0.3-0.4,0.5-0.5s0.4-0.2,0.7-0.3c0.3,0,0.5-0.1,0.8-0.1c0.2,0,0.5,0,0.7,0.1c0.2,0.1,0.4,0.1,0.6,0.2
		c0.2,0.1,0.3,0.3,0.4,0.4c0.1,0.2,0.2,0.4,0.2,0.7V36.4z M33.4,35.1c-0.2,0.1-0.4,0.2-0.6,0.2s-0.5,0.1-0.7,0.1
		c-0.1,0-0.2,0-0.3,0.1s-0.2,0.1-0.3,0.1c-0.1,0.1-0.1,0.1-0.2,0.2c0,0.1-0.1,0.2-0.1,0.4c0,0.1,0,0.2,0.1,0.3
		c0.1,0.1,0.2,0.1,0.2,0.2c0.1,0,0.2,0.1,0.3,0.1c0.1,0,0.2,0,0.3,0c0.1,0,0.2,0,0.4,0s0.3-0.1,0.4-0.2c0.1-0.1,0.2-0.2,0.3-0.3
		c0.1-0.1,0.1-0.3,0.1-0.4V35.1z"/>
	<path fill="#A3A3A3" d="M35.7,32.7h1v0.7l0,0c0.2-0.3,0.4-0.5,0.6-0.6c0.3-0.2,0.6-0.2,0.9-0.2c0.5,0,1,0.1,1.3,0.4
		c0.3,0.3,0.5,0.7,0.5,1.2v3.3h-1.1v-3.1c0-0.4-0.1-0.7-0.2-0.8s-0.4-0.3-0.7-0.3c-0.2,0-0.3,0-0.5,0.1s-0.3,0.2-0.4,0.3
		c-0.1,0.1-0.2,0.3-0.2,0.4s-0.1,0.3-0.1,0.5v2.9h-1.1V32.7z"/>
	<path fill="#A3A3A3" d="M49.9,37.5h-0.8l-0.2-0.8c-0.3,0.4-0.6,0.6-0.9,0.7c-0.3,0.1-0.7,0.2-1.1,0.2c-0.5,0-1-0.1-1.4-0.3
		c-0.4-0.2-0.7-0.4-1-0.8c-0.3-0.3-0.5-0.7-0.6-1.1c-0.1-0.4-0.2-0.9-0.2-1.4c0-0.5,0.1-0.9,0.2-1.4c0.1-0.4,0.4-0.8,0.6-1.1
		c0.3-0.3,0.6-0.6,1-0.8s0.8-0.3,1.4-0.3c0.4,0,0.7,0,1,0.1c0.3,0.1,0.6,0.2,0.9,0.4c0.3,0.2,0.5,0.4,0.6,0.7c0.2,0.3,0.3,0.6,0.3,1
		h-1.1c0-0.2-0.1-0.4-0.2-0.6c-0.1-0.2-0.2-0.3-0.4-0.4c-0.2-0.1-0.3-0.2-0.5-0.3c-0.2-0.1-0.4-0.1-0.6-0.1c-0.4,0-0.7,0.1-0.9,0.2
		s-0.5,0.3-0.6,0.6c-0.2,0.2-0.3,0.5-0.4,0.8c-0.1,0.3-0.1,0.6-0.1,0.9s0,0.6,0.1,0.9c0.1,0.3,0.2,0.6,0.4,0.8
		c0.2,0.2,0.4,0.4,0.6,0.6s0.6,0.2,0.9,0.2c0.3,0,0.6,0,0.8-0.1c0.2-0.1,0.4-0.2,0.6-0.4s0.3-0.4,0.4-0.6c0.1-0.2,0.1-0.5,0.1-0.8
		H47V34h2.9V37.5z"/>
	<path fill="#A3A3A3" d="M51.1,32.7h1v0.9h0c0-0.1,0.1-0.3,0.2-0.4c0.1-0.1,0.2-0.2,0.3-0.3c0.1-0.1,0.3-0.2,0.4-0.2
		c0.2-0.1,0.3-0.1,0.5-0.1c0.1,0,0.2,0,0.3,0l0.1,0v1l-0.2,0l-0.2,0c-0.2,0-0.4,0-0.5,0.1c-0.2,0.1-0.3,0.2-0.4,0.3
		c-0.1,0.1-0.2,0.3-0.3,0.5c-0.1,0.2-0.1,0.4-0.1,0.7v2.3h-1.1V32.7z"/>
	<path fill="#A3A3A3" d="M56.5,37.7c-0.4,0-0.7-0.1-1-0.2c-0.3-0.1-0.6-0.3-0.8-0.5s-0.4-0.5-0.5-0.8c-0.1-0.3-0.2-0.7-0.2-1
		c0-0.4,0.1-0.7,0.2-1c0.1-0.3,0.3-0.6,0.5-0.8s0.5-0.4,0.8-0.5s0.7-0.2,1-0.2c0.4,0,0.7,0.1,1,0.2s0.6,0.3,0.8,0.5s0.4,0.5,0.5,0.8
		s0.2,0.7,0.2,1c0,0.4-0.1,0.7-0.2,1c-0.1,0.3-0.3,0.6-0.5,0.8s-0.5,0.4-0.8,0.5C57.2,37.6,56.9,37.7,56.5,37.7z M56.5,36.8
		c0.2,0,0.4-0.1,0.6-0.2c0.2-0.1,0.3-0.2,0.4-0.4c0.1-0.2,0.2-0.3,0.2-0.6c0.1-0.2,0.1-0.4,0.1-0.6c0-0.2,0-0.4-0.1-0.6
		c-0.1-0.2-0.1-0.4-0.2-0.6c-0.1-0.2-0.3-0.3-0.4-0.4c-0.2-0.1-0.4-0.2-0.6-0.2s-0.4,0.1-0.6,0.2s-0.3,0.2-0.4,0.4
		c-0.1,0.2-0.2,0.3-0.2,0.6c-0.1,0.2-0.1,0.4-0.1,0.6c0,0.2,0,0.4,0.1,0.6c0.1,0.2,0.1,0.4,0.2,0.6c0.1,0.2,0.3,0.3,0.4,0.4
		C56,36.8,56.3,36.8,56.5,36.8z"/>
	<path fill="#A3A3A3" d="M64.2,37.5h-1.1v-0.7h0c-0.1,0.2-0.3,0.4-0.6,0.6c-0.3,0.1-0.5,0.2-0.8,0.2c-0.6,0-1.1-0.2-1.4-0.5
		c-0.3-0.3-0.4-0.8-0.4-1.4v-3.1H61v3c0,0.4,0.1,0.7,0.2,0.9c0.2,0.2,0.4,0.3,0.7,0.3c0.2,0,0.4,0,0.6-0.1c0.2-0.1,0.3-0.2,0.4-0.3
		S63,36.2,63,36s0.1-0.3,0.1-0.5v-2.8h1.1V37.5z"/>
	<path fill="#A3A3A3" d="M65.4,32.7h1v0.7h0c0.2-0.3,0.4-0.5,0.6-0.6c0.3-0.1,0.6-0.2,0.9-0.2c0.4,0,0.7,0.1,1,0.2
		c0.3,0.1,0.5,0.3,0.7,0.6c0.2,0.2,0.3,0.5,0.4,0.8c0.1,0.3,0.1,0.7,0.1,1c0,0.3,0,0.6-0.1,1c-0.1,0.3-0.2,0.6-0.4,0.8
		s-0.4,0.4-0.7,0.6c-0.3,0.1-0.6,0.2-0.9,0.2c-0.2,0-0.3,0-0.5,0c-0.2,0-0.3-0.1-0.5-0.1c-0.1-0.1-0.3-0.1-0.4-0.2
		c-0.1-0.1-0.2-0.2-0.3-0.3h0v2.4h-1.1V32.7z M69.1,35.1c0-0.2,0-0.4-0.1-0.6c-0.1-0.2-0.1-0.4-0.3-0.6c-0.1-0.2-0.3-0.3-0.4-0.4
		c-0.2-0.1-0.4-0.1-0.6-0.1c-0.5,0-0.8,0.2-1,0.5s-0.3,0.7-0.3,1.3c0,0.2,0,0.5,0.1,0.7s0.1,0.4,0.3,0.5c0.1,0.2,0.3,0.3,0.4,0.4
		s0.4,0.1,0.6,0.1c0.2,0,0.5-0.1,0.6-0.2c0.2-0.1,0.3-0.2,0.4-0.4c0.1-0.2,0.2-0.3,0.2-0.5C69.1,35.5,69.1,35.3,69.1,35.1z"/>
</g>
</svg>
