<?xml version="1.0" encoding="utf-8"?>
<!-- Generator: Adobe Illustrator 18.1.1, SVG Export Plug-In . SVG Version: 6.00 Build 0)  -->
<!DOCTYPE svg PUBLIC "-//W3C//DTD SVG 1.1//EN" "http://www.w3.org/Graphics/SVG/1.1/DTD/svg11.dtd">
<svg version="1.1" id="Layer_1" xmlns="http://www.w3.org/2000/svg" xmlns:xlink="http://www.w3.org/1999/xlink" x="0px" y="0px"
	 viewBox="0 0 34 22.7" enable-background="new 0 0 34 22.7" xml:space="preserve">
<g>
	<path fill="#066CFF" d="M18.6,9.7l-0.5-1.5h-2.3l-0.5,1.5H14l2.2-6.3h1.6L20,9.7H18.6z M17.8,7.1c-0.4-1.4-0.7-2.1-0.7-2.3
		C17.1,4.6,17,4.5,17,4.4c-0.1,0.4-0.4,1.3-0.8,2.7H17.8z"/>
	<path fill="#066CFF" d="M23.5,19.3c-0.6-3.2-1.9-7-4.5-7h-4.2c-2.5,0-3.8,3.6-4.4,6.6l-1-0.2c1-4.9,2.8-7.4,5.4-7.4h4.2
		c2.6,0,4.5,2.6,5.4,7.8L23.5,19.3z"/>
</g>
</svg>
