<?xml version="1.0" encoding="utf-8"?>
<!-- Generator: Adobe Illustrator 18.1.1, SVG Export Plug-In . SVG Version: 6.00 Build 0)  -->
<!DOCTYPE svg PUBLIC "-//W3C//DTD SVG 1.1//EN" "http://www.w3.org/Graphics/SVG/1.1/DTD/svg11.dtd">
<svg version="1.1" id="Layer_1" xmlns="http://www.w3.org/2000/svg" xmlns:xlink="http://www.w3.org/1999/xlink" x="0px" y="0px"
	 viewBox="0 0 34 34" enable-background="new 0 0 34 34" xml:space="preserve">
<path fill="#066CFF" d="M28.3,12.2c0-0.1,0-0.1-0.1-0.2c0,0,0,0,0,0l-9-9c0,0,0,0,0,0C19.1,3,19.1,3,19,3c0,0,0,0,0,0H6
	C5.9,3,5.8,3.1,5.8,3.2v27.5C5.8,30.9,5.9,31,6,31h22c0.1,0,0.2-0.1,0.2-0.2L28.3,12.2C28.3,12.2,28.3,12.2,28.3,12.2z M27.4,12
	h-8.1V3.8L27.4,12z M27.8,30.5H6.3v-27h12.5v8.8c0,0.1,0.1,0.2,0.2,0.2h8.8V30.5z"/>
</svg>
