<?xml version="1.0" encoding="utf-8"?>
<!-- Generator: Adobe Illustrator 18.1.1, SVG Export Plug-In . SVG Version: 6.00 Build 0)  -->
<!DOCTYPE svg PUBLIC "-//W3C//DTD SVG 1.1//EN" "http://www.w3.org/Graphics/SVG/1.1/DTD/svg11.dtd">
<svg version="1.1" id="Layer_1" xmlns="http://www.w3.org/2000/svg" xmlns:xlink="http://www.w3.org/1999/xlink" x="0px" y="0px"
	 viewBox="0 0 677.3 234" enable-background="new 0 0 677.3 234" xml:space="preserve">
<g>
	<path fill="#707070" d="M390.4,18.8h1v1.1h-4v-1.1h1.7l-1-2.6h-4.8l-0.9,2.6h1.7v1.1h-4v-1.1h1l4.5-12L390.4,18.8z M385.7,9.6
		l-2,5.5h4L385.7,9.6z"/>
	<path fill="#707070" d="M411.4,18.8h1v1.1h-4v-1.1h1.7l-1-2.6h-4.8l-0.9,2.6h1.7v1.1h-4v-1.1h1l4.5-12L411.4,18.8z M406.7,9.6
		l-2,5.5h4L406.7,9.6z"/>
	<path fill="#707070" d="M453.4,18.8h1v1.1h-4v-1.1h1.7l-1-2.6h-4.8l-0.9,2.6h1.7v1.1h-4v-1.1h1l4.5-12L453.4,18.8z M448.7,9.6
		l-2,5.5h4L448.7,9.6z"/>
	<path fill="#707070" d="M474.4,18.8h1v1.1h-4v-1.1h1.7l-1-2.6h-4.8l-0.9,2.6h1.7v1.1h-4v-1.1h1l4.5-12L474.4,18.8z M469.7,9.6
		l-2,5.5h4L469.7,9.6z"/>
	<path fill="#707070" d="M368.4,38.2l1.1,0.4c-0.3,0.7-0.4,1.4-0.4,2.1l0.1,1.5l-1.2,0.2c-0.1-1.8-0.5-3.1-2.6-3.1
		c-2.8,0-3.7,2.8-3.7,5.1c0,2.3,1,5.1,3.7,5.1c2,0,2.8-1.4,2.8-3.2h1.2v2.6c-1.1,1.1-2.5,1.8-4.1,1.8c-2.2,0-4.9-1.7-4.9-6.4
		c0-4.6,2.8-6.1,5-6.1c0.9,0,1.9,0.3,2.7,0.7L368.4,38.2z"/>
	<path fill="#707070" d="M389.4,38.2l1.1,0.4c-0.3,0.7-0.4,1.4-0.4,2.1l0.1,1.5l-1.2,0.2c-0.1-1.8-0.5-3.1-2.6-3.1
		c-2.8,0-3.7,2.8-3.7,5.1c0,2.3,1,5.1,3.7,5.1c2,0,2.8-1.4,2.8-3.2h1.2v2.6c-1.1,1.1-2.5,1.8-4.1,1.8c-2.2,0-4.9-1.7-4.9-6.4
		c0-4.6,2.8-6.1,5-6.1c0.9,0,1.9,0.3,2.7,0.7L389.4,38.2z"/>
	<path fill="#707070" d="M452.4,38.2l1.1,0.4c-0.3,0.7-0.4,1.4-0.4,2.1l0.1,1.5l-1.2,0.2c-0.1-1.8-0.5-3.1-2.6-3.1
		c-2.8,0-3.7,2.8-3.7,5.1c0,2.3,1,5.1,3.7,5.1c2,0,2.8-1.4,2.8-3.2h1.2v2.6c-1.1,1.1-2.5,1.8-4.1,1.8c-2.2,0-4.9-1.7-4.9-6.4
		c0-4.6,2.8-6.1,5-6.1c0.9,0,1.9,0.3,2.7,0.7L452.4,38.2z"/>
	<path fill="#707070" d="M473.4,38.2l1.1,0.4c-0.3,0.7-0.4,1.4-0.4,2.1l0.1,1.5l-1.2,0.2c-0.1-1.8-0.5-3.1-2.6-3.1
		c-2.8,0-3.7,2.8-3.7,5.1c0,2.3,1,5.1,3.7,5.1c2,0,2.8-1.4,2.8-3.2h1.2v2.6c-1.1,1.1-2.5,1.8-4.1,1.8c-2.2,0-4.9-1.7-4.9-6.4
		c0-4.6,2.8-6.1,5-6.1c0.9,0,1.9,0.3,2.7,0.7L473.4,38.2z"/>
	<path fill="#707070" d="M389.2,68.8l1,0.3c-0.2,0.7-0.3,1.3-0.3,2c0,0.6,0.1,1.1,0.2,1.7l-1.3,0.2c-0.1-0.8-0.2-1.5-0.5-2.1
		c-0.4-0.6-1-1-2.2-1c-1.4,0-3.8,0.9-3.8,4.9c0,3.7,1.9,5.3,3.5,5.3c0.9,0,2.2-0.3,2.8-1.1c0.3-0.4,0.3-1.2,0.3-1.7v-0.4h-2.7v-1.1
		h5.1v1.1h-1.2v2.5c-1.1,1-2.6,1.8-4.1,1.8c-3.4,0-5-3.2-5-6.2c0-4.6,2.7-6.2,5.1-6.2c1.1,0,1.8,0.3,2.8,0.8L389.2,68.8z"/>
	<path fill="#707070" d="M452.2,68.8l1,0.3c-0.2,0.7-0.3,1.3-0.3,2c0,0.6,0.1,1.1,0.2,1.7l-1.3,0.2c-0.1-0.8-0.2-1.5-0.5-2.1
		c-0.4-0.6-1-1-2.2-1c-1.4,0-3.8,0.9-3.8,4.9c0,3.7,1.9,5.3,3.5,5.3c0.9,0,2.2-0.3,2.8-1.1c0.3-0.4,0.3-1.2,0.3-1.7v-0.4h-2.7v-1.1
		h5.1v1.1h-1.2v2.5c-1.1,1-2.6,1.8-4.1,1.8c-3.4,0-5-3.2-5-6.2c0-4.6,2.7-6.2,5.1-6.2c1.1,0,1.8,0.3,2.8,0.8L452.2,68.8z"/>
	<path fill="#707070" d="M382.6,111.6v-1.1h2.6v-9.8h-1.6c-1.4,0-1.5,0.2-1.5,1.6v1.5h-1.2v-4.2h10v4.2h-1.2v-1.5
		c0-1.4-0.1-1.6-1.5-1.6h-1.6v9.8h2.6v1.1H382.6z"/>
	<path fill="#707070" d="M403.6,111.6v-1.1h2.6v-9.8h-1.6c-1.4,0-1.5,0.2-1.5,1.6v1.5h-1.2v-4.2h10v4.2h-1.2v-1.5
		c0-1.4-0.1-1.6-1.5-1.6h-1.6v9.8h2.6v1.1H403.6z"/>
	<path fill="#707070" d="M424.6,111.6v-1.1h2.6v-9.8h-1.6c-1.4,0-1.5,0.2-1.5,1.6v1.5h-1.2v-4.2h10v4.2h-1.2v-1.5
		c0-1.4-0.1-1.6-1.5-1.6h-1.6v9.8h2.6v1.1H424.6z"/>
	<path fill="#707070" d="M466.6,111.6v-1.1h2.6v-9.8h-1.6c-1.4,0-1.5,0.2-1.5,1.6v1.5h-1.2v-4.2h10v4.2h-1.2v-1.5
		c0-1.4-0.1-1.6-1.5-1.6h-1.6v9.8h2.6v1.1H466.6z"/>
</g>
<g>
	<path fill="#707070" d="M362.9,149.6h1.5v-4.3c0-0.2,0-0.4,0-0.4h0c0,0-0.1,0.2-0.3,0.4l-0.6,0.6l-0.6-0.6l1.6-1.6h0.8v5.9h1.5v0.8
		h-3.9V149.6z"/>
	<path fill="#707070" d="M382.9,149.9c0-2.4,3.3-2.7,3.3-4.3c0-0.7-0.5-1.1-1.2-1.1c-0.9,0-1.4,0.9-1.4,0.9l-0.7-0.5
		c0,0,0.6-1.3,2.1-1.3c1.2,0,2.1,0.8,2.1,1.9c0,2.2-3.2,2.5-3.2,4.1h3.3v0.8H383C383,150.3,382.9,150.1,382.9,149.9z"/>
	<path fill="#707070" d="M404.2,148.9c0,0,0.7,0.7,1.6,0.7c0.8,0,1.4-0.5,1.4-1.2c0-0.8-0.7-1.2-1.6-1.2h-0.5l-0.2-0.5l1.5-1.7
		c0.2-0.3,0.4-0.4,0.4-0.4v0c0,0-0.2,0-0.6,0H404v-0.8h4v0.6l-1.8,2.1c0.9,0.1,2,0.7,2,2c0,1.2-0.9,2.2-2.3,2.2
		c-1.4,0-2.2-0.9-2.2-0.9L404.2,148.9z"/>
	<path fill="#707070" d="M424.4,148.1l3.1-4.3h1.1v4.1h0.9v0.8h-0.9v1.8h-0.9v-1.8h-3.3V148.1z M427.6,147.8v-2.4c0-0.3,0-0.7,0-0.7
		h0c0,0-0.2,0.3-0.3,0.6l-1.9,2.5v0H427.6z"/>
	<path fill="#707070" d="M446.3,148.9c0,0,0.5,0.7,1.5,0.7c0.8,0,1.5-0.5,1.5-1.4c0-0.8-0.7-1.4-1.5-1.4c-0.7,0-1.1,0.3-1.1,0.3
		l-0.5-0.2l0.3-3.3h3.4v0.8h-2.6L447,146c0,0.2,0,0.4,0,0.4h0c0,0,0.4-0.2,0.9-0.2c1.4,0,2.3,1,2.3,2.2c0,1.3-1,2.3-2.4,2.3
		c-1.4,0-2.1-0.9-2.1-0.9L446.3,148.9z"/>
	<path fill="#707070" d="M466.6,147.4c0-1.7,0.9-3.8,3-3.8c0.8,0,1.3,0.3,1.3,0.3l-0.3,0.8c0,0-0.4-0.2-1-0.2c-1.2,0-1.9,1.1-2,2.3
		h0c0.3-0.4,0.9-0.6,1.5-0.6c1.3,0,2.1,1,2.1,2.2c0,1.3-0.9,2.2-2.2,2.2C467.7,150.6,466.6,149.3,466.6,147.4z M470.4,148.3
		c0-0.8-0.5-1.4-1.4-1.4c-0.8,0-1.4,0.5-1.4,0.9c0,0.9,0.7,1.9,1.5,1.9C469.9,149.7,470.4,149.1,470.4,148.3z"/>
</g>
<g>
	<path fill="#707070" d="M22.2,7.7L23.4,8C23.1,8.7,23,9.4,23,10.1l0.1,1.5l-1.2,0.2c-0.1-1.8-0.5-3.1-2.6-3.1
		c-2.8,0-3.7,2.8-3.7,5.1c0,2.3,1,5.1,3.7,5.1c2,0,2.8-1.4,2.8-3.2h1.2v2.6c-1.1,1.1-2.5,1.8-4.1,1.8c-2.2,0-4.9-1.7-4.9-6.4
		c0-4.6,2.8-6.1,5-6.1c0.9,0,1.9,0.3,2.7,0.7L22.2,7.7z"/>
	<path fill="#707070" d="M44.3,18.8h1v1.1h-4v-1.1H43l-1-2.6h-4.8l-0.9,2.6h1.7v1.1h-4v-1.1h1l4.5-12L44.3,18.8z M39.6,9.6l-2,5.5h4
		L39.6,9.6z"/>
	<path fill="#707070" d="M65.3,18.8h1v1.1h-4v-1.1H64l-1-2.6h-4.8l-0.9,2.6h1.7v1.1h-4v-1.1h1l4.5-12L65.3,18.8z M60.6,9.6l-2,5.5h4
		L60.6,9.6z"/>
	<path fill="#707070" d="M78.5,19.9v-1.1h2.6V9h-1.6C78.1,9,78,9.2,78,10.6v1.5h-1.2V7.9h10v4.2h-1.2v-1.5c0-1.4-0.1-1.6-1.5-1.6
		h-1.6v9.8h2.6v1.1H78.5z"/>
	<path fill="#707070" d="M106,7.7l1,0.3c-0.2,0.7-0.3,1.3-0.3,2c0,0.6,0.1,1.1,0.2,1.7l-1.3,0.2c-0.1-0.8-0.2-1.5-0.5-2.1
		c-0.4-0.6-1-1-2.2-1c-1.4,0-3.8,0.9-3.8,4.9c0,3.7,1.9,5.3,3.5,5.3c0.9,0,2.2-0.3,2.8-1.1c0.3-0.4,0.3-1.2,0.3-1.7v-0.4h-2.7v-1.1
		h5.1v1.1H107v2.5c-1.1,1-2.6,1.8-4.1,1.8c-3.4,0-5-3.2-5-6.2c0-4.6,2.7-6.2,5.1-6.2c1.1,0,1.8,0.3,2.8,0.8L106,7.7z"/>
	<path fill="#707070" d="M120.5,19.9v-1.1h2.6V9h-1.6c-1.4,0-1.5,0.2-1.5,1.6v1.5h-1.2V7.9h10v4.2h-1.2v-1.5c0-1.4-0.1-1.6-1.5-1.6
		h-1.6v9.8h2.6v1.1H120.5z"/>
	<path fill="#707070" d="M22.2,38.2l1.1,0.4C23.1,39.3,23,40,23,40.7l0.1,1.5l-1.2,0.2c-0.1-1.8-0.5-3.1-2.6-3.1
		c-2.8,0-3.7,2.8-3.7,5.1c0,2.3,1,5.1,3.7,5.1c2,0,2.8-1.4,2.8-3.2h1.2v2.6c-1.1,1.1-2.5,1.8-4.1,1.8c-2.2,0-4.9-1.7-4.9-6.4
		c0-4.6,2.8-6.1,5-6.1c0.9,0,1.9,0.3,2.7,0.7L22.2,38.2z"/>
	<path fill="#707070" d="M43.2,38.2l1.1,0.4C44.1,39.3,44,40,44,40.7l0.1,1.5l-1.2,0.2c-0.1-1.8-0.5-3.1-2.6-3.1
		c-2.8,0-3.7,2.8-3.7,5.1c0,2.3,1,5.1,3.7,5.1c2,0,2.8-1.4,2.8-3.2h1.2v2.6c-1.1,1.1-2.5,1.8-4.1,1.8c-2.2,0-4.9-1.7-4.9-6.4
		c0-4.6,2.8-6.1,5-6.1c0.9,0,1.9,0.3,2.7,0.7L43.2,38.2z"/>
	<path fill="#707070" d="M65.3,49.4h1v1.1h-4v-1.1H64l-1-2.6h-4.8l-0.9,2.6h1.7v1.1h-4v-1.1h1l4.5-12L65.3,49.4z M60.6,40.2l-2,5.5
		h4L60.6,40.2z"/>
	<path fill="#707070" d="M78.5,50.5v-1.1h2.6v-9.8h-1.6c-1.4,0-1.5,0.2-1.5,1.6v1.5h-1.2v-4.2h10v4.2h-1.2v-1.5
		c0-1.4-0.1-1.6-1.5-1.6h-1.6v9.8h2.6v1.1H78.5z"/>
	<path fill="#707070" d="M107.3,49.4h1v1.1h-4v-1.1h1.7l-1-2.6h-4.8l-0.9,2.6h1.7v1.1h-4v-1.1h1l4.5-12L107.3,49.4z M102.6,40.2
		l-2,5.5h4L102.6,40.2z"/>
	<path fill="#707070" d="M128.3,49.4h1v1.1h-4v-1.1h1.7l-1-2.6h-4.8l-0.9,2.6h1.7v1.1h-4v-1.1h1l4.5-12L128.3,49.4z M123.6,40.2
		l-2,5.5h4L123.6,40.2z"/>
	<path fill="#707070" d="M22.2,68.8l1.1,0.4c-0.3,0.7-0.4,1.4-0.4,2.1l0.1,1.5L21.9,73c-0.1-1.8-0.5-3.1-2.6-3.1
		c-2.8,0-3.7,2.8-3.7,5.1c0,2.3,1,5.1,3.7,5.1c2,0,2.8-1.4,2.8-3.2h1.2v2.6c-1.1,1.1-2.5,1.8-4.1,1.8c-2.2,0-4.9-1.7-4.9-6.4
		c0-4.6,2.8-6.1,5-6.1c0.9,0,1.9,0.3,2.7,0.7L22.2,68.8z"/>
	<path fill="#707070" d="M43,68.8l1,0.3c-0.2,0.7-0.3,1.3-0.3,2c0,0.6,0.1,1.1,0.2,1.7L42.7,73c-0.1-0.8-0.2-1.5-0.5-2.1
		c-0.4-0.6-1-1-2.2-1c-1.4,0-3.8,0.9-3.8,4.9c0,3.7,1.9,5.3,3.5,5.3c0.9,0,2.2-0.3,2.8-1.1c0.3-0.4,0.3-1.2,0.3-1.7v-0.4h-2.7v-1.1
		h5.1v1.1H44v2.5c-1.1,1-2.6,1.8-4.1,1.8c-3.4,0-5-3.2-5-6.2c0-4.6,2.7-6.2,5.1-6.2c1.1,0,1.8,0.3,2.8,0.8L43,68.8z"/>
	<path fill="#707070" d="M65.3,79.9h1V81h-4v-1.1H64l-1-2.6h-4.8l-0.9,2.6h1.7V81h-4v-1.1h1l4.5-12L65.3,79.9z M60.6,70.7l-2,5.5h4
		L60.6,70.7z"/>
	<path fill="#707070" d="M78.5,81v-1.1h2.6v-9.8h-1.6c-1.4,0-1.5,0.2-1.5,1.6v1.5h-1.2V69h10v4.2h-1.2v-1.5c0-1.4-0.1-1.6-1.5-1.6
		h-1.6v9.8h2.6V81H78.5z"/>
	<path fill="#707070" d="M106.2,68.8l1.1,0.4c-0.3,0.7-0.4,1.4-0.4,2.1l0.1,1.5l-1.2,0.2c-0.1-1.8-0.5-3.1-2.6-3.1
		c-2.8,0-3.7,2.8-3.7,5.1c0,2.3,1,5.1,3.7,5.1c2,0,2.8-1.4,2.8-3.2h1.2v2.6c-1.1,1.1-2.5,1.8-4.1,1.8c-2.2,0-4.9-1.7-4.9-6.4
		c0-4.6,2.8-6.1,5-6.1c0.9,0,1.9,0.3,2.7,0.7L106.2,68.8z"/>
	<path fill="#707070" d="M128.3,79.9h1V81h-4v-1.1h1.7l-1-2.6h-4.8l-0.9,2.6h1.7V81h-4v-1.1h1l4.5-12L128.3,79.9z M123.6,70.7
		l-2,5.5h4L123.6,70.7z"/>
	<path fill="#707070" d="M22.2,99.3l1.1,0.4c-0.3,0.7-0.4,1.4-0.4,2.1l0.1,1.5l-1.2,0.2c-0.1-1.8-0.5-3.1-2.6-3.1
		c-2.8,0-3.7,2.8-3.7,5.1c0,2.3,1,5.1,3.7,5.1c2,0,2.8-1.4,2.8-3.2h1.2v2.6c-1.1,1.1-2.5,1.8-4.1,1.8c-2.2,0-4.9-1.7-4.9-6.4
		c0-4.6,2.8-6.1,5-6.1c0.9,0,1.9,0.3,2.7,0.7L22.2,99.3z"/>
	<path fill="#707070" d="M43,99.3l1,0.3c-0.2,0.7-0.3,1.3-0.3,2c0,0.6,0.1,1.1,0.2,1.7l-1.3,0.2c-0.1-0.8-0.2-1.5-0.5-2.1
		c-0.4-0.6-1-1-2.2-1c-1.4,0-3.8,0.9-3.8,4.9c0,3.7,1.9,5.3,3.5,5.3c0.9,0,2.2-0.3,2.8-1.1c0.3-0.4,0.3-1.2,0.3-1.7v-0.4h-2.7v-1.1
		h5.1v1.1H44v2.5c-1.1,1-2.6,1.8-4.1,1.8c-3.4,0-5-3.2-5-6.2c0-4.6,2.7-6.2,5.1-6.2c1.1,0,1.8,0.3,2.8,0.8L43,99.3z"/>
	<path fill="#707070" d="M57.5,111.6v-1.1h2.6v-9.8h-1.6c-1.4,0-1.5,0.2-1.5,1.6v1.5h-1.2v-4.2h10v4.2h-1.2v-1.5
		c0-1.4-0.1-1.6-1.5-1.6h-1.6v9.8h2.6v1.1H57.5z"/>
	<path fill="#707070" d="M78.5,111.6v-1.1h2.6v-9.8h-1.6c-1.4,0-1.5,0.2-1.5,1.6v1.5h-1.2v-4.2h10v4.2h-1.2v-1.5
		c0-1.4-0.1-1.6-1.5-1.6h-1.6v9.8h2.6v1.1H78.5z"/>
	<path fill="#707070" d="M107.3,110.4h1v1.1h-4v-1.1h1.7l-1-2.6h-4.8l-0.9,2.6h1.7v1.1h-4v-1.1h1l4.5-12L107.3,110.4z M102.6,101.2
		l-2,5.5h4L102.6,101.2z"/>
	<path fill="#707070" d="M127.2,99.3l1.1,0.4c-0.3,0.7-0.4,1.4-0.4,2.1l0.1,1.5l-1.2,0.2c-0.1-1.8-0.5-3.1-2.6-3.1
		c-2.8,0-3.7,2.8-3.7,5.1c0,2.3,1,5.1,3.7,5.1c2,0,2.8-1.4,2.8-3.2h1.2v2.6c-1.1,1.1-2.5,1.8-4.1,1.8c-2.2,0-4.9-1.7-4.9-6.4
		c0-4.6,2.8-6.1,5-6.1c0.9,0,1.9,0.3,2.7,0.7L127.2,99.3z"/>
	<path fill="#707070" d="M22.2,129.9l1.1,0.4c-0.3,0.7-0.4,1.4-0.4,2.1l0.1,1.5l-1.2,0.2c-0.1-1.8-0.5-3.1-2.6-3.1
		c-2.8,0-3.7,2.8-3.7,5.1c0,2.3,1,5.1,3.7,5.1c2,0,2.8-1.4,2.8-3.2h1.2v2.6c-1.1,1.1-2.5,1.8-4.1,1.8c-2.2,0-4.9-1.7-4.9-6.4
		c0-4.6,2.8-6.1,5-6.1c0.9,0,1.9,0.3,2.7,0.7L22.2,129.9z"/>
	<path fill="#707070" d="M36.5,142.1V141h2.6v-9.8h-1.6c-1.4,0-1.5,0.2-1.5,1.6v1.5h-1.2v-4.2h10v4.2h-1.2v-1.5
		c0-1.4-0.1-1.6-1.5-1.6h-1.6v9.8h2.6v1.1H36.5z"/>
	<path fill="#707070" d="M57.5,142.1V141h2.6v-9.8h-1.6c-1.4,0-1.5,0.2-1.5,1.6v1.5h-1.2v-4.2h10v4.2h-1.2v-1.5
		c0-1.4-0.1-1.6-1.5-1.6h-1.6v9.8h2.6v1.1H57.5z"/>
	<path fill="#707070" d="M78.5,142.1V141h2.6v-9.8h-1.6c-1.4,0-1.5,0.2-1.5,1.6v1.5h-1.2v-4.2h10v4.2h-1.2v-1.5
		c0-1.4-0.1-1.6-1.5-1.6h-1.6v9.8h2.6v1.1H78.5z"/>
	<path fill="#707070" d="M106.2,129.9l1.1,0.4c-0.3,0.7-0.4,1.4-0.4,2.1l0.1,1.5l-1.2,0.2c-0.1-1.8-0.5-3.1-2.6-3.1
		c-2.8,0-3.7,2.8-3.7,5.1c0,2.3,1,5.1,3.7,5.1c2,0,2.8-1.4,2.8-3.2h1.2v2.6c-1.1,1.1-2.5,1.8-4.1,1.8c-2.2,0-4.9-1.7-4.9-6.4
		c0-4.6,2.8-6.1,5-6.1c0.9,0,1.9,0.3,2.7,0.7L106.2,129.9z"/>
	<path fill="#707070" d="M128.3,141h1v1.1h-4V141h1.7l-1-2.6h-4.8l-0.9,2.6h1.7v1.1h-4V141h1l4.5-12L128.3,141z M123.6,131.8l-2,5.5
		h4L123.6,131.8z"/>
	<path fill="#707070" d="M22.2,160.4l1.1,0.4c-0.3,0.7-0.4,1.4-0.4,2.1l0.1,1.5l-1.2,0.2c-0.1-1.8-0.5-3.1-2.6-3.1
		c-2.8,0-3.7,2.8-3.7,5.1c0,2.3,1,5.1,3.7,5.1c2,0,2.8-1.4,2.8-3.2h1.2v2.6c-1.1,1.1-2.5,1.8-4.1,1.8c-2.2,0-4.9-1.7-4.9-6.4
		c0-4.6,2.8-6.1,5-6.1c0.9,0,1.9,0.3,2.7,0.7L22.2,160.4z"/>
	<path fill="#707070" d="M36.5,172.7v-1.1h2.6v-9.8h-1.6c-1.4,0-1.5,0.2-1.5,1.6v1.5h-1.2v-4.2h10v4.2h-1.2v-1.5
		c0-1.4-0.1-1.6-1.5-1.6h-1.6v9.8h2.6v1.1H36.5z"/>
	<path fill="#707070" d="M57.5,172.7v-1.1h2.6v-9.8h-1.6c-1.4,0-1.5,0.2-1.5,1.6v1.5h-1.2v-4.2h10v4.2h-1.2v-1.5
		c0-1.4-0.1-1.6-1.5-1.6h-1.6v9.8h2.6v1.1H57.5z"/>
	<path fill="#707070" d="M78.5,172.7v-1.1h2.6v-9.8h-1.6c-1.4,0-1.5,0.2-1.5,1.6v1.5h-1.2v-4.2h10v4.2h-1.2v-1.5
		c0-1.4-0.1-1.6-1.5-1.6h-1.6v9.8h2.6v1.1H78.5z"/>
	<path fill="#707070" d="M106,160.4l1,0.3c-0.2,0.7-0.3,1.3-0.3,2c0,0.6,0.1,1.1,0.2,1.7l-1.3,0.2c-0.1-0.8-0.2-1.5-0.5-2.1
		c-0.4-0.6-1-1-2.2-1c-1.4,0-3.8,0.9-3.8,4.9c0,3.7,1.9,5.3,3.5,5.3c0.9,0,2.2-0.3,2.8-1.1c0.3-0.4,0.3-1.2,0.3-1.7v-0.4h-2.7v-1.1
		h5.1v1.1H107v2.5c-1.1,1-2.6,1.8-4.1,1.8c-3.4,0-5-3.2-5-6.2c0-4.6,2.7-6.2,5.1-6.2c1.1,0,1.8,0.3,2.8,0.8L106,160.4z"/>
	<path fill="#707070" d="M120.5,172.7v-1.1h2.6v-9.8h-1.6c-1.4,0-1.5,0.2-1.5,1.6v1.5h-1.2v-4.2h10v4.2h-1.2v-1.5
		c0-1.4-0.1-1.6-1.5-1.6h-1.6v9.8h2.6v1.1H120.5z"/>
</g>
<g>
	<path fill="#707070" d="M340.8,21.9h-2.5l-0.7,1.9h-1l2.4-6.7h1l2.4,6.7h-1L340.8,21.9z M339.6,18.1c0,0-0.2,0.6-0.3,1l-0.8,2.1h2
		l-0.7-2.1C339.7,18.7,339.6,18.1,339.6,18.1L339.6,18.1z"/>
	<path fill="#707070" d="M340.5,47.6c1.6,0,2.4,0.9,2.4,0.9l-0.5,0.7c0,0-0.8-0.7-1.9-0.7c-1.5,0-2.5,1.1-2.5,2.6
		c0,1.4,1,2.7,2.5,2.7c1.3,0,2.1-0.9,2.1-0.9l0.5,0.7c0,0-0.9,1.1-2.6,1.1c-2,0-3.4-1.5-3.4-3.5C337,49.1,338.5,47.6,340.5,47.6z"/>
	<path fill="#707070" d="M340.5,78.1c1.6,0,2.4,0.8,2.4,0.8l-0.5,0.7c0,0-0.8-0.7-1.9-0.7c-1.6,0-2.5,1.2-2.5,2.6
		c0,1.6,1.1,2.6,2.5,2.6c1.2,0,1.9-0.8,1.9-0.8v-1h-1.1v-0.8h1.9v3.4h-0.8v-0.4c0-0.1,0-0.3,0-0.3h0c0,0-0.7,0.8-2.1,0.8
		c-1.8,0-3.3-1.4-3.3-3.5C337.1,79.6,338.5,78.1,340.5,78.1z"/>
	<path fill="#707070" d="M338.9,109.6h-2.3v-0.8h5.5v0.8h-2.3v5.9h-0.9V109.6z"/>
</g>
<g>
	<path fill="#707070" d="M515.7,28.9h-2.5l-0.7,1.9h-1l2.4-6.7h1l2.4,6.7h-1L515.7,28.9z M514.4,25.1c0,0-0.2,0.6-0.3,1l-0.8,2.1h2
		l-0.7-2.1C514.6,25.7,514.4,25.1,514.4,25.1L514.4,25.1z"/>
	<path fill="#707070" d="M515.3,54.6c1.6,0,2.4,0.9,2.4,0.9l-0.5,0.7c0,0-0.8-0.7-1.9-0.7c-1.5,0-2.5,1.1-2.5,2.6
		c0,1.4,1,2.7,2.5,2.7c1.3,0,2.1-0.9,2.1-0.9l0.5,0.7c0,0-0.9,1.1-2.6,1.1c-2,0-3.4-1.5-3.4-3.5C511.9,56.1,513.4,54.6,515.3,54.6z"
		/>
	<path fill="#707070" d="M515.3,85.1c1.6,0,2.4,0.8,2.4,0.8l-0.5,0.7c0,0-0.8-0.7-1.9-0.7c-1.6,0-2.5,1.2-2.5,2.6
		c0,1.6,1.1,2.6,2.5,2.6c1.2,0,1.9-0.8,1.9-0.8v-1h-1.1v-0.8h1.9v3.4h-0.8v-0.4c0-0.1,0-0.3,0-0.3h0c0,0-0.7,0.8-2.1,0.8
		c-1.8,0-3.3-1.4-3.3-3.5C511.9,86.6,513.4,85.1,515.3,85.1z"/>
	<path fill="#707070" d="M513.8,116.6h-2.3v-0.8h5.5v0.8h-2.3v5.9h-0.9V116.6z"/>
</g>
<g>
	<path fill="#707070" d="M185.5,7.7l1.1,0.4c-0.3,0.7-0.4,1.4-0.4,2.1l0.1,1.5l-1.2,0.2c-0.1-1.8-0.5-3.1-2.6-3.1
		c-2.8,0-3.7,2.8-3.7,5.1c0,2.3,1,5.1,3.7,5.1c2,0,2.8-1.4,2.8-3.2h1.2v2.6c-1.1,1.1-2.5,1.8-4.1,1.8c-2.2,0-4.9-1.7-4.9-6.4
		c0-4.6,2.8-6.1,5-6.1c0.9,0,1.9,0.3,2.7,0.7L185.5,7.7z"/>
	<path fill="#707070" d="M207.6,18.8h1v1.1h-4v-1.1h1.7l-1-2.6h-4.8l-0.9,2.6h1.7v1.1h-4v-1.1h1l4.5-12L207.6,18.8z M202.9,9.6
		l-2,5.5h4L202.9,9.6z"/>
	<path fill="#707070" d="M228.6,18.8h1v1.1h-4v-1.1h1.7l-1-2.6h-4.8l-0.9,2.6h1.7v1.1h-4v-1.1h1l4.5-12L228.6,18.8z M223.9,9.6
		l-2,5.5h4L223.9,9.6z"/>
	<path fill="#707070" d="M241.8,19.9v-1.1h2.6V9h-1.6c-1.4,0-1.5,0.2-1.5,1.6v1.5H240V7.9h10v4.2h-1.2v-1.5c0-1.4-0.1-1.6-1.5-1.6
		h-1.6v9.8h2.6v1.1H241.8z"/>
	<path fill="#707070" d="M269.3,7.7l1,0.3c-0.2,0.7-0.3,1.3-0.3,2c0,0.6,0.1,1.1,0.2,1.7l-1.3,0.2c-0.1-0.8-0.2-1.5-0.5-2.1
		c-0.4-0.6-1-1-2.2-1c-1.4,0-3.8,0.9-3.8,4.9c0,3.7,1.9,5.3,3.5,5.3c0.9,0,2.2-0.3,2.8-1.1c0.3-0.4,0.3-1.2,0.3-1.7v-0.4h-2.7v-1.1
		h5.1v1.1h-1.2v2.5c-1.1,1-2.6,1.8-4.1,1.8c-3.4,0-5-3.2-5-6.2c0-4.6,2.7-6.2,5.1-6.2c1.1,0,1.8,0.3,2.8,0.8L269.3,7.7z"/>
	<path fill="#707070" d="M283.8,19.9v-1.1h2.6V9h-1.6c-1.4,0-1.5,0.2-1.5,1.6v1.5H282V7.9h10v4.2h-1.2v-1.5c0-1.4-0.1-1.6-1.5-1.6
		h-1.6v9.8h2.6v1.1H283.8z"/>
	<path fill="#707070" d="M185.5,38.2l1.1,0.4c-0.3,0.7-0.4,1.4-0.4,2.1l0.1,1.5l-1.2,0.2c-0.1-1.8-0.5-3.1-2.6-3.1
		c-2.8,0-3.7,2.8-3.7,5.1c0,2.3,1,5.1,3.7,5.1c2,0,2.8-1.4,2.8-3.2h1.2v2.6c-1.1,1.1-2.5,1.8-4.1,1.8c-2.2,0-4.9-1.7-4.9-6.4
		c0-4.6,2.8-6.1,5-6.1c0.9,0,1.9,0.3,2.7,0.7L185.5,38.2z"/>
	<path fill="#707070" d="M206.5,38.2l1.1,0.4c-0.3,0.7-0.4,1.4-0.4,2.1l0.1,1.5l-1.2,0.2c-0.1-1.8-0.5-3.1-2.6-3.1
		c-2.8,0-3.7,2.8-3.7,5.1c0,2.3,1,5.1,3.7,5.1c2,0,2.8-1.4,2.8-3.2h1.2v2.6c-1.1,1.1-2.5,1.8-4.1,1.8c-2.2,0-4.9-1.7-4.9-6.4
		c0-4.6,2.8-6.1,5-6.1c0.9,0,1.9,0.3,2.7,0.7L206.5,38.2z"/>
	<path fill="#707070" d="M228.6,49.4h1v1.1h-4v-1.1h1.7l-1-2.6h-4.8l-0.9,2.6h1.7v1.1h-4v-1.1h1l4.5-12L228.6,49.4z M223.9,40.2
		l-2,5.5h4L223.9,40.2z"/>
	<path fill="#707070" d="M241.8,50.5v-1.1h2.6v-9.8h-1.6c-1.4,0-1.5,0.2-1.5,1.6v1.5H240v-4.2h10v4.2h-1.2v-1.5
		c0-1.4-0.1-1.6-1.5-1.6h-1.6v9.8h2.6v1.1H241.8z"/>
	<path fill="#707070" d="M270.6,49.4h1v1.1h-4v-1.1h1.7l-1-2.6h-4.8l-0.9,2.6h1.7v1.1h-4v-1.1h1l4.5-12L270.6,49.4z M265.9,40.2
		l-2,5.5h4L265.9,40.2z"/>
	<path fill="#707070" d="M291.6,49.4h1v1.1h-4v-1.1h1.7l-1-2.6h-4.8l-0.9,2.6h1.7v1.1h-4v-1.1h1l4.5-12L291.6,49.4z M286.9,40.2
		l-2,5.5h4L286.9,40.2z"/>
	<path fill="#707070" d="M185.5,68.8l1.1,0.4c-0.3,0.7-0.4,1.4-0.4,2.1l0.1,1.5l-1.2,0.2c-0.1-1.8-0.5-3.1-2.6-3.1
		c-2.8,0-3.7,2.8-3.7,5.1c0,2.3,1,5.1,3.7,5.1c2,0,2.8-1.4,2.8-3.2h1.2v2.6c-1.1,1.1-2.5,1.8-4.1,1.8c-2.2,0-4.9-1.7-4.9-6.4
		c0-4.6,2.8-6.1,5-6.1c0.9,0,1.9,0.3,2.7,0.7L185.5,68.8z"/>
	<path fill="#707070" d="M206.3,68.8l1,0.3c-0.2,0.7-0.3,1.3-0.3,2c0,0.6,0.1,1.1,0.2,1.7L206,73c-0.1-0.8-0.2-1.5-0.5-2.1
		c-0.4-0.6-1-1-2.2-1c-1.4,0-3.8,0.9-3.8,4.9c0,3.7,1.9,5.3,3.5,5.3c0.9,0,2.2-0.3,2.8-1.1c0.3-0.4,0.3-1.2,0.3-1.7v-0.4h-2.7v-1.1
		h5.1v1.1h-1.2v2.5c-1.1,1-2.6,1.8-4.1,1.8c-3.4,0-5-3.2-5-6.2c0-4.6,2.7-6.2,5.1-6.2c1.1,0,1.8,0.3,2.8,0.8L206.3,68.8z"/>
	<path fill="#707070" d="M228.6,79.9h1V81h-4v-1.1h1.7l-1-2.6h-4.8l-0.9,2.6h1.7V81h-4v-1.1h1l4.5-12L228.6,79.9z M223.9,70.7
		l-2,5.5h4L223.9,70.7z"/>
	<path fill="#707070" d="M241.8,81v-1.1h2.6v-9.8h-1.6c-1.4,0-1.5,0.2-1.5,1.6v1.5H240V69h10v4.2h-1.2v-1.5c0-1.4-0.1-1.6-1.5-1.6
		h-1.6v9.8h2.6V81H241.8z"/>
	<path fill="#707070" d="M269.5,68.8l1.1,0.4c-0.3,0.7-0.4,1.4-0.4,2.1l0.1,1.5l-1.2,0.2c-0.1-1.8-0.5-3.1-2.6-3.1
		c-2.8,0-3.7,2.8-3.7,5.1c0,2.3,1,5.1,3.7,5.1c2,0,2.8-1.4,2.8-3.2h1.2v2.6c-1.1,1.1-2.5,1.8-4.1,1.8c-2.2,0-4.9-1.7-4.9-6.4
		c0-4.6,2.8-6.1,5-6.1c0.9,0,1.9,0.3,2.7,0.7L269.5,68.8z"/>
	<path fill="#707070" d="M291.6,79.9h1V81h-4v-1.1h1.7l-1-2.6h-4.8l-0.9,2.6h1.7V81h-4v-1.1h1l4.5-12L291.6,79.9z M286.9,70.7
		l-2,5.5h4L286.9,70.7z"/>
	<path fill="#707070" d="M185.5,99.3l1.1,0.4c-0.3,0.7-0.4,1.4-0.4,2.1l0.1,1.5l-1.2,0.2c-0.1-1.8-0.5-3.1-2.6-3.1
		c-2.8,0-3.7,2.8-3.7,5.1c0,2.3,1,5.1,3.7,5.1c2,0,2.8-1.4,2.8-3.2h1.2v2.6c-1.1,1.1-2.5,1.8-4.1,1.8c-2.2,0-4.9-1.7-4.9-6.4
		c0-4.6,2.8-6.1,5-6.1c0.9,0,1.9,0.3,2.7,0.7L185.5,99.3z"/>
	<path fill="#707070" d="M206.3,99.3l1,0.3c-0.2,0.7-0.3,1.3-0.3,2c0,0.6,0.1,1.1,0.2,1.7l-1.3,0.2c-0.1-0.8-0.2-1.5-0.5-2.1
		c-0.4-0.6-1-1-2.2-1c-1.4,0-3.8,0.9-3.8,4.9c0,3.7,1.9,5.3,3.5,5.3c0.9,0,2.2-0.3,2.8-1.1c0.3-0.4,0.3-1.2,0.3-1.7v-0.4h-2.7v-1.1
		h5.1v1.1h-1.2v2.5c-1.1,1-2.6,1.8-4.1,1.8c-3.4,0-5-3.2-5-6.2c0-4.6,2.7-6.2,5.1-6.2c1.1,0,1.8,0.3,2.8,0.8L206.3,99.3z"/>
	<path fill="#707070" d="M220.8,111.6v-1.1h2.6v-9.8h-1.6c-1.4,0-1.5,0.2-1.5,1.6v1.5H219v-4.2h10v4.2h-1.2v-1.5
		c0-1.4-0.1-1.6-1.5-1.6h-1.6v9.8h2.6v1.1H220.8z"/>
	<path fill="#707070" d="M241.8,111.6v-1.1h2.6v-9.8h-1.6c-1.4,0-1.5,0.2-1.5,1.6v1.5H240v-4.2h10v4.2h-1.2v-1.5
		c0-1.4-0.1-1.6-1.5-1.6h-1.6v9.8h2.6v1.1H241.8z"/>
	<path fill="#707070" d="M270.6,110.4h1v1.1h-4v-1.1h1.7l-1-2.6h-4.8l-0.9,2.6h1.7v1.1h-4v-1.1h1l4.5-12L270.6,110.4z M265.9,101.2
		l-2,5.5h4L265.9,101.2z"/>
	<path fill="#707070" d="M290.5,99.3l1.1,0.4c-0.3,0.7-0.4,1.4-0.4,2.1l0.1,1.5l-1.2,0.2c-0.1-1.8-0.5-3.1-2.6-3.1
		c-2.8,0-3.7,2.8-3.7,5.1c0,2.3,1,5.1,3.7,5.1c2,0,2.8-1.4,2.8-3.2h1.2v2.6c-1.1,1.1-2.5,1.8-4.1,1.8c-2.2,0-4.9-1.7-4.9-6.4
		c0-4.6,2.8-6.1,5-6.1c0.9,0,1.9,0.3,2.7,0.7L290.5,99.3z"/>
	<path fill="#707070" d="M185.5,129.9l1.1,0.4c-0.3,0.7-0.4,1.4-0.4,2.1l0.1,1.5l-1.2,0.2c-0.1-1.8-0.5-3.1-2.6-3.1
		c-2.8,0-3.7,2.8-3.7,5.1c0,2.3,1,5.1,3.7,5.1c2,0,2.8-1.4,2.8-3.2h1.2v2.6c-1.1,1.1-2.5,1.8-4.1,1.8c-2.2,0-4.9-1.7-4.9-6.4
		c0-4.6,2.8-6.1,5-6.1c0.9,0,1.9,0.3,2.7,0.7L185.5,129.9z"/>
	<path fill="#707070" d="M199.8,142.1V141h2.6v-9.8h-1.6c-1.4,0-1.5,0.2-1.5,1.6v1.5H198v-4.2h10v4.2h-1.2v-1.5
		c0-1.4-0.1-1.6-1.5-1.6h-1.6v9.8h2.6v1.1H199.8z"/>
	<path fill="#707070" d="M220.8,142.1V141h2.6v-9.8h-1.6c-1.4,0-1.5,0.2-1.5,1.6v1.5H219v-4.2h10v4.2h-1.2v-1.5
		c0-1.4-0.1-1.6-1.5-1.6h-1.6v9.8h2.6v1.1H220.8z"/>
	<path fill="#707070" d="M241.8,142.1V141h2.6v-9.8h-1.6c-1.4,0-1.5,0.2-1.5,1.6v1.5H240v-4.2h10v4.2h-1.2v-1.5
		c0-1.4-0.1-1.6-1.5-1.6h-1.6v9.8h2.6v1.1H241.8z"/>
	<path fill="#707070" d="M269.5,129.9l1.1,0.4c-0.3,0.7-0.4,1.4-0.4,2.1l0.1,1.5l-1.2,0.2c-0.1-1.8-0.5-3.1-2.6-3.1
		c-2.8,0-3.7,2.8-3.7,5.1c0,2.3,1,5.1,3.7,5.1c2,0,2.8-1.4,2.8-3.2h1.2v2.6c-1.1,1.1-2.5,1.8-4.1,1.8c-2.2,0-4.9-1.7-4.9-6.4
		c0-4.6,2.8-6.1,5-6.1c0.9,0,1.9,0.3,2.7,0.7L269.5,129.9z"/>
	<path fill="#707070" d="M291.6,141h1v1.1h-4V141h1.7l-1-2.6h-4.8l-0.9,2.6h1.7v1.1h-4V141h1l4.5-12L291.6,141z M286.9,131.8l-2,5.5
		h4L286.9,131.8z"/>
	<path fill="#707070" d="M185.5,160.4l1.1,0.4c-0.3,0.7-0.4,1.4-0.4,2.1l0.1,1.5l-1.2,0.2c-0.1-1.8-0.5-3.1-2.6-3.1
		c-2.8,0-3.7,2.8-3.7,5.1c0,2.3,1,5.1,3.7,5.1c2,0,2.8-1.4,2.8-3.2h1.2v2.6c-1.1,1.1-2.5,1.8-4.1,1.8c-2.2,0-4.9-1.7-4.9-6.4
		c0-4.6,2.8-6.1,5-6.1c0.9,0,1.9,0.3,2.7,0.7L185.5,160.4z"/>
	<path fill="#707070" d="M199.8,172.7v-1.1h2.6v-9.8h-1.6c-1.4,0-1.5,0.2-1.5,1.6v1.5H198v-4.2h10v4.2h-1.2v-1.5
		c0-1.4-0.1-1.6-1.5-1.6h-1.6v9.8h2.6v1.1H199.8z"/>
	<path fill="#707070" d="M220.8,172.7v-1.1h2.6v-9.8h-1.6c-1.4,0-1.5,0.2-1.5,1.6v1.5H219v-4.2h10v4.2h-1.2v-1.5
		c0-1.4-0.1-1.6-1.5-1.6h-1.6v9.8h2.6v1.1H220.8z"/>
	<path fill="#707070" d="M241.8,172.7v-1.1h2.6v-9.8h-1.6c-1.4,0-1.5,0.2-1.5,1.6v1.5H240v-4.2h10v4.2h-1.2v-1.5
		c0-1.4-0.1-1.6-1.5-1.6h-1.6v9.8h2.6v1.1H241.8z"/>
	<path fill="#707070" d="M269.3,160.4l1,0.3c-0.2,0.7-0.3,1.3-0.3,2c0,0.6,0.1,1.1,0.2,1.7l-1.3,0.2c-0.1-0.8-0.2-1.5-0.5-2.1
		c-0.4-0.6-1-1-2.2-1c-1.4,0-3.8,0.9-3.8,4.9c0,3.7,1.9,5.3,3.5,5.3c0.9,0,2.2-0.3,2.8-1.1c0.3-0.4,0.3-1.2,0.3-1.7v-0.4h-2.7v-1.1
		h5.1v1.1h-1.2v2.5c-1.1,1-2.6,1.8-4.1,1.8c-3.4,0-5-3.2-5-6.2c0-4.6,2.7-6.2,5.1-6.2c1.1,0,1.8,0.3,2.8,0.8L269.3,160.4z"/>
	<path fill="#707070" d="M283.8,172.7v-1.1h2.6v-9.8h-1.6c-1.4,0-1.5,0.2-1.5,1.6v1.5H282v-4.2h10v4.2h-1.2v-1.5
		c0-1.4-0.1-1.6-1.5-1.6h-1.6v9.8h2.6v1.1H283.8z"/>
</g>
<g opacity="0.75">
	<rect x="173.7" y="23" fill="#086AFF" width="121.6" height="2"/>
</g>
<g opacity="0.75">
	<rect x="173.7" y="53.6" fill="#086AFF" width="121.6" height="2"/>
</g>
<g opacity="0.75">
	<rect x="173.7" y="84.2" fill="#086AFF" width="121.6" height="2"/>
</g>
<g opacity="0.75">
	<rect x="173.7" y="114.7" fill="#086AFF" width="121.6" height="2"/>
</g>
<g opacity="0.75">
	<rect x="173.7" y="145.3" fill="#086AFF" width="121.6" height="2"/>
</g>
<g opacity="0.75">
	<rect x="173.7" y="175.8" fill="#086AFF" width="121.6" height="2"/>
</g>
<g>
	<polygon fill="#707070" points="483.3,138.8 347.3,138.8 347.3,8.2 347.8,8.2 347.8,138.3 483.3,138.3 	"/>
</g>
<g>
	<polygon fill="#F5F5F5" points="664.2,207.3 2.8,207.3 13.9,218.5 2.8,229.7 664.2,229.7 675.3,218.5 	"/>
</g>
<g opacity="0.75">
	<path fill="#086AFF" d="M432.8,121.3h-10c-4.1,0-5.2-14.8-6.8-51c-0.8-19-2-45-4.5-46.9h-29.7c-2.2,0-3.5,9.4-4.3,15.7
		c-1.4,9.9-2.3,15.5-5.4,15.5h-15.7v-2h15.7c1.5,0,2.8-9,3.4-13.8c1.3-9.3,2.4-17.4,6.3-17.4h29.8c3.6,0,4.7,11.6,6.4,48.8
		c0.9,20.1,2.1,47.6,4.9,49.1l9.9,0c2.4,0,4-11.6,4.9-18.5c1.6-11.3,2.6-17.6,5.7-17.6h9.3c3.8,0,5,7.2,6.3,15.6
		c1,6.1,2.3,14.6,4.7,14.6h14.4v2h-14.4c-4.1,0-5.3-7.5-6.7-16.2c-0.9-5.9-2.2-13.9-4.3-13.9h-9.3c-1.6,0-3,10.7-3.7,15.9
		C438,113.6,436.7,121.3,432.8,121.3z"/>
</g>
<g opacity="0.75">
	<path fill="#086AFF" d="M432.8,123.3h-10c-4.1,0-5.2-14.8-6.8-51c-0.8-19-2-45-4.5-46.9h-10.1c-2.2,0-3.5,9.5-4.4,15.8
		c-1.4,9.9-2.3,15.4-5.4,15.4h-35.2v-2h35.2c1.5,0,2.7-8.9,3.4-13.7c1.3-9.4,2.4-17.5,6.4-17.5h10.2c3.6,0,4.7,11.6,6.4,48.8
		c0.9,20.1,2.1,47.6,4.9,49.1l9.9,0c0.3-0.1,2-1.5,3.2-16.9c0.8-10,1.3-23,1.7-35.6c1.3-36.7,2.2-47.4,5.7-47.4h34.6v2h-34.5
		c-2.3,2-3.1,26.1-3.8,45.5C438.4,106.7,437.4,123.3,432.8,123.3z"/>
</g>
<g opacity="0.75">
	<path fill="#086AFF" d="M432.8,125.3h-10c-4.1,0-5.2-14.8-6.8-51c-0.8-19-2-45-4.5-46.9h-10.1c-2,0.8-2.8,16.1-3.4,26.2
		c-1.3,21.4-2.3,31.5-6.4,31.5h-9.7c-3.9,0-5.1-7.2-6.3-14.9c-0.7-4.3-1.9-11.6-3.4-11.6h-15.7v-2h15.7c3.3,0,4.2,5.9,5.4,13.3
		c0.9,5.6,2.1,13.2,4.3,13.2h9.7c0.1,0,1.5-0.1,2.7-8.8c0.8-5.7,1.2-13.4,1.7-20.8c1.2-20,2-28.1,5.4-28.1h10.2
		c3.6,0,4.7,11.6,6.4,48.8c0.9,20.1,2.1,47.6,4.9,49.1l9.9,0c0.2,0,1.8-0.3,3-10.6c0.8-6.9,1.2-16.1,1.6-25c1.1-24.4,2-35,6-35h9.3
		c1.9,0,3.2-7.9,4.1-13.1c1.4-8.3,2.7-16.1,6.9-16.1h14.4v2h-14.4c-2.5,0-3.9,8.3-4.9,14.4c-1.3,7.9-2.5,14.8-6.1,14.8h-9.3
		c0,0-1.4,0.1-2.5,9.7c-0.7,6.3-1.1,15-1.5,23.4C438.3,113.2,437.3,125.3,432.8,125.3z"/>
</g>
<g opacity="0.75">
	<path fill="#086AFF" d="M432.8,119.3h-31.3c-4,0-5.1-8.3-6.4-18c-0.7-4.9-1.9-14.2-3.4-14.2h-9.7c-3.9,0-5.1-7.2-6.3-14.9
		c-0.7-4.3-1.9-11.6-3.4-11.6h-15.7v-2h15.7c3.3,0,4.2,5.9,5.4,13.3c0.9,5.6,2.1,13.2,4.3,13.2h9.7c3.1,0,4,5.7,5.4,15.9
		c0.9,6.5,2.2,16.3,4.4,16.3h31.3c0.3-0.1,1.9-1.3,3.2-15.7c0.8-9.4,1.3-21.7,1.7-33.6c1.3-34.5,2.2-44.6,5.7-44.6h9.3
		c4,0,5.1,7.1,6.4,15.3c0.9,5.8,2.2,13.7,4.6,13.7h14.4v2h-14.4c-4.1,0-5.2-7.2-6.5-15.4c-0.9-5.7-2.2-13.6-4.4-13.6h-9.2
		c-2.3,1.9-3.1,24.5-3.8,42.7C438.4,103.6,437.4,119.3,432.8,119.3z"/>
</g>
<g opacity="0.75">
	<path fill="#086AFF" d="M432.8,115.3h-50.9c-3.6,0-4.7-8.8-6.3-28.8c-0.7-9-1.8-22.6-3.5-23.8h-15.6v-2h15.7c3,0,3.9,7,5.4,25.7
		c0.8,9.9,2.1,26.5,4.3,27l50.9,0c3.1,0,4.3-19.1,5-30.5c1.2-20,2.1-28.2,5.7-28.2h9.3c2.2,0,3.3-7.6,4.2-13.2
		c1.2-8.2,2.4-16,6.8-16h14.4v2h-14.4c-2.7,0-3.9,7.9-4.8,14.3c-1.2,8-2.2,14.9-6.2,14.9h-9.3c0,0-1.2,0.2-2.2,7.5
		c-0.7,5-1.1,11.7-1.5,18.8C438.6,103,437.6,115.3,432.8,115.3z"/>
</g>
<g opacity="0.75">
	<path fill="#086AFF" d="M478.1,117.3h-14.4c-4.1,0-5.2-7.4-6.5-16c-0.9-6-2.2-14.1-4.4-14.1h-9.3c-1.6,0-2.6,7.4-3.2,12.2
		c-1.2,8.8-2.4,17.9-7.4,17.9h-50.9c-3.6,0-4.7-8.8-6.3-28.8c-0.7-9-1.8-22.6-3.5-23.8h-15.6v-2h15.7c3,0,3.9,7,5.4,25.7
		c0.8,9.9,2.1,26.5,4.3,27l50.9,0c3.3,0,4.5-9,5.5-16.2c1-7.8,1.8-14,5.2-14h9.3c4,0,5.1,7.3,6.4,15.8c0.9,6,2.2,14.3,4.6,14.3h14.4
		V117.3z"/>
</g>
<g opacity="0.75">
	<path fill="#086AFF" d="M607.7,121.3h-10c-4.1,0-5.2-14.8-6.8-51c-0.8-19-2-45-4.5-46.9h-29.7c-2.2,0-3.5,9.4-4.3,15.7
		c-1.4,9.9-2.3,15.5-5.4,15.5h-15.7v-2h15.7c1.5,0,2.8-9,3.4-13.8c1.3-9.3,2.4-17.4,6.3-17.4h29.8c3.6,0,4.7,11.6,6.4,48.8
		c0.9,20.1,2.1,47.6,4.9,49.1l9.9,0c2.4,0,4-11.6,4.9-18.5c1.6-11.3,2.6-17.6,5.7-17.6h9.3c3.8,0,5,7.2,6.3,15.6
		c1,6.1,2.3,14.6,4.7,14.6H653v2h-14.4c-4.1,0-5.3-7.5-6.7-16.2c-0.9-5.9-2.2-13.9-4.3-13.9h-9.3c-1.6,0-3,10.7-3.7,15.9
		C612.9,113.6,611.5,121.3,607.7,121.3z"/>
</g>
<g opacity="0.75">
	<path fill="#086AFF" d="M607.7,123.3h-10c-4.1,0-5.2-14.8-6.8-51c-0.8-19-2-45-4.5-46.9h-10.1c-2.2,0-3.5,9.5-4.4,15.8
		c-1.4,9.9-2.3,15.4-5.4,15.4h-35.2v-2h35.2c1.5,0,2.7-8.9,3.4-13.7c1.3-9.4,2.4-17.5,6.4-17.5h10.2c3.6,0,4.7,11.6,6.4,48.8
		c0.9,20.1,2.1,47.6,4.9,49.1l9.9,0c0.3-0.1,2-1.5,3.2-16.9c0.8-10,1.3-23,1.7-35.6c1.3-36.7,2.2-47.4,5.7-47.4H653v2h-34.5
		c-2.3,2-3.1,26.1-3.8,45.5C613.3,106.7,612.2,123.3,607.7,123.3z"/>
</g>
<g opacity="0.75">
	<path fill="#086AFF" d="M607.7,125.3h-10c-4.1,0-5.2-14.8-6.8-51c-0.8-19-2-45-4.5-46.9h-10.1c-2,0.8-2.8,16.1-3.4,26.2
		c-1.3,21.4-2.3,31.5-6.4,31.5h-9.7c-3.9,0-5.1-7.2-6.3-14.9c-0.7-4.3-1.9-11.6-3.4-11.6h-15.7v-2h15.7c3.3,0,4.2,5.9,5.4,13.3
		c0.9,5.6,2.1,13.2,4.3,13.2h9.7c0.1,0,1.5-0.1,2.7-8.8c0.8-5.7,1.2-13.4,1.7-20.8c1.2-20,2-28.1,5.4-28.1h10.2
		c3.6,0,4.7,11.6,6.4,48.8c0.9,20.1,2.1,47.6,4.9,49.1l9.9,0c0.2,0,1.8-0.3,3-10.6c0.8-6.9,1.2-16.1,1.6-25c1.1-24.4,2-35,6-35h9.3
		c1.9,0,3.2-7.9,4.1-13.1c1.4-8.3,2.7-16.1,6.9-16.1H653v2h-14.4c-2.5,0-3.9,8.3-4.9,14.4c-1.3,7.9-2.5,14.8-6.1,14.8h-9.3
		c0,0-1.4,0.1-2.5,9.7c-0.7,6.3-1.1,15-1.5,23.4C613.2,113.2,612.1,125.3,607.7,125.3z"/>
</g>
<g opacity="0.75">
	<path fill="#086AFF" d="M607.7,119.3h-31.3c-4,0-5.1-8.3-6.4-18c-0.7-4.9-1.9-14.2-3.4-14.2h-9.7c-3.9,0-5.1-7.2-6.3-14.9
		c-0.7-4.3-1.9-11.6-3.4-11.6h-15.7v-2h15.7c3.3,0,4.2,5.9,5.4,13.3c0.9,5.6,2.1,13.2,4.3,13.2h9.7c3.1,0,4,5.7,5.4,15.9
		c0.9,6.5,2.2,16.3,4.4,16.3h31.3c0.3-0.1,1.9-1.3,3.2-15.7c0.8-9.4,1.3-21.7,1.7-33.6c1.3-34.5,2.2-44.6,5.7-44.6h9.3
		c4,0,5.1,7.1,6.4,15.2c0.9,5.8,2.2,13.8,4.6,13.8H653v2h-14.4c-4.1,0-5.2-7.2-6.5-15.4c-0.9-5.7-2.2-13.6-4.4-13.6h-9.2
		c-2.3,1.9-3.1,24.5-3.8,42.7C613.3,103.6,612.2,119.3,607.7,119.3z"/>
</g>
<g opacity="0.75">
	<path fill="#086AFF" d="M607.7,115.3h-50.9c-3.6,0-4.7-8.8-6.3-28.8c-0.7-9-1.8-22.6-3.5-23.8h-15.6v-2h15.7c3,0,3.9,7,5.4,25.7
		c0.8,9.9,2.1,26.5,4.3,27l50.9,0c3.1,0,4.3-19.1,5-30.5c1.2-20,2.1-28.2,5.7-28.2h9.3c2.2,0,3.3-7.6,4.2-13.2
		c1.2-8.2,2.4-16,6.8-16H653v2h-14.4c-2.7,0-3.9,7.9-4.8,14.3c-1.2,8-2.2,14.9-6.2,14.9h-9.3c0,0-1.2,0.2-2.2,7.5
		c-0.7,5-1.1,11.7-1.5,18.8C613.4,103,612.4,115.3,607.7,115.3z"/>
</g>
<g opacity="0.75">
	<path fill="#086AFF" d="M653,117.3h-14.4c-4.1,0-5.2-7.4-6.5-16c-0.9-6-2.2-14.1-4.4-14.1h-9.3c-1.6,0-2.6,7.4-3.2,12.2
		c-1.2,8.8-2.4,17.9-7.5,17.9h-50.9c-3.6,0-4.7-8.8-6.3-28.8c-0.7-9-1.8-22.6-3.5-23.8h-15.6v-2h15.7c3,0,3.9,7,5.4,25.7
		c0.8,9.9,2.1,26.5,4.3,27l50.9,0c3.3,0,4.5-9,5.5-16.2c1-7.8,1.8-14,5.2-14h9.3c4,0,5.1,7.3,6.4,15.8c0.9,6,2.2,14.3,4.6,14.3H653
		V117.3z"/>
</g>
<g>
	<path fill="#707070" d="M537.7,149.6h1.5v-4.3c0-0.2,0-0.4,0-0.4h0c0,0-0.1,0.2-0.3,0.4l-0.6,0.6l-0.6-0.6l1.6-1.6h0.8v5.9h1.5v0.8
		h-3.9V149.6z"/>
	<path fill="#707070" d="M557.8,149.9c0-2.4,3.3-2.7,3.3-4.3c0-0.7-0.5-1.1-1.2-1.1c-0.9,0-1.4,0.9-1.4,0.9l-0.7-0.5
		c0,0,0.6-1.3,2.1-1.3c1.2,0,2.1,0.8,2.1,1.9c0,2.2-3.2,2.5-3.2,4.1h3.3v0.8h-4.3C557.8,150.3,557.8,150.1,557.8,149.9z"/>
	<path fill="#707070" d="M579,148.9c0,0,0.7,0.7,1.6,0.7c0.8,0,1.4-0.5,1.4-1.2c0-0.8-0.7-1.2-1.6-1.2H580l-0.2-0.5l1.5-1.7
		c0.2-0.3,0.4-0.4,0.4-0.4v0c0,0-0.2,0-0.6,0h-2.3v-0.8h4v0.6l-1.8,2.1c0.9,0.1,2,0.7,2,2c0,1.2-0.9,2.2-2.3,2.2
		c-1.4,0-2.2-0.9-2.2-0.9L579,148.9z"/>
	<path fill="#707070" d="M599.2,148.1l3.1-4.3h1.1v4.1h0.9v0.8h-0.9v1.8h-0.9v-1.8h-3.3V148.1z M602.5,147.8v-2.4c0-0.3,0-0.7,0-0.7
		h0c0,0-0.2,0.3-0.3,0.6l-1.9,2.5v0H602.5z"/>
	<path fill="#707070" d="M621.1,148.9c0,0,0.5,0.7,1.5,0.7c0.8,0,1.5-0.5,1.5-1.4c0-0.8-0.7-1.4-1.5-1.4c-0.7,0-1.1,0.3-1.1,0.3
		l-0.5-0.2l0.3-3.3h3.4v0.8H622l-0.2,1.4c0,0.2,0,0.4,0,0.4h0c0,0,0.4-0.2,0.9-0.2c1.4,0,2.3,1,2.3,2.2c0,1.3-1,2.3-2.4,2.3
		c-1.4,0-2.1-0.9-2.1-0.9L621.1,148.9z"/>
	<path fill="#707070" d="M641.5,147.4c0-1.7,0.9-3.8,3-3.8c0.8,0,1.3,0.3,1.3,0.3l-0.3,0.8c0,0-0.4-0.2-1-0.2c-1.2,0-1.9,1.1-2,2.3
		h0c0.3-0.4,0.9-0.6,1.5-0.6c1.3,0,2.1,1,2.1,2.2c0,1.3-0.9,2.2-2.2,2.2C642.6,150.6,641.5,149.3,641.5,147.4z M645.2,148.3
		c0-0.8-0.5-1.4-1.4-1.4c-0.8,0-1.4,0.5-1.4,0.9c0,0.9,0.7,1.9,1.5,1.9C644.8,149.7,645.2,149.1,645.2,148.3z"/>
</g>
<g>
	<polygon fill="#707070" points="658.2,138.8 522.2,138.8 522.2,8.2 522.7,8.2 522.7,138.3 658.2,138.3 	"/>
</g>
<g>
	<path fill="#707070" d="M61.1,215.1h1.2l1.3,3.2c0.1,0.4,0.3,0.9,0.3,0.9h0c0,0,0.2-0.6,0.3-0.9l1.3-3.2h1.2l0.5,6.4h-1.2l-0.3-3.6
		c0-0.4,0-1,0-1h0c0,0-0.2,0.6-0.3,1l-1,2.5h-1l-1-2.5c-0.2-0.4-0.4-1-0.4-1h0c0,0,0,0.6,0,1l-0.3,3.6h-1.2L61.1,215.1z"/>
	<path fill="#707070" d="M68.8,219.8c0,0,0.7,0.7,1.6,0.7c0.5,0,0.9-0.3,0.9-0.8c0-1.1-3-0.9-3-2.9c0-1.1,0.9-1.9,2.1-1.9
		c1.3,0,1.9,0.7,1.9,0.7l-0.5,0.9c0,0-0.6-0.6-1.4-0.6c-0.5,0-1,0.3-1,0.8c0,1.1,3,0.9,3,2.9c0,1-0.8,1.9-2.1,1.9
		c-1.4,0-2.2-0.9-2.2-0.9L68.8,219.8z"/>
	<path fill="#707070" d="M76.9,219.8h-2.2l-0.5,1.6h-1.2l2.3-6.4h1.2l2.3,6.4h-1.2L76.9,219.8z M75.7,216.2c0,0-0.1,0.6-0.3,1
		l-0.6,1.7h1.7l-0.6-1.7C75.9,216.8,75.8,216.2,75.7,216.2L75.7,216.2z"/>
</g>
<g>
	<path fill="#707070" d="M205,215.1h1.2l1.3,3.2c0.1,0.4,0.3,0.9,0.3,0.9h0c0,0,0.2-0.6,0.3-0.9l1.3-3.2h1.2l0.5,6.4H210l-0.3-3.6
		c0-0.4,0-1,0-1h0c0,0-0.2,0.6-0.3,1l-1,2.5h-1l-1-2.5c-0.2-0.4-0.4-1-0.4-1h0c0,0,0,0.6,0,1l-0.3,3.6h-1.2L205,215.1z"/>
	<path fill="#707070" d="M212.7,219.8c0,0,0.7,0.7,1.6,0.7c0.5,0,0.9-0.3,0.9-0.8c0-1.1-3-0.9-3-2.9c0-1.1,0.9-1.9,2.1-1.9
		c1.3,0,1.9,0.7,1.9,0.7l-0.5,0.9c0,0-0.6-0.6-1.4-0.6c-0.5,0-1,0.3-1,0.8c0,1.1,3,0.9,3,2.9c0,1-0.8,1.9-2.1,1.9
		c-1.4,0-2.2-0.9-2.2-0.9L212.7,219.8z"/>
	<path fill="#707070" d="M220.7,219.8h-2.2l-0.5,1.6h-1.2l2.3-6.4h1.2l2.3,6.4h-1.2L220.7,219.8z M219.6,216.2c0,0-0.1,0.6-0.3,1
		l-0.6,1.7h1.7l-0.6-1.7C219.8,216.8,219.6,216.2,219.6,216.2L219.6,216.2z"/>
	<path fill="#707070" d="M225.1,218.5h1.9v-2.1h0.9v2.1h1.9v0.9H228v2.1h-0.9v-2.1h-1.9V218.5z"/>
	<path fill="#707070" d="M233.4,215.1h1.2v5.4h2.8v1h-3.9V215.1z"/>
	<path fill="#707070" d="M238.2,215.1h1.2v6.4h-1.2V215.1z"/>
	<path fill="#707070" d="M241,215.1h1.2l2.4,3.7c0.2,0.4,0.5,1,0.5,1h0c0,0-0.1-0.6-0.1-1v-3.7h1.2v6.4h-1.2l-2.4-3.7
		c-0.2-0.4-0.5-1-0.5-1h0c0,0,0.1,0.6,0.1,1v3.7H241V215.1z"/>
	<path fill="#707070" d="M247.8,215.1h3.8v1H249v1.7h2.2v1H249v1.7h2.8v1h-4V215.1z"/>
	<path fill="#707070" d="M253.2,219.8c0,0,0.7,0.7,1.6,0.7c0.5,0,0.9-0.3,0.9-0.8c0-1.1-3-0.9-3-2.9c0-1.1,0.9-1.9,2.1-1.9
		c1.3,0,1.9,0.7,1.9,0.7l-0.5,0.9c0,0-0.6-0.6-1.4-0.6c-0.5,0-1,0.3-1,0.8c0,1.1,3,0.9,3,2.9c0,1-0.8,1.9-2.1,1.9
		c-1.4,0-2.2-0.9-2.2-0.9L253.2,219.8z"/>
</g>
<g>
	<path fill="#707070" d="M373.6,215.1h2.3c1.2,0,2,0.6,2,1.6c0,0.6-0.3,1.1-0.8,1.4v0c0.7,0.2,1,0.9,1,1.5c0,1.3-1,1.9-2.2,1.9h-2.3
		V215.1z M375.9,217.7c0.5,0,0.8-0.4,0.8-0.8c0-0.5-0.3-0.8-0.8-0.8h-1.1v1.6H375.9z M376,220.5c0.6,0,0.9-0.4,0.9-0.9
		c0-0.5-0.3-0.9-0.9-0.9h-1.2v1.8H376z"/>
	<path fill="#707070" d="M379.3,215.1h1.2v4.1c0,0.9,0.6,1.3,1.4,1.3c0.9,0,1.4-0.5,1.4-1.4v-4.1h1.2v4.1c0,1.4-1,2.4-2.6,2.4
		c-1.5,0-2.6-1-2.6-2.4V215.1z"/>
	<path fill="#707070" d="M385.9,215.1h1.2l2.4,3.7c0.2,0.4,0.5,1,0.5,1h0c0,0-0.1-0.6-0.1-1v-3.7h1.2v6.4H390l-2.4-3.7
		c-0.2-0.4-0.5-1-0.5-1h0c0,0,0.1,0.6,0.1,1v3.7h-1.2V215.1z"/>
	<path fill="#707070" d="M392.8,215.1h2.2c2,0,3.3,1.2,3.3,3.2s-1.3,3.2-3.3,3.2h-2.2V215.1z M394.9,220.5c1.3,0,2.1-0.8,2.1-2.2
		c0-1.4-0.8-2.2-2.1-2.2h-1v4.4H394.9z"/>
	<path fill="#707070" d="M399.4,215.1h1.2v5.4h2.8v1h-3.9V215.1z"/>
	<path fill="#707070" d="M404.3,215.1h1.2v6.4h-1.2V215.1z"/>
	<path fill="#707070" d="M407.1,215.1h1.2l2.4,3.7c0.2,0.4,0.5,1,0.5,1h0c0,0-0.1-0.6-0.1-1v-3.7h1.2v6.4h-1.2l-2.4-3.7
		c-0.2-0.4-0.5-1-0.5-1h0c0,0,0.1,0.6,0.1,1v3.7h-1.2V215.1z"/>
	<path fill="#707070" d="M416.8,215c1.6,0,2.4,0.8,2.4,0.8l-0.6,0.9c0,0-0.7-0.6-1.7-0.6c-1.4,0-2.2,1-2.2,2.2
		c0,1.4,0.9,2.3,2.1,2.3c1,0,1.6-0.7,1.6-0.7v-0.7h-1v-1h2v3.4h-1v-0.3c0-0.1,0-0.3,0-0.3h0c0,0-0.7,0.7-1.9,0.7
		c-1.7,0-3.1-1.3-3.1-3.3C413.5,216.4,414.9,215,416.8,215z"/>
	<path fill="#707070" d="M422.9,215.1h1.2v5.4h2.8v1h-3.9V215.1z"/>
	<path fill="#707070" d="M427.8,215.1h1.2v6.4h-1.2V215.1z"/>
	<path fill="#707070" d="M430.6,215.1h1.2l2.4,3.7c0.2,0.4,0.5,1,0.5,1h0c0,0-0.1-0.6-0.1-1v-3.7h1.2v6.4h-1.2l-2.4-3.7
		c-0.2-0.4-0.5-1-0.5-1h0c0,0,0.1,0.6,0.1,1v3.7h-1.2V215.1z"/>
	<path fill="#707070" d="M437.4,215.1h3.8v1h-2.7v1.7h2.2v1h-2.2v1.7h2.8v1h-4V215.1z"/>
	<path fill="#707070" d="M442.7,219.8c0,0,0.7,0.7,1.6,0.7c0.5,0,0.9-0.3,0.9-0.8c0-1.1-3-0.9-3-2.9c0-1.1,0.9-1.9,2.1-1.9
		c1.3,0,1.9,0.7,1.9,0.7l-0.5,0.9c0,0-0.6-0.6-1.4-0.6c-0.5,0-1,0.3-1,0.8c0,1.1,3,0.9,3,2.9c0,1-0.8,1.9-2.1,1.9
		c-1.4,0-2.2-0.9-2.2-0.9L442.7,219.8z"/>
</g>
<g>
	<path fill="#707070" d="M546.7,219.8c0,0,0.7,0.7,1.6,0.7c0.5,0,0.9-0.3,0.9-0.8c0-1.1-3-0.9-3-2.9c0-1.1,0.9-1.9,2.1-1.9
		c1.3,0,1.9,0.7,1.9,0.7l-0.5,0.9c0,0-0.6-0.6-1.4-0.6c-0.5,0-1,0.3-1,0.8c0,1.1,3,0.9,3,2.9c0,1-0.8,1.9-2.1,1.9
		c-1.4,0-2.2-0.9-2.2-0.9L546.7,219.8z"/>
	<path fill="#707070" d="M551.5,215.1h3.8v1h-2.7v1.7h2.2v1h-2.2v1.7h2.8v1h-4V215.1z"/>
	<path fill="#707070" d="M559.5,215c1.9,0,3.3,1.4,3.3,3.3c0,0.8-0.3,1.5-0.7,2l0.7,0.6l-0.7,0.7l-0.7-0.7c-0.5,0.4-1.2,0.6-2,0.6
		c-1.9,0-3.3-1.5-3.3-3.3C556.2,216.4,557.6,215,559.5,215z M559.5,220.5c0.4,0,0.8-0.1,1.1-0.3l-0.7-0.7l0.7-0.7l0.7,0.7
		c0.2-0.4,0.4-0.8,0.4-1.2c0-1.3-0.9-2.2-2.1-2.2c-1.2,0-2.1,0.9-2.1,2.2C557.4,219.6,558.3,220.5,559.5,220.5z"/>
	<path fill="#707070" d="M564,215.1h1.2v4.1c0,0.9,0.6,1.3,1.4,1.3s1.4-0.5,1.4-1.4v-4.1h1.2v4.1c0,1.4-1,2.4-2.6,2.4
		c-1.5,0-2.6-1-2.6-2.4V215.1z"/>
	<path fill="#707070" d="M570.7,215.1h3.8v1h-2.7v1.7h2.2v1h-2.2v1.7h2.8v1h-4V215.1z"/>
	<path fill="#707070" d="M575.9,215.1h1.2l2.4,3.7c0.2,0.4,0.5,1,0.5,1h0c0,0-0.1-0.6-0.1-1v-3.7h1.2v6.4h-1.2l-2.4-3.7
		c-0.2-0.4-0.5-1-0.5-1h0c0,0,0.1,0.6,0.1,1v3.7h-1.2V215.1z"/>
	<path fill="#707070" d="M585.6,215c1.6,0,2.4,0.9,2.4,0.9l-0.6,0.9c0,0-0.7-0.7-1.7-0.7c-1.3,0-2.1,1-2.1,2.2
		c0,1.2,0.8,2.3,2.2,2.3c1.1,0,1.9-0.8,1.9-0.8l0.6,0.8c0,0-0.9,1-2.5,1c-2,0-3.3-1.4-3.3-3.3C582.3,216.4,583.7,215,585.6,215z"/>
	<path fill="#707070" d="M589.2,215.1h3.8v1h-2.7v1.7h2.2v1h-2.2v1.7h2.8v1h-4V215.1z"/>
	<path fill="#707070" d="M596.5,215.1h2.3c1.2,0,2,0.6,2,1.6c0,0.6-0.3,1.1-0.8,1.4v0c0.7,0.2,1,0.9,1,1.5c0,1.3-1,1.9-2.2,1.9h-2.3
		V215.1z M598.8,217.7c0.5,0,0.8-0.4,0.8-0.8c0-0.5-0.3-0.8-0.8-0.8h-1.1v1.6H598.8z M598.9,220.5c0.6,0,0.9-0.4,0.9-0.9
		c0-0.5-0.3-0.9-0.9-0.9h-1.2v1.8H598.9z"/>
	<path fill="#707070" d="M602.2,215.1h1.2v4.1c0,0.9,0.6,1.3,1.4,1.3s1.4-0.5,1.4-1.4v-4.1h1.2v4.1c0,1.4-1,2.4-2.6,2.4
		c-1.5,0-2.6-1-2.6-2.4V215.1z"/>
	<path fill="#707070" d="M608.9,215.1h1.2l2.4,3.7c0.2,0.4,0.5,1,0.5,1h0c0,0-0.1-0.6-0.1-1v-3.7h1.2v6.4H613l-2.4-3.7
		c-0.2-0.4-0.5-1-0.5-1h0c0,0,0.1,0.6,0.1,1v3.7h-1.2V215.1z"/>
	<path fill="#707070" d="M615.7,215.1h2.2c2,0,3.3,1.2,3.3,3.2s-1.3,3.2-3.3,3.2h-2.2V215.1z M617.8,220.5c1.3,0,2.1-0.8,2.1-2.2
		c0-1.4-0.8-2.2-2.1-2.2h-1v4.4H617.8z"/>
	<path fill="#707070" d="M622.4,215.1h1.2v5.4h2.8v1h-3.9V215.1z"/>
	<path fill="#707070" d="M627.2,215.1h3.8v1h-2.7v1.7h2.2v1h-2.2v1.7h2.8v1h-4V215.1z"/>
	<path fill="#707070" d="M632.6,219.8c0,0,0.7,0.7,1.6,0.7c0.5,0,0.9-0.3,0.9-0.8c0-1.1-3-0.9-3-2.9c0-1.1,0.9-1.9,2.1-1.9
		c1.3,0,1.9,0.7,1.9,0.7l-0.5,0.9c0,0-0.6-0.6-1.4-0.6c-0.5,0-1,0.3-1,0.8c0,1.1,3,0.9,3,2.9c0,1-0.8,1.9-2.1,1.9
		c-1.4,0-2.2-0.9-2.2-0.9L632.6,219.8z"/>
</g>
</svg>
