<?xml version="1.0" encoding="utf-8"?>
<!-- Generator: Adobe Illustrator 18.1.1, SVG Export Plug-In . SVG Version: 6.00 Build 0)  -->
<!DOCTYPE svg PUBLIC "-//W3C//DTD SVG 1.1//EN" "http://www.w3.org/Graphics/SVG/1.1/DTD/svg11.dtd">
<svg version="1.1" id="Layer_1" xmlns="http://www.w3.org/2000/svg" xmlns:xlink="http://www.w3.org/1999/xlink" x="0px" y="0px"
	 viewBox="0 0 800 600" enable-background="new 0 0 800 600" xml:space="preserve">
<g>
	<path fill="#F26A26" d="M545.7,260c21.4,0,35.7,11.4,38.6,31.4h-17.1c-2.9-10-10-15.7-21.4-15.7c-15.7,0-25.7,12.9-25.7,31.4
		s10,31.4,25.7,31.4c12.9,0,18.6-5.7,21.4-15.7h17.1c-2.9,18.6-17.1,31.4-40,31.4c-27.1,0-44.3-20-44.3-45.7
		C501.4,280,518.6,260,545.7,260z"/>
</g>
<g>
	<path fill="#F26A26" d="M640,410c24.3,0,40,17.1,40,40s-15.7,40-40,40c-24.3,0-40-17.1-40-40S615.7,410,640,410z M640,478.6
		c14.3,0,24.3-11.4,24.3-27.1s-10-27.1-24.3-27.1s-24.3,11.4-24.3,27.1C615.7,465.7,625.7,478.6,640,478.6z"/>
</g>
<g>
	<path fill="#F26A26" d="M640,115.7c24.3,0,40,17.1,40,40s-15.7,40-40,40c-24.3,1.4-40-15.7-40-38.6S615.7,115.7,640,115.7z
		 M640,184.3c14.3,0,24.3-11.4,24.3-27.1S654.3,130,640,130s-24.3,11.4-24.3,27.1S625.7,184.3,640,184.3z"/>
	<path fill="#F26A26" d="M694.3,117.1H710V150h37.1v-32.9h15.7v78.6h-15.7v-32.9H710v32.9h-15.7V117.1z"/>
</g>
<g>
	<rect x="431.4" y="301.4" fill="#F26A26" width="44.3" height="7.1"/>
</g>
<g opacity="0.33">
	<g>
		<path fill="#F26A26" d="M372.9,245.7c-31.4,0-57.1,24.3-58.6,55.7h34.3v7.1h-34.3c1.4,31.4,27.1,55.7,58.6,55.7
			c32.9,0,58.6-25.7,58.6-58.6S405.7,245.7,372.9,245.7"/>
	</g>
</g>
<g>
	<polyline fill="#F26A26" points="348.6,301.4 288.6,301.4 288.6,308.6 348.6,308.6 348.6,301.4 	"/>
</g>
<g opacity="0.33">
	<g>
		<path fill="#F26A26" d="M230,245.7c-31.4,0-57.1,24.3-58.6,55.7h34.3v7.1h-34.3c1.4,31.4,27.1,55.7,58.6,55.7
			c32.9,0,58.6-25.7,58.6-58.6l0,0C288.6,272.9,262.9,245.7,230,245.7"/>
	</g>
</g>
<g>
	<polyline fill="#F26A26" points="205.7,301.4 145.7,301.4 145.7,308.6 205.7,308.6 205.7,301.4 	"/>
</g>
<g opacity="0.33">
	<g>
		<path fill="#F26A26" d="M87.1,245.7c-32.9,0-58.6,25.7-58.6,58.6s25.7,58.6,58.6,58.6s58.6-25.7,58.6-58.6l0,0
			C145.7,272.9,120,245.7,87.1,245.7"/>
	</g>
</g>
<g>
	
		<rect x="562.9" y="385.5" transform="matrix(0.5298 0.8481 -0.8481 0.5298 605.056 -313.2518)" fill="#F26A26" width="44.3" height="7.1"/>
</g>
<g>
	
		<rect x="587.1" y="370.4" transform="matrix(0.5298 0.8481 -0.8481 0.5298 603.6348 -340.905)" fill="#F26A26" width="44.3" height="7.1"/>
</g>
<g>
	
		<rect x="573.6" y="224.8" transform="matrix(0.4812 -0.8766 0.8766 0.4812 109.2309 641.3885)" fill="#F26A26" width="45.7" height="7.1"/>
</g>
</svg>
