<?xml version="1.0" encoding="utf-8"?>
<!-- Generator: Adobe Illustrator 18.1.0, SVG Export Plug-In . SVG Version: 6.00 Build 0)  -->
<!DOCTYPE svg PUBLIC "-//W3C//DTD SVG 1.1//EN" "http://www.w3.org/Graphics/SVG/1.1/DTD/svg11.dtd">
<svg version="1.1" id="Layer_1" xmlns="http://www.w3.org/2000/svg" xmlns:xlink="http://www.w3.org/1999/xlink" x="0px" y="0px"
	 viewBox="0 0 841.9 595.3" enable-background="new 0 0 841.9 595.3" xml:space="preserve">
<g>
	<g>
		<path fill="#707070" d="M284.8,232H260v-12.4h24.8V232z M331.8,232H307v-12.4h24.8V232z M237.7,232h-24.8v-12.4h24.8V232z
			 M190.7,232h-24.8v-12.4h24.8V232z"/>
	</g>
</g>
<g>
	<path fill="#707070" d="M118.9,254.3c-17.3,0-29.7-12.4-29.7-29.7s12.4-29.7,29.7-29.7s29.7,14.9,29.7,29.7
		C148.6,239.5,136.2,254.3,118.9,254.3z M118.9,209.7c-9.9,0-17.3,7.4-17.3,17.3c0,9.9,7.4,17.3,17.3,17.3s17.3-7.4,17.3-17.3
		C136.2,217.2,128.8,209.7,118.9,209.7z"/>
</g>
<g>
	<g>
		<g>
			<path fill="#707070" d="M559.6,219.6h24.8V232h-24.8V219.6z M512.6,219.6h24.8V232h-24.8V219.6z M606.7,219.6h24.8V232h-24.8
				V219.6z M653.7,219.6h24.8V232h-24.8V219.6z"/>
		</g>
	</g>
	<g>
		<path fill="#707070" d="M723,197.4c17.3,0,29.7,12.4,29.7,29.7s-12.4,29.7-29.7,29.7c-17.3,0-29.7-14.9-29.7-32.2
			S708.2,197.4,723,197.4z M723,241.9c9.9,0,17.3-7.4,17.3-17.3c0-9.9-7.4-17.3-17.3-17.3s-17.3,7.4-17.3,17.3
			S713.1,241.9,723,241.9z"/>
	</g>
</g>
<path fill="#066CFF" d="M472.9,209.7h-104c-64.4,0-109,61.9-133.7,183.2l24.8,5c14.9-74.3,47-163.4,109-163.4h104
	c61.9,0,94.1,89.1,109,163.4l24.8-5C579.4,271.6,534.8,209.7,472.9,209.7z"/>
</svg>
