<?xml version="1.0" encoding="utf-8"?>
<!-- Generator: Adobe Illustrator 18.1.1, SVG Export Plug-In . SVG Version: 6.00 Build 0)  -->
<!DOCTYPE svg PUBLIC "-//W3C//DTD SVG 1.1//EN" "http://www.w3.org/Graphics/SVG/1.1/DTD/svg11.dtd">
<svg version="1.1" id="Layer_1" xmlns="http://www.w3.org/2000/svg" xmlns:xlink="http://www.w3.org/1999/xlink" x="0px" y="0px"
	 viewBox="0 0 34 34" enable-background="new 0 0 34 34" xml:space="preserve">
<path fill="#066CFF" d="M31.9,19.6c0-0.1-0.1-0.2-0.2-0.2h-4.9V1.7c0-0.1-0.1-0.2-0.2-0.2h-19c-0.1,0-0.2,0.1-0.2,0.2v17.7H2.3
	c-0.1,0-0.2,0.1-0.2,0.2c0,0.1,0,0.2,0.1,0.3l14.7,12.7c0,0,0.1,0.1,0.2,0.1s0.1,0,0.2-0.1l14.7-12.7C31.9,19.8,31.9,19.7,31.9,19.6
	z M17,32L3,19.9h4.5c0.1,0,0.2-0.1,0.2-0.2V1.9h18.5v17.7c0,0.1,0.1,0.2,0.2,0.2H31L17,32z"/>
</svg>
