<?xml version="1.0" encoding="utf-8"?>
<!-- Generator: Adobe Illustrator 18.1.1, SVG Export Plug-In . SVG Version: 6.00 Build 0)  -->
<!DOCTYPE svg PUBLIC "-//W3C//DTD SVG 1.1//EN" "http://www.w3.org/Graphics/SVG/1.1/DTD/svg11.dtd">
<svg version="1.1" id="Layer_1" xmlns="http://www.w3.org/2000/svg" xmlns:xlink="http://www.w3.org/1999/xlink" x="0px" y="0px"
	 viewBox="0 0 56.7 34" enable-background="new 0 0 56.7 34" xml:space="preserve">
<path fill="#D7D7D7" d="M8.9,19.9H4.3c0,0,0.1,0.3,0.6,1.1c0.8,1.3,2.3,2.7,4.4,2.7c2,0,5.1,0,5.1,0C12.4,23.7,10.2,22.2,8.9,19.9"
	/>
<path fill="#D7D7D7" d="M28.6,10.3c-2,0-5.1,0-5.1,0c2.2,0,3.8,1.4,5.8,4.4l3.9,6c1.2,1.8,2.6,3,4.6,3c2,0,5.1,0,5.1,0
	c-2.2,0-3.8-1.5-5.8-4.4l-3.9-6C32,11.5,30.6,10.3,28.6,10.3"/>
<path fill="#B5B5B5" d="M52.4,14.6L49,15.3l-1.5-3.4c0,0-1.4,4.1-3.5,7.1c-2.1,2.9-3.9,4.7-6.1,4.7c0,0,3.1,0,5.1,0
	c2,0,3.6-1.5,5.1-3.1C50.3,18,52.4,14.6,52.4,14.6z"/>
<path fill="#B5B5B5" d="M15.1,19.3l3.7-6c1.2-1.8,2.6-3,4.6-3s5.1,0,5.1,0c-2.2,0-3.8,1.4-5.8,4.4l-3.7,6c-1.2,1.8-2.6,3-4.6,3
	s-5.1,0-5.1,0C11.5,23.7,13.1,22.2,15.1,19.3z"/>
</svg>
