<?xml version="1.0" encoding="utf-8"?>
<!-- Generator: Adobe Illustrator 18.1.1, SVG Export Plug-In . SVG Version: 6.00 Build 0)  -->
<!DOCTYPE svg PUBLIC "-//W3C//DTD SVG 1.1//EN" "http://www.w3.org/Graphics/SVG/1.1/DTD/svg11.dtd">
<svg version="1.1" id="Layer_1" xmlns="http://www.w3.org/2000/svg" xmlns:xlink="http://www.w3.org/1999/xlink" x="0px" y="0px"
	 viewBox="200 100 400 400" enable-background="new 200 100 400 400" xml:space="preserve">
<g>
	<g>
		<g>
			<rect x="468.7" y="264.8" fill="#F26A26" width="107.5" height="12.3"/>
		</g>
		<g>
			<rect x="468.7" y="247.1" fill="#F26A26" width="107.5" height="12.3"/>
		</g>
		<g>
			<rect x="468.7" y="229.5" fill="#F26A26" width="107.5" height="12.3"/>
		</g>
		<g>
			<rect x="468.7" y="211.9" fill="#F26A26" width="107.5" height="12.3"/>
		</g>
		<g>
			<rect x="468.7" y="194.3" fill="#F26A26" width="107.5" height="12.3"/>
		</g>
		<g>
			<rect x="468.7" y="282.4" fill="#F26A26" width="107.5" height="12.3"/>
		</g>
		<g>
			<path fill="#707070" d="M403.5,485h-8.8v-17.6h8.8V485z M403.5,449.8h-8.8v-17.6h8.8V449.8z M403.5,414.5h-8.8v-17.6h8.8V414.5z
				 M403.5,379.3h-8.8v-17.6h8.8V379.3z M403.5,344.1h-8.8v-17.6h8.8V344.1z M403.5,308.8h-8.8v-17.6h8.8V308.8z M403.5,273.6h-8.8
				v-17.6h8.8V273.6z M403.5,238.3h-8.8v-17.6h8.8V238.3z M403.5,203.1h-8.8v-17.6h8.8V203.1z M403.5,167.8h-8.8v-17.6h8.8V167.8z
				 M403.5,132.6h-8.8V115h8.8V132.6z"/>
		</g>
	</g>
</g>
</svg>
