<?xml version="1.0" encoding="utf-8"?>
<!-- Generator: Adobe Illustrator 18.1.1, SVG Export Plug-In . SVG Version: 6.00 Build 0)  -->
<!DOCTYPE svg PUBLIC "-//W3C//DTD SVG 1.1//EN" "http://www.w3.org/Graphics/SVG/1.1/DTD/svg11.dtd">
<svg version="1.1" id="Layer_1" xmlns="http://www.w3.org/2000/svg" xmlns:xlink="http://www.w3.org/1999/xlink" x="0px" y="0px"
	 viewBox="0 0 68 34" enable-background="new 0 0 68 34" xml:space="preserve">
<path fill="#EBEBEB" d="M61.9,32.2H6c-1.8,0-3.2-1.4-3.2-3.2V5c0-1.8,1.4-3.2,3.2-3.2h55.9c1.8,0,3.3,1.5,3.3,3.3v23.6
	C65.2,30.7,63.7,32.2,61.9,32.2z"/>
<path fill="none" stroke="#AFAFAF" stroke-width="0.7" stroke-miterlimit="10" d="M2.8,10.7c0,0,5.6,0,13,0s5.6,13.6,13.4,13.6
	s1.8,0,9,0s6.5-13.6,14-13.6s13,0,13,0"/>
<path fill="none" stroke="#AFAFAF" stroke-width="0.7" stroke-miterlimit="10" d="M2.8,9.7c0,0,5.6,0,13,0s5.6,13.6,13.4,13.6
	s1.8,0,9,0s6.5-13.6,14-13.6s13,0,13,0"/>
<path fill="none" stroke="#AFAFAF" stroke-width="0.7" stroke-miterlimit="10" d="M2.8,11.7c0,0,5.6,0,13,0s5.6,13.6,13.4,13.6
	s1.8,0,9,0s6.5-10.6,14-10.6s13,0,13,0"/>
<path fill="none" stroke="#AFAFAF" stroke-width="0.7" stroke-miterlimit="10" d="M2.8,12.7c0,0,5.6,0,13,0s5.6,13.6,13.4,13.6
	s1.8,0,9,0s6.5-10.6,14-10.6s13,0,13,0"/>
</svg>
