<?xml version="1.0" encoding="utf-8"?>
<!-- Generator: Adobe Illustrator 18.1.1, SVG Export Plug-In . SVG Version: 6.00 Build 0)  -->
<!DOCTYPE svg PUBLIC "-//W3C//DTD SVG 1.1//EN" "http://www.w3.org/Graphics/SVG/1.1/DTD/svg11.dtd">
<svg version="1.1" id="Layer_1" xmlns="http://www.w3.org/2000/svg" xmlns:xlink="http://www.w3.org/1999/xlink" x="0px" y="0px"
	 viewBox="32.9 116.5 734.1 368.2" enable-background="new 32.9 116.5 734.1 368.2" xml:space="preserve">
<g>
	<g>
		<path fill="#F26A26" d="M449.4,390.6H343.5c-49.4,0-67.1-42.4-84.7-84.7c-16.5-38.8-31.8-76.5-72.9-76.5H32.9v-8.2h152.9
			c45.9,0,63.5,41.2,80,81.2c17.6,41.2,34.1,78.8,77.6,78.8h105.9c40,0,57.6-37.6,77.6-76.5c20-41.2,41.2-83.5,87.1-83.5h152.9v8.2
			H614.1c-41.2,0-60,38.8-80,78.8C514.1,349.4,494.1,390.6,449.4,390.6z"/>
	</g>
	<g>
		<path fill="#F26A26" d="M449.4,378.8H343.5c-49.4,0-67.1-42.4-84.7-84.7c-16.5-38.8-31.8-76.5-72.9-76.5H32.9v-7.1h152.9
			c45.9,0,63.5,41.2,80,81.2c17.6,41.2,34.1,78.8,77.6,78.8h105.9c40,0,57.6-37.6,77.6-76.5c20-41.2,41.2-83.5,87.1-83.5h152.9v8.2
			H614.1c-41.2,0-60,38.8-80,78.8C514.1,337.6,494.1,378.8,449.4,378.8z"/>
	</g>
	<g>
		<path fill="#F26A26" d="M449.4,402.4H343.5c-49.4,0-67.1-42.4-84.7-84.7c-16.5-38.8-31.8-76.5-72.9-76.5H32.9v-8.2h152.9
			c45.9,0,63.5,41.2,80,81.2c17.6,41.2,34.1,78.8,77.6,78.8h105.9c40,0,58.8-29.4,77.6-60c20-31.8,41.2-64.7,87.1-64.7h152.9v8.2
			H614.1c-42.4,0-61.2,29.4-80,61.2C514.1,370.6,494.1,402.4,449.4,402.4z"/>
	</g>
	<g>
		<path fill="#F26A26" d="M449.4,414.1H343.5c-49.4,0-67.1-42.4-84.7-84.7c-16.5-38.8-31.8-76.5-72.9-76.5H32.9v-8.2h152.9
			c45.9,0,63.5,41.2,80,81.2c17.6,41.2,34.1,78.8,77.6,78.8h105.9c40,0,58.8-29.4,77.6-60c20-31.8,41.2-64.7,87.1-64.7h152.9v8.2
			H614.1c-42.4,0-61.2,29.4-80,61.2C514.1,382.4,494.1,414.1,449.4,414.1z"/>
	</g>
</g>
</svg>
