<?xml version="1.0" encoding="utf-8"?>
<!-- Generator: Adobe Illustrator 18.1.1, SVG Export Plug-In . SVG Version: 6.00 Build 0)  -->
<!DOCTYPE svg PUBLIC "-//W3C//DTD SVG 1.1//EN" "http://www.w3.org/Graphics/SVG/1.1/DTD/svg11.dtd">
<svg version="1.1" id="Layer_1" xmlns="http://www.w3.org/2000/svg" xmlns:xlink="http://www.w3.org/1999/xlink" x="0px" y="0px"
	 viewBox="0 0 68 34" enable-background="new 0 0 68 34" xml:space="preserve">
<g>
	<path fill="#EBEBEB" d="M61.9,32.2H6c-1.8,0-3.2-1.4-3.2-3.2V5c0-1.8,1.4-3.2,3.2-3.2h55.9c1.8,0,3.3,1.5,3.3,3.3v23.6
		C65.2,30.7,63.7,32.2,61.9,32.2z"/>
	<path fill="none" stroke="#AFAFAF" stroke-width="0.7" stroke-miterlimit="10" d="M50.2,10.7c7.5,0,15,0,15,0"/>
	<path fill="none" stroke="#AFAFAF" stroke-width="0.7" stroke-miterlimit="10" d="M26.2,24.4c7.8,0,7.8,0,15,0"/>
	<path fill="none" stroke="#AFAFAF" stroke-width="0.7" stroke-miterlimit="10" d="M2.8,11.7c0,0,7.6,0,15,0"/>
	<path fill="none" stroke="#AFAFAF" stroke-width="0.7" stroke-miterlimit="10" d="M50.2,9.7c7.5,0,15,0,15,0"/>
	<path fill="none" stroke="#AFAFAF" stroke-width="0.7" stroke-miterlimit="10" d="M26.2,23.4c7.8,0,7.8,0,15,0"/>
	<path fill="none" stroke="#AFAFAF" stroke-width="0.7" stroke-miterlimit="10" d="M2.8,9.7c0,0,7.6,0,15,0"/>
	<path fill="none" stroke="#AFAFAF" stroke-width="0.7" stroke-miterlimit="10" d="M50.2,14.7c7.5,0,15,0,15,0"/>
	<path fill="none" stroke="#AFAFAF" stroke-width="0.7" stroke-miterlimit="10" d="M26.2,25.4c7.8,0,7.8,0,15,0"/>
	<path fill="none" stroke="#AFAFAF" stroke-width="0.7" stroke-miterlimit="10" d="M2.8,12.7c0,0,7.6,0,15,0"/>
	<path fill="none" stroke="#AFAFAF" stroke-width="0.7" stroke-miterlimit="10" d="M50.2,15.7c7.5,0,5.4,0,15,0"/>
	<path fill="none" stroke="#AFAFAF" stroke-width="0.7" stroke-miterlimit="10" d="M26.2,26.4c7.8,0,7.8,0,15,0"/>
	<path fill="none" stroke="#AFAFAF" stroke-width="0.7" stroke-miterlimit="10" d="M2.8,10.7c9.7,0,7.5,0,15,0"/>
</g>
</svg>
