<?xml version="1.0" encoding="utf-8"?>
<!-- Generator: Adobe Illustrator 18.1.1, SVG Export Plug-In . SVG Version: 6.00 Build 0)  -->
<!DOCTYPE svg PUBLIC "-//W3C//DTD SVG 1.1//EN" "http://www.w3.org/Graphics/SVG/1.1/DTD/svg11.dtd">
<svg version="1.1" id="Layer_1" xmlns="http://www.w3.org/2000/svg" xmlns:xlink="http://www.w3.org/1999/xlink" x="0px" y="0px"
	 viewBox="0 0 73.7 59.5" enable-background="new 0 0 73.7 59.5" xml:space="preserve">
<g>
	<path fill="#066CFF" d="M72.4,1h-71C1.2,1,1.1,1.1,1.1,1.3v57c0,0.2,0.1,0.3,0.3,0.3h71c0.2,0,0.3-0.1,0.3-0.3v-57
		C72.7,1.1,72.5,1,72.4,1z M2.7,57V2.6h68.4V57H2.7z"/>
	<g>
		<g>
			<path fill="#066CFF" d="M45.1,49.6H28.1c-3.8,0-4.8-8.2-5.9-17c-1-8-2-17.1-5.4-17.1H2.4v-1h14.5c4.2,0,5.3,8.7,6.4,17.9
				c0.9,7.5,1.9,16.1,4.9,16.1h17.1c3,0,4.2-6.1,5.3-11.9c1.3-6.3,2.4-12.2,5.9-12.2h14.9v1H56.4c-2.7,0-3.8,5.8-5,11.4
				C50.1,43.5,48.9,49.6,45.1,49.6z"/>
		</g>
	</g>
</g>
</svg>
