<?xml version="1.0" encoding="utf-8"?>
<!-- Generator: Adobe Illustrator 18.1.0, SVG Export Plug-In . SVG Version: 6.00 Build 0)  -->
<!DOCTYPE svg PUBLIC "-//W3C//DTD SVG 1.1//EN" "http://www.w3.org/Graphics/SVG/1.1/DTD/svg11.dtd">
<svg version="1.1" id="Layer_1" xmlns="http://www.w3.org/2000/svg" xmlns:xlink="http://www.w3.org/1999/xlink" x="0px" y="0px"
	 viewBox="0 0 841.9 595.3" enable-background="new 0 0 841.9 595.3" xml:space="preserve">
<g>
	<g>
		<rect x="333.4" y="466.2" fill="#066CFF" width="171.1" height="10"/>
		<rect x="76.3" y="126.1" fill="#066CFF" width="145.1" height="10"/>
		<rect x="616.5" y="225.1" fill="#066CFF" width="149.1" height="10"/>
	</g>
</g>
<line fill="none" stroke="#707070" stroke-width="14" stroke-miterlimit="10" stroke-dasharray="25" x1="419" y1="75.3" x2="419" y2="542.3"/>
<g>
	<defs>
		<rect id="SVGID_1_" x="34" y="75.3" width="385" height="479"/>
	</defs>
	<clipPath id="SVGID_2_">
		<use xlink:href="#SVGID_1_"  overflow="visible"/>
	</clipPath>
	<g clip-path="url(#SVGID_2_)">
		<path fill="#066CFF" d="M502.5,477.2H332.4c-38,0-48-82-59-170.1c-10-80-20-171.1-54-171.1H75.3v-10h145.1c42,0,53,87,64,179.1
			c9,75,19,161.1,49,161.1h171.1c30,0,42-61,53-119.1c13-63,24-122.1,59-122.1h149.1v10H615.5c-27,0-38,58-50,114.1
			C552.5,416.2,540.5,477.2,502.5,477.2z"/>
	</g>
</g>
</svg>
