<?xml version="1.0" encoding="utf-8"?>
<!-- Generator: Adobe Illustrator 18.1.1, SVG Export Plug-In . SVG Version: 6.00 Build 0)  -->
<!DOCTYPE svg PUBLIC "-//W3C//DTD SVG 1.1//EN" "http://www.w3.org/Graphics/SVG/1.1/DTD/svg11.dtd">
<svg version="1.1" id="Layer_1" xmlns="http://www.w3.org/2000/svg" xmlns:xlink="http://www.w3.org/1999/xlink" x="0px" y="0px"
	 viewBox="0 0 34 22.7" enable-background="new 0 0 34 22.7" xml:space="preserve">
<rect x="65.5" y="649.4" fill="none" stroke="#B5B5B5" stroke-width="0.9405" stroke-miterlimit="10" width="20.1" height="12.8"/>
<rect x="65.6" y="649.4" opacity="0.33" fill="#B5B5B5" width="20.1" height="3.2"/>
<rect x="65.6" y="655.7" opacity="0.33" fill="#B5B5B5" width="20.1" height="3.2"/>
<g>
	<circle fill="#D8D8D8" cx="17" cy="11.3" r="9.1"/>
	<path fill="#FFFFFF" d="M15.8,13.5c0-2.2,2.5-2.5,2.5-4.1c0-0.7-0.6-1.2-1.5-1.2c-0.9,0-1.6,0.6-1.6,0.6l-1.1-1.3
		c0,0,1-1.1,2.8-1.1c1.7,0,3.3,1,3.3,2.8c0,2.5-2.6,2.8-2.6,4.4v0.6h-1.8V13.5z M15.8,15.5h1.8v1.8h-1.8V15.5z"/>
</g>
</svg>
