<?xml version="1.0" encoding="utf-8"?>
<!-- Generator: Adobe Illustrator 18.1.1, SVG Export Plug-In . SVG Version: 6.00 Build 0)  -->
<!DOCTYPE svg PUBLIC "-//W3C//DTD SVG 1.1//EN" "http://www.w3.org/Graphics/SVG/1.1/DTD/svg11.dtd">
<svg version="1.1" id="Layer_1" xmlns="http://www.w3.org/2000/svg" xmlns:xlink="http://www.w3.org/1999/xlink" x="0px" y="0px"
	 viewBox="0 0 34 22.7" enable-background="new 0 0 34 22.7" xml:space="preserve">
<g>
	<rect x="8.2" y="9.6" fill="#707070" width="0.9" height="0.5"/>
	<rect x="10.1" y="9.6" fill="#707070" width="0.9" height="0.5"/>
	<rect x="12" y="9.6" fill="#707070" width="0.9" height="0.5"/>
	<rect x="13.8" y="9.6" fill="#707070" width="0.5" height="0.5"/>
	<path fill="#707070" d="M5.7,8.7C5,8.7,4.5,9.2,4.5,9.8S5,11,5.7,11c0.6,0,1-0.4,1.1-0.9h0.5V9.6H6.8C6.7,9.1,6.2,8.7,5.7,8.7z
		 M5.7,10.5C5.3,10.5,5,10.2,5,9.8s0.3-0.7,0.7-0.7s0.7,0.3,0.7,0.7S6.1,10.5,5.7,10.5z"/>
</g>
<g>
	<rect x="19.6" y="9.6" fill="#707070" width="0.5" height="0.5"/>
	<rect x="22.9" y="9.6" fill="#707070" width="0.9" height="0.5"/>
	<rect x="21" y="9.6" fill="#707070" width="0.9" height="0.5"/>
	<rect x="24.8" y="9.6" fill="#707070" width="0.9" height="0.5"/>
	<path fill="#707070" d="M28.3,8.7c-0.6,0-1,0.4-1.1,0.9h-0.5v0.5h0.5c0.1,0.5,0.6,0.9,1.1,0.9c0.7,0,1.2-0.5,1.2-1.2
		S28.9,8.7,28.3,8.7z M28.3,10.5c-0.4,0-0.7-0.3-0.7-0.7s0.3-0.7,0.7-0.7s0.7,0.3,0.7,0.7S28.6,10.5,28.3,10.5z"/>
</g>
<g>
	<path fill="#F26A26" d="M23.5,19.4c-1.4-7.4-3.2-9-4.5-9h-4.2c-1.2,0-2.9,1.5-4.4,8.6l-1-0.2c0.8-4,2.3-9.4,5.4-9.4h4.2
		c2.4,0,4.2,3.2,5.4,9.8L23.5,19.4z"/>
</g>
</svg>
