<?xml version="1.0" encoding="utf-8"?>
<!-- Generator: Adobe Illustrator 18.1.1, SVG Export Plug-In . SVG Version: 6.00 Build 0)  -->
<!DOCTYPE svg PUBLIC "-//W3C//DTD SVG 1.1//EN" "http://www.w3.org/Graphics/SVG/1.1/DTD/svg11.dtd">
<svg version="1.1" id="Layer_1" xmlns="http://www.w3.org/2000/svg" xmlns:xlink="http://www.w3.org/1999/xlink" x="0px" y="0px"
	 viewBox="0 0 34 22.7" enable-background="new 0 0 34 22.7" xml:space="preserve">
<polygon fill="#707070" points="20.4,4.6 20,5 20.9,5.8 13.2,5.8 14,5 13.6,4.6 12.2,6.1 13.6,7.5 14,7.2 13.2,6.3 20.9,6.3 20,7.2 
	20.4,7.5 21.8,6.1 "/>
<g>
	<path fill="#F26A26" d="M23.5,19.4c-1.4-7.4-3.2-9-4.5-9h-4.2c-1.2,0-2.9,1.5-4.4,8.6l-1-0.2c0.8-4,2.3-9.4,5.4-9.4h4.2
		c2.4,0,4.2,3.2,5.4,9.8L23.5,19.4z"/>
</g>
</svg>
