<?xml version="1.0" encoding="utf-8"?>
<!-- Generator: Adobe Illustrator 18.1.1, SVG Export Plug-In . SVG Version: 6.00 Build 0)  -->
<!DOCTYPE svg PUBLIC "-//W3C//DTD SVG 1.1//EN" "http://www.w3.org/Graphics/SVG/1.1/DTD/svg11.dtd">
<svg version="1.1" id="Layer_1" xmlns="http://www.w3.org/2000/svg" xmlns:xlink="http://www.w3.org/1999/xlink" x="0px" y="0px"
	 viewBox="0 0 153 36.1" enable-background="new 0 0 153 36.1" xml:space="preserve">
<g>
	<path fill="#066CFF" d="M75.3,18.1c0,0,0,0.1,0,0.3c0,0.2,0,0.4,0,0.7c0,0.6,0,1.4,0,2.2c0,0.8,0,1.6,0,2.2c0,0.3,0,0.5,0,0.7
		c0,0.2,0,0.3,0,0.3c0,0.1-0.1,0.3-0.2,0.3c-0.1,0-0.3-0.1-0.3-0.2c0,0,0,0,0-0.1c0,0,0-0.1,0-0.3c0-0.2,0-0.4,0-0.7
		c0-0.6,0-1.4,0-2.2c0-0.8,0-1.6,0-2.2c0-0.3,0-0.5,0-0.7c0-0.2,0-0.3,0-0.3c0-0.1,0.1-0.2,0.2-0.3C75.2,17.8,75.3,17.9,75.3,18.1
		C75.3,18,75.3,18,75.3,18.1z"/>
	<path fill="#066CFF" d="M75.3,28.6c0,0,0,0.1,0,0.3c0,0.2,0,0.4,0,0.7c0,0.6,0,1.4,0,2.2c0,0.8,0,1.6,0,2.2c0,0.3,0,0.5,0,0.7
		c0,0.2,0,0.3,0,0.3c0,0.1-0.1,0.3-0.2,0.3c-0.1,0-0.3-0.1-0.3-0.2c0,0,0,0,0-0.1c0,0,0-0.1,0-0.3c0-0.2,0-0.4,0-0.7
		c0-0.6,0-1.4,0-2.2c0-0.8,0-1.6,0-2.2c0-0.3,0-0.5,0-0.7c0-0.2,0-0.3,0-0.3c0-0.1,0.1-0.2,0.2-0.3S75.3,28.4,75.3,28.6
		C75.3,28.5,75.3,28.5,75.3,28.6z"/>
	<path fill="#066CFF" d="M66.1,23.5c0,0-0.1,0-0.2,0.1c-0.2,0.1-0.4,0.2-0.6,0.3c-0.5,0.3-1.2,0.7-1.9,1.1c-0.7,0.4-1.4,0.8-1.9,1.1
		c-0.3,0.1-0.5,0.3-0.6,0.4c-0.1,0.1-0.2,0.2-0.2,0.2c-0.1,0.1-0.3,0.1-0.3,0c-0.1-0.1-0.1-0.3,0-0.3c0,0,0,0,0.1,0
		c0,0,0.1,0,0.2-0.1c0.2-0.1,0.4-0.2,0.6-0.3c0.5-0.3,1.2-0.7,1.9-1.1c0.7-0.4,1.4-0.8,1.9-1.1c0.3-0.1,0.5-0.3,0.6-0.4
		c0.1-0.1,0.2-0.2,0.2-0.2c0.1-0.1,0.2-0.1,0.3,0C66.3,23.2,66.3,23.4,66.1,23.5C66.2,23.5,66.1,23.5,66.1,23.5z"/>
	<path fill="#066CFF" d="M65.9,13c0,0-0.1-0.1-0.2-0.2c-0.1-0.1-0.4-0.2-0.6-0.4c-0.5-0.3-1.2-0.7-1.9-1.1c-0.7-0.4-1.4-0.8-1.9-1.1
		c-0.3-0.1-0.5-0.3-0.6-0.3c-0.2-0.1-0.2-0.1-0.2-0.1c-0.1-0.1-0.2-0.2-0.1-0.3c0.1-0.1,0.2-0.2,0.3-0.1c0,0,0,0,0.1,0
		c0,0,0.1,0.1,0.2,0.2c0.1,0.1,0.4,0.2,0.6,0.4c0.5,0.3,1.2,0.7,1.9,1.1c0.7,0.4,1.4,0.8,1.9,1.1c0.3,0.1,0.5,0.3,0.6,0.3
		c0.2,0.1,0.2,0.1,0.2,0.1c0.1,0,0.2,0.2,0.1,0.3C66.2,13,66.1,13.1,65.9,13C65.9,13,65.9,13,65.9,13z"/>
	<path fill="#066CFF" d="M74.9,7.5c0,0,0-0.1,0-0.3c0-0.2,0-0.4,0-0.7c0-0.6,0-1.4,0-2.2c0-0.8,0-1.6,0-2.2c0-0.3,0-0.5,0-0.7
		c0-0.2,0-0.3,0-0.3c0-0.1,0.1-0.3,0.2-0.3c0.1,0,0.3,0.1,0.3,0.2c0,0,0,0,0,0.1c0,0,0,0.1,0,0.3c0,0.2,0,0.4,0,0.7
		c0,0.6,0,1.4,0,2.2c0,0.8,0,1.6,0,2.2c0,0.3,0,0.5,0,0.7c0,0.2,0,0.3,0,0.3c0,0.1-0.1,0.2-0.2,0.3C75,7.8,74.9,7.7,74.9,7.5
		C74.9,7.6,74.9,7.6,74.9,7.5z"/>
	<path fill="#066CFF" d="M84.1,12.6c0,0,0.1,0,0.2-0.1c0.2-0.1,0.4-0.2,0.6-0.3c0.5-0.3,1.2-0.7,1.9-1.1c0.7-0.4,1.4-0.8,1.9-1.1
		c0.3-0.1,0.5-0.3,0.6-0.4c0.1-0.1,0.2-0.2,0.2-0.2c0.1-0.1,0.3-0.1,0.3,0s0.1,0.3,0,0.3c0,0,0,0-0.1,0c0,0-0.1,0-0.2,0.1
		c-0.2,0.1-0.4,0.2-0.6,0.3c-0.5,0.3-1.2,0.7-1.9,1.1c-0.7,0.4-1.4,0.8-1.9,1.1c-0.3,0.1-0.5,0.3-0.6,0.4c-0.1,0.1-0.2,0.2-0.2,0.2
		c-0.1,0.1-0.2,0.1-0.3,0C83.9,12.9,83.9,12.7,84.1,12.6C84.1,12.6,84.1,12.6,84.1,12.6z"/>
	<path fill="#066CFF" d="M84.3,23.1c0,0,0.1,0.1,0.2,0.2c0.1,0.1,0.4,0.2,0.6,0.4c0.5,0.3,1.2,0.7,1.9,1.1c0.7,0.4,1.4,0.8,1.9,1.1
		c0.3,0.1,0.5,0.3,0.6,0.3c0.2,0.1,0.2,0.1,0.2,0.1c0.1,0.1,0.2,0.2,0.1,0.3c-0.1,0.1-0.2,0.2-0.3,0.1c0,0,0,0-0.1,0
		c0,0-0.1-0.1-0.2-0.2c-0.1-0.1-0.4-0.2-0.6-0.4c-0.5-0.3-1.2-0.7-1.9-1.1c-0.7-0.4-1.4-0.8-1.9-1.1c-0.3-0.1-0.5-0.3-0.6-0.3
		c-0.2-0.1-0.2-0.1-0.2-0.1c-0.1,0-0.2-0.2-0.1-0.3C84,23.1,84.2,23,84.3,23.1C84.3,23.1,84.3,23.1,84.3,23.1z"/>
	<path fill="#066CFF" d="M75,18.3c-0.2-0.1-0.4-0.3-0.7-0.4c-0.2-0.1-0.4-0.3-0.7-0.4l-1.4-0.8l-2.7-1.6c-0.1,0-0.1-0.2-0.1-0.2
		c0,0,0-0.1,0.1-0.1l2.7-1.6l1.4-0.8c0.2-0.1,0.4-0.3,0.7-0.4c0.2-0.1,0.4-0.3,0.7-0.4c0.1-0.1,0.3,0,0.3,0.1c0.1,0.1,0,0.3-0.1,0.3
		c0,0,0,0,0,0c-0.2,0.1-0.5,0.2-0.7,0.4c-0.2,0.1-0.5,0.3-0.7,0.4l-1.4,0.8l-2.7,1.6l0-0.3l2.7,1.6l1.4,0.8c0.2,0.1,0.5,0.3,0.7,0.4
		c0.2,0.1,0.5,0.2,0.7,0.4c0.1,0.1,0.2,0.2,0.1,0.3C75.3,18.3,75.1,18.3,75,18.3C75,18.3,75,18.3,75,18.3z"/>
	<path fill="#066CFF" d="M75.2,18.3c0,0-0.1,0-0.2,0.1c-0.2,0.1-0.4,0.2-0.6,0.3c-0.5,0.3-1.2,0.7-1.9,1.1c-0.7,0.4-1.3,0.8-1.9,1.1
		c-0.3,0.1-0.5,0.3-0.6,0.4c-0.1,0.1-0.2,0.2-0.2,0.2c-0.1,0.1-0.3,0.1-0.3,0c-0.1-0.1-0.1-0.3,0-0.3c0,0,0,0,0.1,0
		c0,0,0.1,0,0.2-0.1c0.2-0.1,0.4-0.2,0.6-0.3c0.5-0.3,1.2-0.7,1.9-1.1c0.7-0.4,1.4-0.8,1.9-1.1c0.3-0.1,0.5-0.3,0.6-0.4
		c0.1-0.1,0.2-0.2,0.2-0.2c0.1-0.1,0.2-0.1,0.3,0C75.4,18,75.4,18.1,75.2,18.3C75.3,18.2,75.2,18.2,75.2,18.3z"/>
	<path fill="#066CFF" d="M75,17.9c0.5-0.2,0.9-0.5,1.4-0.7c0.5-0.3,0.9-0.5,1.4-0.8l2.7-1.6c0.1-0.1,0.2,0,0.2,0.1c0,0,0,0.1,0,0.1
		l0,6.3c0,0.1-0.1,0.2-0.2,0.2c0,0-0.1,0-0.1,0l-2.7-1.6c-0.9-0.5-1.8-1-2.7-1.5c-0.1-0.1-0.2-0.2-0.1-0.3c0.1-0.1,0.2-0.2,0.3-0.1
		c0,0,0,0,0,0c0.9,0.6,1.8,1.1,2.7,1.6l2.7,1.6l-0.3,0.2l0-6.3l0.3,0.2l-2.7,1.6c-0.5,0.3-0.9,0.5-1.4,0.8c-0.4,0.3-0.9,0.5-1.3,0.8
		c-0.1,0.1-0.2,0-0.3-0.1C74.8,18.1,74.9,17.9,75,17.9C75,17.9,75,17.9,75,17.9z"/>
	<g>
		<path fill="#066CFF" d="M2.2,19.3c0,1.5,1.2,2.4,3.1,2.4c2,0,3.1-0.9,3.1-2.3c0-3.4-7.2-0.9-7.2-5.2c0-1.8,1.6-3.2,4.1-3.2
			c2.4,0,4,1.1,4,3.1H8.1c0-1.4-1.2-2.2-2.9-2.2c-1.6,0-2.9,0.8-2.9,2.1c0,3.3,7.2,0.7,7.2,5.3c0,2-1.6,3.3-4.3,3.3
			c-2.7,0-4.3-1.3-4.3-3.3H2.2z"/>
		<path fill="#066CFF" d="M15,14.3c1.9,0,3.1,1.2,3.4,2.8h-1.1c-0.2-1.1-1-1.9-2.3-1.9c-1.4,0-2.6,1.3-2.6,3.2
			c0,1.9,1.1,3.2,2.6,3.2c1.3,0,2-0.8,2.3-1.9h1.1c-0.2,1.7-1.5,2.8-3.4,2.8c-2.3,0-3.7-1.7-3.7-4.2C11.3,15.9,12.9,14.3,15,14.3z"
			/>
		<path fill="#066CFF" d="M20.3,10.4h1.2V12h-1.2V10.4z M20.3,14.5h1.1v8.1h-1.1V14.5z"/>
		<path fill="#066CFF" d="M27.2,14.3c2,0,3.5,1.4,3.5,3.8v0.5h-6c0,1.9,1,3.2,2.6,3.2c1.3,0,2-0.7,2.2-1.6h1.1
			c-0.2,1.5-1.5,2.6-3.3,2.6c-2.4,0-3.8-1.7-3.8-4.2C23.5,16,25.1,14.3,27.2,14.3z M24.7,17.7h4.8c-0.1-1.7-1-2.5-2.3-2.5
			C25.9,15.2,24.9,16.2,24.7,17.7z"/>
		<path fill="#066CFF" d="M32.6,14.5h1.1v1.3h0c0.5-1,1.5-1.5,2.6-1.5c1.6,0,2.9,0.9,2.9,3.3v4.9h-1.1v-4.8c0-1.8-0.8-2.5-2-2.5
			c-1.3,0-2.4,1.1-2.4,3.1v4.2h-1.1V14.5z"/>
		<path fill="#066CFF" d="M44.9,14.3c1.9,0,3.1,1.2,3.4,2.8h-1.1c-0.2-1.1-1-1.9-2.3-1.9c-1.4,0-2.6,1.3-2.6,3.2
			c0,1.9,1.1,3.2,2.6,3.2c1.3,0,2-0.8,2.3-1.9h1.1c-0.2,1.7-1.5,2.8-3.4,2.8c-2.3,0-3.7-1.7-3.7-4.2C41.2,15.9,42.8,14.3,44.9,14.3z
			"/>
		<path fill="#066CFF" d="M53.5,14.3c2,0,3.5,1.4,3.5,3.8v0.5h-6c0,1.9,1,3.2,2.6,3.2c1.3,0,2-0.7,2.2-1.6h1.1
			c-0.2,1.5-1.5,2.6-3.3,2.6c-2.4,0-3.8-1.7-3.8-4.2C49.8,16,51.4,14.3,53.5,14.3z M51.1,17.7h4.8c-0.1-1.7-1-2.5-2.3-2.5
			C52.3,15.2,51.3,16.2,51.1,17.7z"/>
		<path fill="#066CFF" d="M95.3,11.2h4.2c2.5,0,3.9,1.5,3.9,3.6s-1.4,3.7-3.9,3.7h-3v4.1h-1.2V11.2z M96.4,12.2v5.2h3.1
			c1.8,0,2.7-1.2,2.7-2.6c0-1.5-0.9-2.5-2.7-2.5H96.4z"/>
		<path fill="#066CFF" d="M105.3,14.5h1.1v1.3h0c0.4-0.9,1.1-1.5,2.2-1.5c0.3,0,0.7,0,1.1,0.3l-0.4,1c-0.4-0.2-0.7-0.3-1-0.3
			c-1.3,0-1.9,1.4-1.9,2.9v4.3h-1.1V14.5z"/>
		<path fill="#066CFF" d="M112.9,18.1l1.7-0.3c0.8-0.1,1.1-0.3,1.1-0.7c0-1.2-0.7-1.9-1.9-1.9c-1.3,0-2,0.7-2.1,1.8h-1.1
			c0.1-1.6,1.2-2.7,3.2-2.7c2,0,3,1.1,3,2.9v5.3h-1.1v-1.3h0c-0.5,0.9-1.5,1.5-2.7,1.5c-1.7,0-2.6-0.9-2.6-2.2
			C110.3,19.2,111.1,18.4,112.9,18.1z M115.7,18.2c-0.2,0.2-0.5,0.3-0.9,0.4l-1.7,0.3c-1.1,0.2-1.6,0.7-1.6,1.5
			c0,0.8,0.6,1.4,1.7,1.4c1.4,0,2.6-0.8,2.6-2.7V18.2z"/>
		<path fill="#066CFF" d="M122.4,14.3c1.9,0,3.1,1.2,3.4,2.8h-1.1c-0.2-1.1-1-1.9-2.3-1.9c-1.4,0-2.6,1.3-2.6,3.2
			c0,1.9,1.1,3.2,2.6,3.2c1.3,0,2-0.8,2.3-1.9h1.1c-0.2,1.7-1.5,2.8-3.4,2.8c-2.3,0-3.7-1.7-3.7-4.2
			C118.7,15.9,120.3,14.3,122.4,14.3z"/>
		<path fill="#066CFF" d="M128.1,15.4h-1.6v-0.9h1.6V12h1.1v2.4h2.2v0.9h-2.2v4.8c0,1,0.4,1.4,1.3,1.4h0.9v1h-1.1
			c-1.5,0-2.3-0.7-2.3-2.3V15.4z"/>
		<path fill="#066CFF" d="M133,10.4h1.2V12H133V10.4z M133.1,14.5h1.1v8.1h-1.1V14.5z"/>
		<path fill="#066CFF" d="M140,14.3c1.9,0,3.1,1.2,3.4,2.8h-1.1c-0.2-1.1-1-1.9-2.3-1.9c-1.4,0-2.6,1.3-2.6,3.2
			c0,1.9,1.1,3.2,2.6,3.2c1.3,0,2-0.8,2.3-1.9h1.1c-0.2,1.7-1.5,2.8-3.4,2.8c-2.3,0-3.7-1.7-3.7-4.2C136.2,15.9,137.9,14.3,140,14.3
			z"/>
		<path fill="#066CFF" d="M148.6,14.3c2,0,3.5,1.4,3.5,3.8v0.5h-6c0,1.9,1,3.2,2.6,3.2c1.3,0,2-0.7,2.2-1.6h1.1
			c-0.2,1.5-1.5,2.6-3.3,2.6c-2.4,0-3.8-1.7-3.8-4.2C144.8,16,146.5,14.3,148.6,14.3z M146.1,17.7h4.8c-0.1-1.7-1-2.5-2.3-2.5
			C147.3,15.2,146.3,16.2,146.1,17.7z"/>
	</g>
</g>
</svg>
