<?xml version="1.0" encoding="utf-8"?>
<!-- Generator: Adobe Illustrator 18.1.1, SVG Export Plug-In . SVG Version: 6.00 Build 0)  -->
<!DOCTYPE svg PUBLIC "-//W3C//DTD SVG 1.1//EN" "http://www.w3.org/Graphics/SVG/1.1/DTD/svg11.dtd">
<svg version="1.1" id="Layer_1" xmlns="http://www.w3.org/2000/svg" xmlns:xlink="http://www.w3.org/1999/xlink" x="0px" y="0px"
	 viewBox="0 0 64 36" enable-background="new 0 0 64 36" xml:space="preserve">
<path fill="#FFFFFF" stroke="#066CFF" stroke-miterlimit="10" d="M62.7,34.4H4.5c-1.7,0-3.2-1.4-3.2-3.2V4.8c0-1.7,1.4-3.2,3.2-3.2
	h58.2V34.4z"/>
<g>
	<rect x="17" y="15.8" fill="none" width="6.2" height="7.3"/>
	<text transform="matrix(1 0 0 1 16.961 20.7714)" fill="#066CFF" font-family="'MuseoSans-700'" font-size="7">N</text>
	<rect x="9.4" y="15.8" fill="none" width="10.5" height="7.3"/>
	<text transform="matrix(1 0 0 1 9.3604 20.7714)" fill="#066CFF" font-family="'MuseoSans-700'" font-size="7">H</text>
	<text transform="matrix(0.583 0 0 0.583 14.7012 23.1025)" fill="#066CFF" font-family="'MuseoSans-700'" font-size="7">2</text>
	<line fill="none" stroke="#066CFF" stroke-width="0.5" stroke-miterlimit="10" x1="23.2" y1="18.5" x2="26.3" y2="18.5"/>
	<circle opacity="0.25" fill="#066CFF" cx="30.5" cy="18.5" r="4.1"/>
	<line fill="none" stroke="#066CFF" stroke-width="0.5" stroke-miterlimit="10" x1="33.2" y1="18.5" x2="36.3" y2="18.5"/>
	<circle opacity="0.25" fill="#066CFF" cx="40.5" cy="18.5" r="4.1"/>
	<line fill="none" stroke="#066CFF" stroke-width="0.5" stroke-miterlimit="10" x1="43.2" y1="18.5" x2="46.3" y2="18.5"/>
	<circle opacity="0.25" fill="#066CFF" cx="50.5" cy="18.5" r="4.1"/>
</g>
</svg>
