<?xml version="1.0" encoding="utf-8"?>
<!-- Generator: Adobe Illustrator 18.1.1, SVG Export Plug-In . SVG Version: 6.00 Build 0)  -->
<!DOCTYPE svg PUBLIC "-//W3C//DTD SVG 1.1//EN" "http://www.w3.org/Graphics/SVG/1.1/DTD/svg11.dtd">
<svg version="1.1" id="Layer_1" xmlns="http://www.w3.org/2000/svg" xmlns:xlink="http://www.w3.org/1999/xlink" x="0px" y="0px"
	 viewBox="0 0 36.9 36.9" enable-background="new 0 0 36.9 36.9" xml:space="preserve">
<g>
	<path fill="#707070" stroke="#707070" stroke-width="0.15" stroke-linejoin="round" stroke-miterlimit="10" d="M18.7,18.4
		c0,0,0,0.1,0,0.3c0,0.2,0,0.4,0,0.7c0,0.6,0,1.4,0,2.2c0,0.8,0,1.6,0,2.2c0,0.3,0,0.6,0,0.7c0,0.2,0,0.3,0,0.3
		c0,0.1-0.1,0.3-0.2,0.3c-0.1,0-0.3-0.1-0.3-0.2c0,0,0,0,0-0.1c0,0,0-0.1,0-0.3c0-0.2,0-0.4,0-0.7c0-0.6,0-1.4,0-2.2
		c0-0.8,0-1.6,0-2.2c0-0.3,0-0.6,0-0.7c0-0.2,0-0.3,0-0.3c0-0.1,0.1-0.2,0.2-0.3S18.6,18.2,18.7,18.4C18.7,18.4,18.7,18.4,18.7,18.4
		z"/>
	<path fill="#707070" stroke="#707070" stroke-width="0.15" stroke-linejoin="round" stroke-miterlimit="10" d="M18.7,29.2
		c0,0,0,0.1,0,0.3c0,0.2,0,0.4,0,0.7c0,0.6,0,1.4,0,2.2c0,0.8,0,1.6,0,2.2c0,0.3,0,0.6,0,0.7c0,0.2,0,0.3,0,0.3
		c0,0.1-0.1,0.3-0.2,0.3c-0.1,0-0.3-0.1-0.3-0.2c0,0,0,0,0-0.1c0,0,0-0.1,0-0.3c0-0.2,0-0.4,0-0.7c0-0.6,0-1.4,0-2.2
		c0-0.8,0-1.6,0-2.2c0-0.3,0-0.6,0-0.7c0-0.2,0-0.3,0-0.3c0-0.1,0.1-0.2,0.2-0.3S18.6,29,18.7,29.2C18.7,29.2,18.7,29.2,18.7,29.2z"
		/>
	<path fill="#707070" stroke="#707070" stroke-width="0.15" stroke-linejoin="round" stroke-miterlimit="10" d="M9.2,24
		c0,0-0.1,0-0.3,0.1c-0.2,0.1-0.4,0.2-0.6,0.3c-0.5,0.3-1.2,0.7-1.9,1.1C5.7,26,5,26.4,4.5,26.7C4.2,26.8,4,27,3.9,27.1
		c-0.1,0.1-0.2,0.2-0.2,0.2c-0.1,0.1-0.3,0.1-0.4,0c-0.1-0.1-0.1-0.3,0-0.4c0,0,0,0,0.1,0c0,0,0.1,0,0.3-0.1
		c0.2-0.1,0.4-0.2,0.6-0.3c0.5-0.3,1.2-0.7,1.9-1.1c0.7-0.4,1.4-0.8,1.9-1.1c0.3-0.1,0.5-0.3,0.6-0.4C8.9,23.7,9,23.6,9,23.6
		c0.1-0.1,0.2-0.1,0.3,0C9.4,23.7,9.4,23.9,9.2,24C9.3,24,9.2,24,9.2,24z"/>
	<path fill="#707070" stroke="#707070" stroke-width="0.15" stroke-linejoin="round" stroke-miterlimit="10" d="M9,13.2
		c0,0-0.1-0.1-0.2-0.2c-0.1-0.1-0.4-0.2-0.6-0.4c-0.5-0.3-1.2-0.7-1.9-1.1c-0.7-0.4-1.4-0.8-1.9-1.1c-0.3-0.1-0.5-0.3-0.6-0.3
		C3.5,10.1,3.4,10,3.4,10C3.3,10,3.2,9.8,3.3,9.7c0.1-0.1,0.2-0.2,0.3-0.1c0,0,0,0,0.1,0c0,0,0.1,0.1,0.2,0.2C4,9.9,4.2,10,4.5,10.2
		c0.5,0.3,1.2,0.7,1.9,1.1c0.7,0.4,1.4,0.8,1.9,1.1c0.3,0.2,0.5,0.3,0.6,0.3c0.2,0.1,0.3,0.1,0.3,0.1c0.1,0,0.2,0.2,0.1,0.3
		C9.3,13.3,9.2,13.3,9,13.2C9,13.3,9,13.3,9,13.2z"/>
	<path fill="#707070" stroke="#707070" stroke-width="0.15" stroke-linejoin="round" stroke-miterlimit="10" d="M18.2,7.7
		c0,0,0-0.1,0-0.3c0-0.2,0-0.4,0-0.7c0-0.6,0-1.4,0-2.2c0-0.8,0-1.6,0-2.2c0-0.3,0-0.6,0-0.7c0-0.2,0-0.3,0-0.3
		c0-0.1,0.1-0.3,0.2-0.3c0.1,0,0.3,0.1,0.3,0.2c0,0,0,0,0,0.1c0,0,0,0.1,0,0.3c0,0.2,0,0.4,0,0.7c0,0.6,0,1.4,0,2.2
		c0,0.8,0,1.6,0,2.2c0,0.3,0,0.6,0,0.7c0,0.2,0,0.3,0,0.3c0,0.1-0.1,0.2-0.2,0.3C18.3,7.9,18.2,7.9,18.2,7.7
		C18.2,7.7,18.2,7.7,18.2,7.7z"/>
	<path fill="#707070" stroke="#707070" stroke-width="0.15" stroke-linejoin="round" stroke-miterlimit="10" d="M27.6,12.8
		c0,0,0.1,0,0.3-0.1c0.2-0.1,0.4-0.2,0.6-0.3c0.5-0.3,1.2-0.7,1.9-1.1c0.7-0.4,1.4-0.8,1.9-1.1c0.3-0.2,0.5-0.3,0.6-0.4
		c0.1-0.1,0.2-0.2,0.2-0.2c0.1-0.1,0.3-0.1,0.3,0c0.1,0.1,0.1,0.3,0,0.4c0,0,0,0-0.1,0c0,0-0.1,0-0.3,0.1c-0.2,0.1-0.4,0.2-0.6,0.3
		c-0.5,0.3-1.2,0.7-1.9,1.1c-0.7,0.4-1.4,0.8-1.9,1.1c-0.3,0.1-0.5,0.3-0.6,0.4c-0.1,0.1-0.2,0.2-0.2,0.2c-0.1,0.1-0.2,0.1-0.3,0
		C27.5,13.1,27.5,13,27.6,12.8C27.6,12.9,27.6,12.8,27.6,12.8z"/>
	<path fill="#707070" stroke="#707070" stroke-width="0.15" stroke-linejoin="round" stroke-miterlimit="10" d="M27.9,23.6
		c0,0,0.1,0.1,0.2,0.2c0.1,0.1,0.4,0.2,0.6,0.4c0.5,0.3,1.2,0.7,1.9,1.1c0.7,0.4,1.4,0.8,1.9,1.1c0.3,0.1,0.5,0.3,0.6,0.3
		c0.2,0.1,0.3,0.1,0.3,0.1c0.1,0.1,0.2,0.2,0.1,0.3c-0.1,0.1-0.2,0.2-0.3,0.1c0,0,0,0-0.1,0c0,0-0.1-0.1-0.2-0.2
		c-0.1-0.1-0.4-0.2-0.6-0.4c-0.5-0.3-1.2-0.7-1.9-1.1c-0.7-0.4-1.4-0.8-1.9-1.1c-0.3-0.2-0.5-0.3-0.6-0.3c-0.2-0.1-0.3-0.1-0.3-0.1
		c-0.1,0-0.2-0.2-0.1-0.3C27.6,23.6,27.7,23.5,27.9,23.6C27.8,23.6,27.9,23.6,27.9,23.6z"/>
	<path fill="#707070" stroke="#707070" stroke-width="0.15" stroke-linejoin="round" stroke-miterlimit="10" d="M18.3,18.6
		c-0.2-0.1-0.5-0.3-0.7-0.4c-0.2-0.1-0.5-0.3-0.7-0.4L15.6,17l-2.8-1.6c-0.1-0.1-0.1-0.2-0.1-0.3c0,0,0-0.1,0.1-0.1l2.8-1.6l1.4-0.8
		c0.2-0.1,0.5-0.3,0.7-0.4c0.2-0.1,0.5-0.3,0.7-0.4c0.1-0.1,0.3,0,0.3,0.1c0.1,0.1,0,0.3-0.1,0.3c0,0,0,0,0,0
		c-0.2,0.1-0.5,0.2-0.7,0.4c-0.2,0.1-0.5,0.3-0.7,0.4l-1.4,0.8L13,15.4l0-0.3l2.8,1.6l1.4,0.8c0.2,0.1,0.5,0.3,0.7,0.4
		c0.2,0.1,0.5,0.3,0.7,0.4c0.1,0.1,0.2,0.2,0.1,0.3C18.6,18.7,18.5,18.7,18.3,18.6C18.3,18.6,18.3,18.6,18.3,18.6z"/>
	<path fill="#707070" stroke="#707070" stroke-width="0.15" stroke-linejoin="round" stroke-miterlimit="10" d="M18.5,18.6
		c0,0-0.1,0-0.3,0.1c-0.2,0.1-0.4,0.2-0.6,0.3c-0.5,0.3-1.2,0.7-1.9,1.1c-0.7,0.4-1.4,0.8-1.9,1.1c-0.3,0.2-0.5,0.3-0.6,0.4
		c-0.1,0.1-0.2,0.2-0.2,0.2c-0.1,0.1-0.3,0.1-0.4,0c-0.1-0.1-0.1-0.3,0-0.4c0,0,0,0,0.1,0c0,0,0.1,0,0.3-0.1
		c0.2-0.1,0.4-0.2,0.6-0.3c0.5-0.3,1.2-0.7,1.9-1.1c0.7-0.4,1.4-0.8,1.9-1.1c0.3-0.1,0.5-0.3,0.6-0.4c0.1-0.1,0.2-0.2,0.2-0.2
		c0.1-0.1,0.2-0.1,0.3,0C18.7,18.4,18.7,18.5,18.5,18.6C18.6,18.6,18.6,18.6,18.5,18.6z"/>
	<path fill="#707070" stroke="#707070" stroke-width="0.15" stroke-linejoin="round" stroke-miterlimit="10" d="M18.3,18.2
		c0.5-0.2,0.9-0.5,1.4-0.8c0.5-0.3,0.9-0.5,1.4-0.8l2.8-1.6c0.1-0.1,0.2,0,0.3,0.1c0,0,0,0.1,0,0.1l0,6.4c0,0.1-0.1,0.2-0.2,0.2
		c0,0-0.1,0-0.1,0l-2.8-1.6c-0.9-0.5-1.9-1.1-2.8-1.6c-0.1-0.1-0.2-0.2-0.1-0.3c0.1-0.1,0.2-0.2,0.3-0.1c0,0,0,0,0,0
		c0.9,0.6,1.8,1.1,2.8,1.6l2.8,1.6l-0.3,0.2l0-6.4l0.3,0.2L21.3,17c-0.5,0.3-0.9,0.5-1.4,0.8c-0.5,0.3-0.9,0.5-1.4,0.8
		c-0.1,0.1-0.3,0-0.3-0.1C18.2,18.4,18.2,18.3,18.3,18.2C18.3,18.2,18.3,18.2,18.3,18.2z"/>
</g>
</svg>
