<?xml version="1.0" encoding="utf-8"?>
<!-- Generator: Adobe Illustrator 18.1.1, SVG Export Plug-In . SVG Version: 6.00 Build 0)  -->
<!DOCTYPE svg PUBLIC "-//W3C//DTD SVG 1.1//EN" "http://www.w3.org/Graphics/SVG/1.1/DTD/svg11.dtd">
<svg version="1.1" id="Layer_1" xmlns="http://www.w3.org/2000/svg" xmlns:xlink="http://www.w3.org/1999/xlink" x="0px" y="0px"
	 viewBox="0 0 36.9 36.9" enable-background="new 0 0 36.9 36.9" xml:space="preserve">
<g>
	<polygon fill="none" stroke="#707070" stroke-width="0.5" stroke-linejoin="round" stroke-miterlimit="10" points="30.5,33.5 
		6.4,33.5 6.4,3.3 22.6,3.3 22.6,11.2 30.5,11.2 	"/>
	<polygon fill="none" stroke="#707070" stroke-width="0.5" stroke-linejoin="round" stroke-miterlimit="10" points="22.6,3.3 
		30.5,11.2 22.6,11.2 	"/>
</g>
<g>
	<path fill="none" stroke="#707070" stroke-width="0.33" stroke-linejoin="round" stroke-miterlimit="10" d="M10.2,25.2
		c0,0,1.4,0,2.1,0c0.7,0,0.5-1.8,1.3-1.8c0.7,0,0.6,0,1.3,0s0.5,0,1.3,0c0.8,0,0.6,0,1.4,0c0.9,0,0.6,5.8,1.5,5.8c0.8,0,0.4,0,1.3,0
		c0.8,0,0.8-2.1,1.4-2.1c0.6,0,0.6,0,1.3,0c0.8,0,0.6,1.8,1.5,1.8c0.5,0,1.9,0,1.9,0"/>
	<path fill="none" stroke="#707070" stroke-width="0.33" stroke-linejoin="round" stroke-miterlimit="10" d="M10.2,25.3
		c0,0,1.4,0,2.1,0c0.7,0,0.5,0,1.3,0c0.7,0,0.6,0,1.3,0s0.5-1.8,1.3-1.8c0.8,0,0.6,0,1.4,0c0.9,0,0.6,5.8,1.5,5.8c0.8,0,0.4,0,1.3,0
		c1,0,0.6-5.9,1.4-5.9c0.6,0,0.6,0,1.3,0s0.6,0,1.5,0c0.5,0,1.9,0,1.9,0"/>
	<path fill="none" stroke="#707070" stroke-width="0.33" stroke-linejoin="round" stroke-miterlimit="10" d="M10.2,25.4
		c0,0,1.4,0,2.1,0c0.7,0,0.5,1.6,1.3,1.6c0.7,0,0.6,0,1.3,0c0.9,0,0.5-3.4,1.3-3.4c0.8,0,0.6,0,1.4,0c0.9,0,0.6,5.8,1.5,5.8
		c0.8,0,0.4,0,1.3,0c1,0,0.5-4.2,1.4-4.2c0.6,0,0.6,0,1.3,0c0.8,0,0.6-1.7,1.5-1.7c0.5,0,1.9,0,1.9,0"/>
	<path fill="none" stroke="#707070" stroke-width="0.33" stroke-linejoin="round" stroke-miterlimit="10" d="M10.2,25.6
		c0,0,1.4,0,2.1,0c0.7,0,0.5,1.6,1.3,1.6c0.7,0,0.6,0,1.3,0s0.5,1.9,1.3,1.9c0.8,0,0.6,0,1.4,0c1,0,0.5,0,1.5,0c0.8,0,0.4,0,1.3,0
		c1,0,0.6-5.5,1.4-5.5c0.6,0,0.6,0,1.3,0c0.8,0,0.6,1.7,1.5,1.7c0.5,0,1.9,0,1.9,0"/>
	<path fill="none" stroke="#707070" stroke-width="0.33" stroke-linejoin="round" stroke-miterlimit="10" d="M10.2,25.7
		c0,0,1.4,0,2.1,0c0.7,0,0.5,3.1,1.3,3.1c0.7,0,0.6,0,1.3,0s0.5,0,1.3,0c0.8,0,0.6,0,1.4,0c1,0,0.5,0,1.5,0c0.8,0,0.4,0,1.3,0
		c1,0,0.6-3.5,1.4-3.5c0.6,0,0.6,0,1.3,0c0.8,0,0.5-1.7,1.5-1.7c0.5,0,1.9,0,1.9,0"/>
	<path fill="none" stroke="#707070" stroke-width="0.33" stroke-linejoin="round" stroke-miterlimit="10" d="M10.2,25.8
		c0,0,1.4,0,2.1,0c0.7,0,0.5,3.1,1.3,3.1c0.7,0,0.6,0,1.3,0s0.5,0,1.3,0c0.8,0,0.6,0,1.4,0c1,0,0.5,0,1.5,0c0.8,0,0.4,0,1.3,0
		c1,0,0.7-1.8,1.4-1.8c0.6,0,0.6,0,1.3,0c0.8,0,0.6,1.8,1.5,1.8c0.5,0,1.9,0,1.9,0"/>
</g>
<g>
	
		<line fill="none" stroke="#707070" stroke-width="0.33" stroke-linejoin="round" stroke-miterlimit="10" x1="10.2" y1="9.6" x2="18.4" y2="9.6"/>
	
		<line fill="none" stroke="#707070" stroke-width="0.33" stroke-linejoin="round" stroke-miterlimit="10" x1="10.2" y1="10.7" x2="18.4" y2="10.7"/>
	
		<line fill="none" stroke="#707070" stroke-width="0.33" stroke-linejoin="round" stroke-miterlimit="10" x1="10.2" y1="11.8" x2="18.4" y2="11.8"/>
	
		<line fill="none" stroke="#707070" stroke-width="0.33" stroke-linejoin="round" stroke-miterlimit="10" x1="10.2" y1="13" x2="18.4" y2="13"/>
	
		<line fill="none" stroke="#707070" stroke-width="0.33" stroke-linejoin="round" stroke-miterlimit="10" x1="10.2" y1="14.1" x2="18.4" y2="14.1"/>
	
		<line fill="none" stroke="#707070" stroke-width="0.33" stroke-linejoin="round" stroke-miterlimit="10" x1="10.2" y1="15.2" x2="18.4" y2="15.2"/>
	
		<line fill="none" stroke="#707070" stroke-width="0.33" stroke-linejoin="round" stroke-miterlimit="10" x1="10.2" y1="16.3" x2="18.4" y2="16.3"/>
	
		<line fill="none" stroke="#707070" stroke-width="0.33" stroke-linejoin="round" stroke-miterlimit="10" x1="10.2" y1="17.5" x2="18.4" y2="17.5"/>
	
		<line fill="none" stroke="#707070" stroke-width="0.33" stroke-linejoin="round" stroke-miterlimit="10" x1="10.2" y1="18.6" x2="18.4" y2="18.6"/>
	
		<line fill="none" stroke="#707070" stroke-width="0.33" stroke-linejoin="round" stroke-miterlimit="10" x1="10.2" y1="19.7" x2="15.7" y2="19.7"/>
</g>
</svg>
