<?xml version="1.0" encoding="utf-8"?>
<!-- Generator: Adobe Illustrator 18.1.1, SVG Export Plug-In . SVG Version: 6.00 Build 0)  -->
<!DOCTYPE svg PUBLIC "-//W3C//DTD SVG 1.1//EN" "http://www.w3.org/Graphics/SVG/1.1/DTD/svg11.dtd">
<svg version="1.1" id="Layer_1" xmlns="http://www.w3.org/2000/svg" xmlns:xlink="http://www.w3.org/1999/xlink" x="0px" y="0px"
	 viewBox="0 0 36.9 36.9" enable-background="new 0 0 36.9 36.9" xml:space="preserve">
<g>
	<g>
		<path fill="#707070" d="M28.4,2.8c1.3,0,2.3,1,2.3,2.3v26.5c0,1.3-1,2.3-2.3,2.3h-20c-1.3,0-2.3-1-2.3-2.3V5.2
			c0-1.3,1-2.3,2.3-2.3H28.4 M7.8,31.2H29V4.8H7.8V31.2 M28.4,2.4h-20c-1.5,0-2.8,1.3-2.8,2.8v26.5c0,1.5,1.3,2.8,2.8,2.8h20
			c1.5,0,2.8-1.3,2.8-2.8V5.2C31.2,3.6,30,2.4,28.4,2.4L28.4,2.4z M8.3,5.2h20.3v25.5H8.3V5.2L8.3,5.2z"/>
	</g>
	<g>
		<path fill="#707070" d="M18.4,31.9c0.4,0,0.7,0.3,0.7,0.7c0,0.4-0.3,0.7-0.7,0.7s-0.7-0.3-0.7-0.7C17.7,32.2,18,31.9,18.4,31.9
			 M18.4,31.6c-0.6,0-1,0.5-1,1c0,0.6,0.5,1,1,1s1-0.5,1-1C19.4,32,19,31.6,18.4,31.6L18.4,31.6z"/>
	</g>
</g>
<g>
	
		<line fill="none" stroke="#707070" stroke-width="0.3" stroke-linejoin="round" stroke-miterlimit="10" x1="25.2" y1="7.7" x2="11.6" y2="28"/>
	
		<line fill="none" stroke="#707070" stroke-width="0.3" stroke-linejoin="round" stroke-miterlimit="10" x1="23.6" y1="12.5" x2="13.7" y2="26.7"/>
	
		<line fill="none" stroke="#707070" stroke-width="0.3" stroke-linejoin="round" stroke-miterlimit="10" x1="22.6" y1="9.5" x2="15.3" y2="20.3"/>
</g>
</svg>
