<?xml version="1.0" encoding="utf-8"?>
<!-- Generator: Adobe Illustrator 18.1.1, SVG Export Plug-In . SVG Version: 6.00 Build 0)  -->
<!DOCTYPE svg PUBLIC "-//W3C//DTD SVG 1.1//EN" "http://www.w3.org/Graphics/SVG/1.1/DTD/svg11.dtd">
<svg version="1.1" id="Layer_1" xmlns="http://www.w3.org/2000/svg" xmlns:xlink="http://www.w3.org/1999/xlink" x="0px" y="0px"
	 viewBox="0 0 22.7 22.7" enable-background="new 0 0 22.7 22.7" xml:space="preserve">
<path fill="#A5A5A5" d="M14.2,12.7c0.6-0.9,0.9-1.9,0.9-3c0-3-2.5-5.5-5.5-5.5S4.2,6.6,4.2,9.7s2.5,5.5,5.5,5.5c1.1,0,2.1-0.3,3-0.9
	l4.3,4.3l1.6-1.6L14.2,12.7z M11.5,13.1c-0.5,0.3-1.2,0.5-1.8,0.5c-2.1,0-3.9-1.7-3.9-3.9c0-2.1,1.7-3.9,3.9-3.9s3.9,1.7,3.9,3.9
	c0,0.7-0.2,1.3-0.5,1.8C12.7,12.1,12.1,12.7,11.5,13.1z"/>
</svg>
