<?xml version="1.0" encoding="utf-8"?>
<!-- Generator: Adobe Illustrator 18.1.1, SVG Export Plug-In . SVG Version: 6.00 Build 0)  -->
<!DOCTYPE svg PUBLIC "-//W3C//DTD SVG 1.1//EN" "http://www.w3.org/Graphics/SVG/1.1/DTD/svg11.dtd">
<svg version="1.1" id="Layer_1" xmlns="http://www.w3.org/2000/svg" xmlns:xlink="http://www.w3.org/1999/xlink" x="0px" y="0px"
	 viewBox="0 0 34 34" enable-background="new 0 0 34 34" xml:space="preserve">
<g>
	<path fill="#066CFF" d="M27.2,16.6c-3.2-4.2-6.5-6.3-10-6.3c-5.2,0-9.2,4.9-10.3,6.4c-0.3,0.4-0.3,0.8,0,1.2c1.1,1.4,4.9,6,10.2,6
		c3.5,0,6.9-2,10.2-5.9C27.5,17.5,27.5,17,27.2,16.6z M17,22.8c-4.7,0-8.3-4.2-9.4-5.6c1.1-1.5,4.8-6,9.5-6c3.2,0,6.3,2,9.2,5.9
		C23.3,20.9,20.2,22.8,17,22.8z"/>
	<path fill="#066CFF" d="M17,12.2c-2.7,0-4.8,2.2-4.8,4.8s2.2,4.8,4.8,4.8c2.7,0,4.8-2.2,4.8-4.8S19.7,12.2,17,12.2z M14.8,18.7
		c-0.9,0-1.7-0.7-1.7-1.7s0.7-1.7,1.7-1.7c0.9,0,1.7,0.7,1.7,1.7S15.7,18.7,14.8,18.7z"/>
</g>
</svg>
