<?xml version="1.0" encoding="utf-8"?>
<!-- Generator: Adobe Illustrator 18.1.1, SVG Export Plug-In . SVG Version: 6.00 Build 0)  -->
<!DOCTYPE svg PUBLIC "-//W3C//DTD SVG 1.1//EN" "http://www.w3.org/Graphics/SVG/1.1/DTD/svg11.dtd">
<svg version="1.1" id="Layer_1" xmlns="http://www.w3.org/2000/svg" xmlns:xlink="http://www.w3.org/1999/xlink" x="0px" y="0px"
	 viewBox="0 0 34 22.7" enable-background="new 0 0 34 22.7" xml:space="preserve">
<polygon fill="#707070" points="20.4,5 20,5.3 20.9,6.2 13.1,6.2 14,5.3 13.6,5 12.2,6.4 13.6,7.9 14,7.5 13.1,6.7 20.9,6.7 20,7.5 
	20.4,7.9 21.8,6.4 "/>
<g>
	<path fill="#066CFF" d="M23.5,17.7c-0.6-3.2-1.9-7-4.5-7h-4.2c-2.5,0-3.8,3.6-4.4,6.6l-1-0.2c1-4.9,2.8-7.4,5.4-7.4h4.2
		c2.6,0,4.5,2.6,5.4,7.8L23.5,17.7z"/>
</g>
</svg>
