<?xml version="1.0" encoding="utf-8"?>
<!-- Generator: Adobe Illustrator 18.1.1, SVG Export Plug-In . SVG Version: 6.00 Build 0)  -->
<!DOCTYPE svg PUBLIC "-//W3C//DTD SVG 1.1//EN" "http://www.w3.org/Graphics/SVG/1.1/DTD/svg11.dtd">
<svg version="1.1" id="Layer_1" xmlns="http://www.w3.org/2000/svg" xmlns:xlink="http://www.w3.org/1999/xlink" x="0px" y="0px"
	 viewBox="0 0 56.7 34" enable-background="new 0 0 56.7 34" xml:space="preserve">
<g>
	<path fill="#C1DAFF" d="M44.5,14.9h-5c-1.8,0-2.9-1.4-4-2.7c-1-1.2-1.9-2.3-3.2-2.3h-8.1c-1.3,0-2.2,1.1-3,2.3
		c-1,1.3-1.9,2.7-3.7,2.7h-5.3v-0.8h5.3c1.4,0,2.2-1.1,3.1-2.3c1-1.3,1.9-2.7,3.7-2.7h8.1c1.7,0,2.8,1.3,3.8,2.6
		c1,1.2,1.9,2.4,3.3,2.4h5V14.9z"/>
	<path fill="#C1DAFF" d="M44.5,15.9h-5c-1.7,0-2.8-0.8-3.9-1.6c-1-0.7-1.9-1.4-3.2-1.4h-8.1c-1.4,0-2.2,0.7-3.1,1.4
		c-1,0.8-1.9,1.6-3.6,1.6h-5.3v-0.8h5.3c1.4,0,2.3-0.7,3.1-1.4c0.9-0.8,1.9-1.6,3.6-1.6h8.1c1.6,0,2.7,0.8,3.7,1.6
		c1,0.7,2,1.4,3.4,1.4h5V15.9z"/>
	<path fill="#C1DAFF" d="M44.5,16.9h-5c-1.6,0-2.7-0.3-3.7-0.5c-1-0.2-2-0.5-3.4-0.5h-8.1c-1.5,0-2.3,0.2-3.2,0.5
		c-0.9,0.3-1.9,0.5-3.5,0.5h-5.3v-0.8h5.3c1.5,0,2.4-0.2,3.3-0.5c0.9-0.3,1.9-0.5,3.5-0.5h8.1c1.5,0,2.6,0.3,3.6,0.5
		c1,0.3,2,0.5,3.5,0.5h5V16.9z"/>
	<path fill="#C1DAFF" d="M32.4,24.9h-8.1c-1.7,0-2.7-1.3-3.7-2.7c-0.9-1.2-1.7-2.3-3.1-2.3h-5.3v-0.8h5.3c1.8,0,2.8,1.4,3.7,2.7
		c0.9,1.2,1.7,2.3,3,2.3h8.1c1.3,0,2.2-1.1,3.2-2.3c1.1-1.3,2.2-2.7,4-2.7h5v0.8h-5c-1.4,0-2.3,1.2-3.3,2.4
		C35.1,23.6,34.1,24.9,32.4,24.9z"/>
	<path fill="#C1DAFF" d="M32.4,21.9h-8.1c-1.7,0-2.7-0.8-3.6-1.6c-0.9-0.7-1.7-1.4-3.1-1.4h-5.3v-0.8h5.3c1.7,0,2.7,0.8,3.6,1.6
		c0.9,0.7,1.7,1.4,3.1,1.4h8.1c1.4,0,2.3-0.7,3.2-1.4c1.1-0.8,2.2-1.6,3.9-1.6h5v0.8h-5c-1.4,0-2.4,0.7-3.4,1.4
		C35.1,21.1,34,21.9,32.4,21.9z"/>
	<path fill="#C1DAFF" d="M32.4,18.9h-8.1c-1.6,0-2.5-0.3-3.5-0.5c-0.9-0.3-1.8-0.5-3.3-0.5h-5.3v-0.8h5.3c1.6,0,2.6,0.3,3.5,0.5
		c0.9,0.2,1.8,0.5,3.2,0.5h8.1c1.4,0,2.4-0.2,3.4-0.5c1-0.3,2.1-0.5,3.7-0.5h5v0.8h-5c-1.5,0-2.5,0.2-3.5,0.5
		C35,18.7,33.9,18.9,32.4,18.9z"/>
	<rect x="28.1" y="5.5" fill="#066CFF" width="0.5" height="23"/>
</g>
</svg>
