<?xml version="1.0" encoding="utf-8"?>
<!-- Generator: Adobe Illustrator 18.1.1, SVG Export Plug-In . SVG Version: 6.00 Build 0)  -->
<!DOCTYPE svg PUBLIC "-//W3C//DTD SVG 1.1//EN" "http://www.w3.org/Graphics/SVG/1.1/DTD/svg11.dtd">
<svg version="1.1" id="Layer_1" xmlns="http://www.w3.org/2000/svg" xmlns:xlink="http://www.w3.org/1999/xlink" x="0px" y="0px"
	 viewBox="0 0 20 16" enable-background="new 0 0 20 16" xml:space="preserve">
<g>
	<path fill="#066CFF" d="M10,1.7c4.9,0,7.8,1.8,7.8,4.9c0,3.1-2.9,4.9-7.8,4.9c-1,0-1.9-0.1-2.8-0.2l-0.6-0.1l-0.4,0.5
		c0,0-0.9,1.1-2.5,2c0.4-0.8,0.7-1.8,0.7-2.7l0-0.5l-0.4-0.3c-1.2-0.8-1.8-2-1.8-3.5C2.2,3.5,5.1,1.7,10,1.7 M10,0.7
		c-6.2,0-8.8,2.6-8.8,5.9c0,1.7,0.7,3.2,2.3,4.3c0.1,1.6-1.2,3.5-2.3,4.7c3.6-0.6,5.8-3.3,5.8-3.3c0.9,0.2,1.9,0.2,2.9,0.2
		c6.1,0,8.8-2.6,8.8-5.9C18.8,3.4,16.3,0.7,10,0.7L10,0.7z"/>
</g>
</svg>
