<?xml version="1.0" encoding="utf-8"?>
<!-- Generator: Adobe Illustrator 18.1.1, SVG Export Plug-In . SVG Version: 6.00 Build 0)  -->
<!DOCTYPE svg PUBLIC "-//W3C//DTD SVG 1.1//EN" "http://www.w3.org/Graphics/SVG/1.1/DTD/svg11.dtd">
<svg version="1.1" id="Layer_1" xmlns="http://www.w3.org/2000/svg" xmlns:xlink="http://www.w3.org/1999/xlink" x="0px" y="0px"
	 viewBox="0 0 34 34" enable-background="new 0 0 34 34" xml:space="preserve">
<g>
	<path fill="#066CFF" d="M28.4,31H6.5c-0.1,0-0.2-0.1-0.2-0.2v-4.3H0.8c-0.1,0-0.2-0.1-0.2-0.2v-23C0.5,3.1,0.6,3,0.8,3h32.5
		c0.1,0,0.2,0.1,0.2,0.2v23c0,0.1-0.1,0.2-0.2,0.2h-4.6v4.3C28.7,30.9,28.6,31,28.4,31z M6.8,30.5h21.4v-4.3c0-0.1,0.1-0.2,0.2-0.2
		H33V3.5H1V26h5.5c0.1,0,0.2,0.1,0.2,0.2V30.5z M31,22.5H3c-0.1,0-0.2-0.1-0.2-0.2V5.1C2.7,5,2.8,4.9,3,4.9H31
		c0.1,0,0.2,0.1,0.2,0.2v17.1C31.3,22.4,31.2,22.5,31,22.5z M3.2,22h27.6V5.4H3.2V22z"/>
</g>
</svg>
