<?xml version="1.0" encoding="utf-8"?>
<!-- Generator: Adobe Illustrator 18.1.0, SVG Export Plug-In . SVG Version: 6.00 Build 0)  -->
<!DOCTYPE svg PUBLIC "-//W3C//DTD SVG 1.1//EN" "http://www.w3.org/Graphics/SVG/1.1/DTD/svg11.dtd">
<svg version="1.1" id="Layer_1" xmlns="http://www.w3.org/2000/svg" xmlns:xlink="http://www.w3.org/1999/xlink" x="0px" y="0px"
	 viewBox="0 0 841.9 595.3" enable-background="new 0 0 841.9 595.3" xml:space="preserve">
<path fill="#B5B5B5" d="M213.9,128v339.2h522.5V128H213.9z M714.1,150.3v89.1H238.7v-89.1H714.1z M714.1,251.8v94.1H238.7v-94.1
	H714.1z M238.7,442.5v-86.7h475.4v86.7H238.7z"/>
<g>
	<path fill="#01BFA1" d="M130,219.3c0-3.6,1.9-5.5,5.5-5.5h9.7V184c0-2.7,0.1-5.5,0.1-5.5h-0.2c0,0-1,2.2-2.2,3.2l-0.9,0.8
		c-2.6,2.4-5.3,2.3-7.7-0.3l-2.6-2.8c-2.5-2.6-2.4-5.3,0.2-7.8l12.4-11.6c2.1-1.9,4-2.7,6.8-2.7h5.7c3.6,0,5.5,1.9,5.5,5.5v51h9.8
		c3.6,0,5.5,1.9,5.5,5.5v4c0,3.6-1.9,5.5-5.5,5.5h-36.6c-3.6,0-5.5-1.9-5.5-5.5V219.3z"/>
</g>
<g>
	<path fill="#01BFA1" d="M129.6,330.1c0-26.4,30.9-31.1,30.9-41.4c0-5-4-7.1-7.7-7.1c-3.2,0-5.9,1.7-7.6,3.5
		c-2.5,2.4-5.1,3.4-7.8,1.2l-3.9-3.1c-2.8-2.2-3.5-4.7-1.4-7.4c3.5-4.6,10.4-10.7,22.3-10.7c11.7,0,24.4,6.7,24.4,21.9
		c0,22.3-28.9,26.6-29.8,35.8h25.4c3.6,0,5.5,1.9,5.5,5.5v4c0,3.6-1.9,5.5-5.5,5.5h-38.9c-3.4,0-5.9-1.9-5.9-5.5V330.1z"/>
</g>
<g>
	<path fill="#01BFA1" d="M130.2,436.3l2.7-4.4c1.9-3.1,4.4-3.3,7.5-1.4c2.7,1.5,6.2,3,10.2,3c6.5,0,10.2-3.2,10.2-7.1
		c0-5.6-5.6-7.9-13.3-7.9h-0.4c-3.2,0-4.8-1-6.2-3.8l-0.5-1c-1.2-2.3-0.7-4.8,1.3-7.1l6.5-7.9c3.4-4.1,6.2-6.7,6.2-6.7v-0.2
		c0,0-2.3,0.5-6.8,0.5H136c-3.6,0-5.5-1.9-5.5-5.5v-4c0-3.6,1.9-5.5,5.5-5.5h34.1c3.6,0,5.5,1.9,5.5,5.4v1.6c0,2.8-0.7,4.7-2.5,6.8
		l-12,13.8c10.6,2.3,17.3,10.7,17.3,20.7c0,12.2-8.6,24.4-26.5,24.4c-9.7,0-16.5-3.4-20.5-6.1C128.6,441.9,128.4,439.2,130.2,436.3z
		"/>
</g>
</svg>
