<?xml version="1.0" encoding="utf-8"?>
<!-- Generator: Adobe Illustrator 18.1.1, SVG Export Plug-In . SVG Version: 6.00 Build 0)  -->
<!DOCTYPE svg PUBLIC "-//W3C//DTD SVG 1.1//EN" "http://www.w3.org/Graphics/SVG/1.1/DTD/svg11.dtd">
<svg version="1.1" id="Layer_1" xmlns="http://www.w3.org/2000/svg" xmlns:xlink="http://www.w3.org/1999/xlink" x="0px" y="0px"
	 viewBox="0 0 56.7 34" enable-background="new 0 0 56.7 34" xml:space="preserve">
<g>
	<path fill="#B5B5B5" d="M39.2,14.5c1.2,0,1.8,0.7,1.8,0.7l-0.4,0.7c0,0-0.6-0.5-1.4-0.5c-1.1,0-1.7,0.8-1.7,1.7
		c0,0.9,0.6,1.8,1.7,1.8c0.9,0,1.4-0.6,1.4-0.6l0.5,0.7c0,0-0.7,0.8-2,0.8c-1.5,0-2.6-1.1-2.6-2.6C36.6,15.6,37.7,14.5,39.2,14.5z"
		/>
	<path fill="#B5B5B5" d="M45.3,25.4c1.5,0,2.6,1.1,2.6,2.5c0,1.5-1.1,2.6-2.6,2.6s-2.6-1.1-2.6-2.6C42.7,26.5,43.8,25.4,45.3,25.4z
		 M45.3,29.7c0.9,0,1.6-0.8,1.6-1.8c0-1-0.7-1.7-1.6-1.7c-0.9,0-1.6,0.7-1.6,1.7C43.6,29,44.4,29.7,45.3,29.7z"/>
	<path fill="#B5B5B5" d="M45.3,3.5c1.5,0,2.6,1.1,2.6,2.5c0,1.5-1.1,2.6-2.6,2.6S42.7,7.5,42.7,6C42.7,4.6,43.8,3.5,45.3,3.5z
		 M45.3,7.8c0.9,0,1.6-0.8,1.6-1.8c0-1-0.7-1.7-1.6-1.7c-0.9,0-1.6,0.7-1.6,1.7C43.6,7,44.4,7.8,45.3,7.8z"/>
	<polygon fill="#B5B5B5" points="48.7,3.6 49.7,3.6 49.7,5.7 51.9,5.7 51.9,3.6 52.8,3.6 52.8,8.5 51.9,8.5 51.9,6.4 49.7,6.4 
		49.7,8.5 48.7,8.5 	"/>
	<polyline fill="#707070" points="35.2,17.5 32.1,17.5 32.1,17 35.2,17 35.2,17.5 	"/>
	<path fill="#D7D7D7" d="M28,13.2c-2.2,0-4,1.7-4.1,3.9h1.4v0.5h-1.4c0.1,2.2,1.9,3.9,4.1,3.9c2.3,0,4.1-1.8,4.1-4.1v-0.1
		C32.1,15,30.3,13.2,28,13.2"/>
	<path fill="#909090" d="M32.1,17.2L32.1,17.2C32.1,17.3,32.1,17.3,32.1,17.2C32.1,17.3,32.1,17.2,32.1,17.2"/>
	<polyline fill="#707070" points="25.2,17.5 22.1,17.5 22.1,17 25.2,17 25.2,17.5 	"/>
	<path fill="#D7D7D7" d="M18,13.2c-2.2,0-4,1.7-4.1,3.9h1.4v0.5h-1.4c0.1,2.2,1.9,3.9,4.1,3.9c2.3,0,4.1-1.8,4.1-4.1v-0.1
		C22.1,15,20.3,13.2,18,13.2"/>
	<path fill="#909090" d="M22.1,17.2L22.1,17.2C22.1,17.3,22.1,17.3,22.1,17.2C22.1,17.3,22.1,17.2,22.1,17.2"/>
	<polyline fill="#707070" points="15.2,17.5 12.1,17.5 12.1,17 15.2,17 15.2,17.5 	"/>
	<path fill="#D7D7D7" d="M8,13.2c-2.3,0-4.1,1.8-4.1,4.1s1.8,4.1,4.1,4.1c2.3,0,4.1-1.8,4.1-4.1v-0.1C12.1,15,10.3,13.2,8,13.2"/>
	<path fill="#909090" d="M12.1,17.2L12.1,17.2C12.1,17.3,12.1,17.3,12.1,17.2C12.1,17.3,12.1,17.2,12.1,17.2"/>
	
		<rect x="39.6" y="22.8" transform="matrix(0.4999 0.8661 -0.8661 0.4999 40.7015 -24.4715)" fill="#707070" width="3.9" height="0.5"/>
	
		<rect x="41.3" y="21.8" transform="matrix(0.4999 0.8661 -0.8661 0.4999 40.7015 -26.4716)" fill="#707070" width="3.9" height="0.5"/>
	
		<rect x="41.7" y="9.6" transform="matrix(0.8658 0.5003 -0.5003 0.8658 11.4059 -19.4416)" fill="#707070" width="0.5" height="3.9"/>
</g>
</svg>
