<?xml version="1.0" encoding="utf-8"?>
<!-- Generator: Adobe Illustrator 18.1.1, SVG Export Plug-In . SVG Version: 6.00 Build 0)  -->
<!DOCTYPE svg PUBLIC "-//W3C//DTD SVG 1.1//EN" "http://www.w3.org/Graphics/SVG/1.1/DTD/svg11.dtd">
<svg version="1.1" id="Layer_1" xmlns="http://www.w3.org/2000/svg" xmlns:xlink="http://www.w3.org/1999/xlink" x="0px" y="0px"
	 viewBox="0 0 56.7 34" enable-background="new 0 0 56.7 34" xml:space="preserve">
<g>
	<path fill="#D7D7D7" d="M51.8,21c-0.8,1.3-2.3,2.7-4.4,2.7c-2,0-5.1,0-5.1,0c2,0,4.2-1.5,5.5-3.8h4.6C52.4,19.9,52.3,20.2,51.8,21z
		"/>
	<path fill="#D7D7D7" d="M28.1,10.3c-2,0-3.5,1.3-4.6,3l-3.9,6c-2.1,2.9-3.6,4.4-5.8,4.4c0,0,3.1,0,5.1,0s3.4-1.3,4.6-3l3.9-6
		c2-2.9,3.6-4.4,5.8-4.4C33.2,10.3,30.2,10.3,28.1,10.3z"/>
	<path fill="#B5B5B5" d="M4.3,14.6L5,10.3l4.2,1.6c0,0,1.4,4.1,3.5,7.1c2.1,2.9,3.9,4.7,6.1,4.7c0,0-3.1,0-5.1,0s-3.6-1.5-5.1-3.1
		C6.3,18,4.3,14.6,4.3,14.6z"/>
	<path fill="#B5B5B5" d="M41.6,19.3l-3.7-6c-1.2-1.8-2.6-3-4.6-3c-2,0-5.1,0-5.1,0c2.2,0,3.8,1.4,5.8,4.4l3.7,6c1.2,1.8,2.6,3,4.6,3
		s5.1,0,5.1,0C45.2,23.7,43.6,22.2,41.6,19.3z"/>
</g>
</svg>
