<?xml version="1.0" encoding="utf-8"?>
<!-- Generator: Adobe Illustrator 18.1.1, SVG Export Plug-In . SVG Version: 6.00 Build 0)  -->
<!DOCTYPE svg PUBLIC "-//W3C//DTD SVG 1.1//EN" "http://www.w3.org/Graphics/SVG/1.1/DTD/svg11.dtd">
<svg version="1.1" id="Layer_1" xmlns="http://www.w3.org/2000/svg" xmlns:xlink="http://www.w3.org/1999/xlink" x="0px" y="0px"
	 viewBox="0 0 56.7 34" enable-background="new 0 0 56.7 34" xml:space="preserve">
<g>
	<path fill="#B5B5B5" d="M14,14.1h0.9l1.9,2.9c0.2,0.3,0.4,0.8,0.4,0.8h0c0,0,0-0.5,0-0.8v-2.9H18v5h-0.9l-1.9-2.9
		c-0.2-0.3-0.4-0.8-0.4-0.8h0c0,0,0,0.5,0,0.8v2.9H14V14.1z"/>
	<polygon fill="#B5B5B5" points="6.4,14.1 7.3,14.1 7.3,16.2 9.5,16.2 9.5,14.1 10.5,14.1 10.5,19.1 9.5,19.1 9.5,17 7.3,17 
		7.3,19.1 6.4,19.1 	"/>
	<path fill="#B5B5B5" d="M11.3,21.2c0-1,1.4-1.2,1.4-1.8c0-0.3-0.2-0.4-0.4-0.4c-0.3,0-0.5,0.3-0.5,0.3L11.3,19c0,0,0.3-0.6,1-0.6
		c0.5,0,0.9,0.3,0.9,0.9c0,0.9-1.3,1.1-1.3,1.6h1.4v0.5h-1.9C11.3,21.3,11.3,21.2,11.3,21.2z"/>
	<rect x="19.6" y="16.5" fill="#707070" width="3.1" height="0.5"/>
	<path fill="#D7D7D7" d="M26.8,12.7c-2.3,0-4.1,1.8-4.1,4.1c0,2.3,1.8,4.1,4.1,4.1c2.2,0,4-1.7,4.1-3.9h-1.4v-0.5h1.4
		C30.8,14.4,29,12.7,26.8,12.7"/>
	<polyline fill="#707070" points="32.7,17 29.6,17 29.6,16.5 32.7,16.5 32.7,17 	"/>
	<path fill="#D7D7D7" d="M36.8,12.7c-2.3,0-4.1,1.8-4.1,4.1c0,2.3,1.8,4.1,4.1,4.1c2.2,0,4-1.7,4.1-3.9h-1.4v-0.5h1.4
		C40.8,14.4,39,12.7,36.8,12.7"/>
	<polyline fill="#707070" points="42.7,17 39.6,17 39.6,16.5 42.7,16.5 42.7,17 	"/>
	<path fill="#D7D7D7" d="M46.8,12.7c-2.3,0-4.1,1.8-4.1,4.1c0,2.3,1.8,4.1,4.1,4.1c2.3,0,4.1-1.8,4.1-4.1
		C51,14.5,49.1,12.7,46.8,12.7"/>
</g>
</svg>
