<?xml version="1.0" encoding="utf-8"?>
<!-- Generator: Adobe Illustrator 18.1.1, SVG Export Plug-In . SVG Version: 6.00 Build 0)  -->
<!DOCTYPE svg PUBLIC "-//W3C//DTD SVG 1.1//EN" "http://www.w3.org/Graphics/SVG/1.1/DTD/svg11.dtd">
<svg version="1.1" id="Layer_1" xmlns="http://www.w3.org/2000/svg" xmlns:xlink="http://www.w3.org/1999/xlink" x="0px" y="0px"
	 viewBox="0 0 34 34" enable-background="new 0 0 34 34" xml:space="preserve">
<g>
	<path fill="#066CFF" d="M24.7,11.9c0-0.1-0.1-0.2-0.1-0.2l-2.1-2.1c-0.1-0.1-0.1-0.1-0.2-0.1l-2.7-0.6c-0.2,0-0.3,0-0.5,0.1
		l-8.7,8.7l0,0c-0.1,0.1-0.1,0.1-0.1,0.2l-1.5,6.8c0,0.2,0,0.3,0.1,0.5c0.1,0.1,0.2,0.1,0.4,0.1c0,0,0.1,0,0.1,0l6.9-1.4
		c0.1,0,0.2-0.1,0.3-0.1l0,0l8.7-8.7c0.1-0.1,0.2-0.3,0.1-0.5L24.7,11.9z M21.8,10.3l1.9,1.9l0.4,1.7l-1.7-0.4l-1.9-1.9l-0.4-1.7
		L21.8,10.3z M16,22.8l-1.5-0.4l7.9-7.9l1.5,0.4L16,22.8z M13.5,22L12,20.6l8-8l1.4,1.4L13.5,22z M19.5,11.8l-7.9,7.9l-0.4-1.5
		l7.9-7.9L19.5,11.8z"/>
	<ellipse transform="matrix(0.7071 0.7071 -0.7071 0.7071 14.9349 -12.1318)" fill="#066CFF" cx="22.1" cy="12" rx="1.4" ry="0.4"/>
</g>
</svg>
